<svg width="24" height="24" viewBox="0 0 24 24" fill="none" xmlns="http://www.w3.org/2000/svg">
<path d="M21.3078 20.6538L17.7693 17.1152H8.00001C7.51351 17.1152 7.09701 16.942 6.75051 16.5955C6.40401 16.2492 6.23076 15.8327 6.23076 15.346V14.7308H17.1155C17.6125 14.7308 18.038 14.5538 18.392 14.1997C18.746 13.8457 18.923 13.4202 18.923 12.923V6H19.5385C20.025 6 20.4415 6.17325 20.788 6.51975C21.1345 6.86625 21.3078 7.28275 21.3078 7.76925V20.6538ZM4.19226 12.6463L5.60776 11.2308H15.1155C15.2052 11.2308 15.2788 11.2019 15.3365 11.1443C15.3942 11.0866 15.423 11.0128 15.423 10.923V4.30775C15.423 4.21792 15.3942 4.14417 15.3365 4.0865C15.2788 4.02883 15.2052 4 15.1155 4H4.50001C4.41034 4 4.33659 4.02883 4.27876 4.0865C4.22109 4.14417 4.19226 4.21792 4.19226 4.30775V12.6463ZM2.69226 16.2693V4.30775C2.69226 3.81058 2.86926 3.385 3.22326 3.031C3.57726 2.677 4.00284 2.5 4.50001 2.5H15.1155C15.6125 2.5 16.038 2.677 16.392 3.031C16.746 3.385 16.923 3.81058 16.923 4.30775V10.923C16.923 11.4202 16.746 11.8457 16.392 12.1997C16.038 12.5538 15.6125 12.7308 15.1155 12.7308H6.23076L2.69226 16.2693Z" fill="#CCA766"/>
</svg>
