<svg width="18" height="18" viewBox="0 0 18 18" fill="none" xmlns="http://www.w3.org/2000/svg">
<path d="M9 2.25H3.75C3.35218 2.25 2.97064 2.40804 2.68934 2.68934C2.40804 2.97064 2.25 3.35218 2.25 3.75V14.25C2.25 14.6478 2.40804 15.0294 2.68934 15.3107C2.97064 15.592 3.35218 15.75 3.75 15.75H14.25C14.6478 15.75 15.0294 15.592 15.3107 15.3107C15.592 15.0294 15.75 14.6478 15.75 14.25V9" stroke="#CCA766" stroke-width="1.5" stroke-linecap="round" stroke-linejoin="round"/>
<path d="M13.7813 1.96868C14.0796 1.67031 14.4843 1.50269 14.9063 1.50269C15.3282 1.50269 15.7329 1.67031 16.0313 1.96868C16.3296 2.26704 16.4972 2.67172 16.4972 3.09368C16.4972 3.51563 16.3296 3.92031 16.0313 4.21868L9.27151 10.9792C9.09342 11.1571 8.87341 11.2874 8.63176 11.3579L6.47701 11.9879C6.41247 12.0067 6.34406 12.0079 6.27894 11.9912C6.21382 11.9745 6.15438 11.9406 6.10684 11.8931C6.05931 11.8456 6.02543 11.7861 6.00874 11.721C5.99206 11.6559 5.99319 11.5875 6.01201 11.5229L6.64201 9.36818C6.7129 9.12671 6.84341 8.90697 7.02151 8.72918L13.7813 1.96868Z" stroke="#CCA766" stroke-width="1.5" stroke-linecap="round" stroke-linejoin="round"/>
</svg>
