<?xml version="1.0" encoding="UTF-8"?>
<svg id="Layer_1" data-name="Layer 1" xmlns="http://www.w3.org/2000/svg" xmlns:xlink="http://www.w3.org/1999/xlink" viewBox="0 0 399.6666666667 374.8235881224">
  <defs>
    <style>
      .cls-1 {
        fill: url(#linear-gradient-15);
      }

      .cls-2 {
        fill: url(#linear-gradient-13);
      }

      .cls-3 {
        fill: url(#linear-gradient-28);
      }

      .cls-4 {
        fill: url(#linear-gradient-2);
      }

      .cls-5 {
        fill: url(#linear-gradient-25);
      }

      .cls-6 {
        fill: url(#linear-gradient-10);
      }

      .cls-7 {
        fill: url(#linear-gradient-12);
      }

      .cls-8 {
        fill: url(#linear-gradient-40);
      }

      .cls-9 {
        fill: url(#linear-gradient-27);
      }

      .cls-10 {
        fill: url(#linear-gradient-37);
      }

      .cls-11 {
        fill: url(#linear-gradient-39);
      }

      .cls-12 {
        fill: #1f2225;
      }

      .cls-13 {
        fill: #fff;
        stroke: #231f20;
        stroke-miterlimit: 10;
      }

      .cls-14 {
        fill: url(#linear-gradient-26);
      }

      .cls-15 {
        fill: none;
      }

      .cls-16 {
        fill: url(#linear-gradient-4);
      }

      .cls-17 {
        fill: url(#linear-gradient-35);
      }

      .cls-18 {
        fill: url(#linear-gradient-30);
      }

      .cls-19 {
        fill: url(#linear-gradient-3);
      }

      .cls-20 {
        fill: url(#linear-gradient-34);
      }

      .cls-21 {
        fill: url(#linear-gradient-5);
      }

      .cls-22 {
        fill: url(#linear-gradient-38);
      }

      .cls-23 {
        fill: url(#linear-gradient-22);
      }

      .cls-24 {
        fill: url(#linear-gradient-24);
      }

      .cls-25 {
        fill: url(#linear-gradient-33);
      }

      .cls-26 {
        fill: url(#linear-gradient-8);
      }

      .cls-27 {
        fill: url(#linear-gradient-14);
      }

      .cls-28 {
        fill: url(#linear-gradient-29);
      }

      .cls-29 {
        fill: url(#linear-gradient-20);
      }

      .cls-30 {
        fill: url(#linear-gradient-17);
      }

      .cls-31 {
        fill: url(#linear-gradient-7);
      }

      .cls-32 {
        fill: url(#linear-gradient-9);
      }

      .cls-33 {
        fill: url(#linear-gradient-11);
      }

      .cls-34 {
        fill: url(#linear-gradient-19);
      }

      .cls-35 {
        fill: url(#linear-gradient-6);
      }

      .cls-36 {
        fill: url(#linear-gradient-36);
      }

      .cls-37 {
        fill: url(#linear-gradient-21);
      }

      .cls-38 {
        fill: url(#linear-gradient-32);
      }

      .cls-39 {
        fill: url(#linear-gradient-16);
      }

      .cls-40 {
        fill: url(#linear-gradient);
      }

      .cls-41 {
        fill: url(#linear-gradient-23);
      }

      .cls-42 {
        fill: url(#linear-gradient-31);
      }

      .cls-43 {
        clip-path: url(#clippath);
      }

      .cls-44 {
        opacity: .08;
      }

      .cls-45 {
        fill: url(#linear-gradient-18);
      }
    </style>
    <clipPath id="clippath">
      <rect class="cls-15" x="22.1666666667" y="10.3234010889" width="354" height="354" rx="93.2586206897" ry="93.2586206897"/>
    </clipPath>
    <linearGradient id="linear-gradient" x1="352.4964750776" y1="54.1299705887" x2="472.766137999" y2="310.8490717123" gradientUnits="userSpaceOnUse">
      <stop offset="0" stop-color="#fff" stop-opacity="0"/>
      <stop offset="1" stop-color="#fff"/>
    </linearGradient>
    <linearGradient id="linear-gradient-2" x1="363.754977095" y1="48.8555043075" x2="484.0246400164" y2="305.5746054311" xlink:href="#linear-gradient"/>
    <linearGradient id="linear-gradient-3" x1="377.0935514653" y1="42.6065503483" x2="497.3632143868" y2="299.3256514721" xlink:href="#linear-gradient"/>
    <linearGradient id="linear-gradient-4" x1="331.6545005435" y1="63.894172944" x2="451.9241634648" y2="320.6132740676" xlink:href="#linear-gradient"/>
    <linearGradient id="linear-gradient-5" x1="320.3959985261" y1="69.1686392253" x2="440.6656614474" y2="325.8877403489" xlink:href="#linear-gradient"/>
    <linearGradient id="linear-gradient-6" x1="344.9930793336" y1="57.6452169142" x2="465.2627422549" y2="314.3643180376" xlink:href="#linear-gradient"/>
    <linearGradient id="linear-gradient-7" x1="312.892602782" y1="72.6838855507" x2="433.1622657034" y2="329.4029866743" xlink:href="#linear-gradient"/>
    <linearGradient id="linear-gradient-8" x1="299.5540239919" y1="78.9328415806" x2="419.8236869133" y2="335.6519427042" xlink:href="#linear-gradient"/>
    <linearGradient id="linear-gradient-9" x1="288.2955219745" y1="84.2073078618" x2="408.5651848959" y2="340.9264089854" xlink:href="#linear-gradient"/>
    <linearGradient id="linear-gradient-10" x1="280.7921262304" y1="87.7225541873" x2="401.0617891518" y2="344.4416553109" xlink:href="#linear-gradient"/>
    <linearGradient id="linear-gradient-11" x1="256.1950454229" y1="99.2459764984" x2="376.4647083443" y2="355.965077622" xlink:href="#linear-gradient"/>
    <linearGradient id="linear-gradient-12" x1="267.4535474403" y1="93.9715102171" x2="387.7232103617" y2="350.6906113407" xlink:href="#linear-gradient"/>
    <linearGradient id="linear-gradient-13" x1="248.6916496788" y1="102.7612228238" x2="368.9613126002" y2="359.4803239475" xlink:href="#linear-gradient"/>
    <linearGradient id="linear-gradient-14" x1="240.6989107059" y1="106.5057202837" x2="360.9685736274" y2="363.2248214074" xlink:href="#linear-gradient"/>
    <linearGradient id="linear-gradient-15" x1="322.7547737944" y1="68.0635827445" x2="443.0244367157" y2="324.7826838681" xlink:href="#linear-gradient"/>
    <linearGradient id="linear-gradient-16" x1="290.6542972428" y1="83.1022513811" x2="410.9239601641" y2="339.8213525047" xlink:href="#linear-gradient"/>
    <linearGradient id="linear-gradient-17" x1="258.5538206912" y1="98.1409200177" x2="378.8234836126" y2="354.8600211412" xlink:href="#linear-gradient"/>
    <linearGradient id="linear-gradient-18" x1="226.4533441396" y1="113.1795886542" x2="346.723007061" y2="369.8986897778" xlink:href="#linear-gradient"/>
    <linearGradient id="linear-gradient-19" x1="203.8950822994" y1="123.7478499785" x2="324.1647452208" y2="380.4669511021" xlink:href="#linear-gradient"/>
    <linearGradient id="linear-gradient-20" x1="172.0728315969" y1="138.6561733122" x2="292.3424945181" y2="395.3752744355" xlink:href="#linear-gradient"/>
    <linearGradient id="linear-gradient-21" x1="254.1286919866" y1="100.2140370368" x2="374.398354908" y2="356.9331381604" xlink:href="#linear-gradient"/>
    <linearGradient id="linear-gradient-22" x1="222.028215435" y1="115.2527056734" x2="342.2978783564" y2="371.971806797" xlink:href="#linear-gradient"/>
    <linearGradient id="linear-gradient-23" x1="189.9277388835" y1="130.29137431" x2="310.1974018048" y2="387.0104754335" xlink:href="#linear-gradient"/>
    <linearGradient id="linear-gradient-24" x1="157.8272623319" y1="145.3300429465" x2="278.0969252533" y2="402.0491440701" xlink:href="#linear-gradient"/>
    <linearGradient id="linear-gradient-25" x1="103.4467470906" y1="170.8066288686" x2="223.7164100118" y2="427.525729992" xlink:href="#linear-gradient"/>
    <linearGradient id="linear-gradient-26" x1="135.2690004917" y1="155.8983042708" x2="255.5386634131" y2="412.6174053944" xlink:href="#linear-gradient"/>
    <linearGradient id="linear-gradient-27" x1="185.5026110463" y1="132.3644909228" x2="305.7722739676" y2="389.0835920464" xlink:href="#linear-gradient"/>
    <linearGradient id="linear-gradient-28" x1="153.4021344947" y1="147.4031595593" x2="273.671797416" y2="404.1222606829" xlink:href="#linear-gradient"/>
    <linearGradient id="linear-gradient-29" x1="121.3016579431" y1="162.4418281959" x2="241.5713208645" y2="419.1609293195" xlink:href="#linear-gradient"/>
    <linearGradient id="linear-gradient-30" x1="89.2011813915" y1="177.4804968324" x2="209.4708443129" y2="434.199597956" xlink:href="#linear-gradient"/>
    <linearGradient id="linear-gradient-31" x1="66.6429195513" y1="188.0487581567" x2="186.9125824727" y2="444.7678592803" xlink:href="#linear-gradient"/>
    <linearGradient id="linear-gradient-32" x1="34.8206661502" y1="202.9570827544" x2="155.0903290715" y2="459.6761838779" xlink:href="#linear-gradient"/>
    <linearGradient id="linear-gradient-33" x1="116.8765168768" y1="164.5149510064" x2="237.1461797982" y2="421.23405213" xlink:href="#linear-gradient"/>
    <linearGradient id="linear-gradient-34" x1="84.7760403252" y1="179.5536196429" x2="205.0457032466" y2="436.2727207665" xlink:href="#linear-gradient"/>
    <linearGradient id="linear-gradient-35" x1="52.6755637736" y1="194.5922882795" x2="172.945226695" y2="451.3113894031" xlink:href="#linear-gradient"/>
    <linearGradient id="linear-gradient-36" x1="20.5750872221" y1="209.630956916" x2="140.8447501434" y2="466.3500580396" xlink:href="#linear-gradient"/>
    <linearGradient id="linear-gradient-37" x1="-1.9831746181" y1="220.1992182403" x2="118.2864883032" y2="476.9183193639" xlink:href="#linear-gradient"/>
    <linearGradient id="linear-gradient-38" x1="-33.8054287636" y1="235.1075431866" x2="86.4642341578" y2="491.8266443103" xlink:href="#linear-gradient"/>
    <linearGradient id="linear-gradient-39" x1="105.4570600098" y1="150.1890044288" x2="296.3784083244" y2="301.7395662265" gradientUnits="userSpaceOnUse">
      <stop offset="0" stop-color="#f1ddbf"/>
      <stop offset="1" stop-color="#9e8a6e"/>
    </linearGradient>
    <linearGradient id="linear-gradient-40" x1="123.0467410778" y1="128.029762087" x2="313.9680893924" y2="279.5803238847" xlink:href="#linear-gradient-39"/>
  </defs>
  <rect class="cls-13" x=".5" y=".5" width="398.6666666667" height="373.8235881224" rx="57.3333333333" ry="57.3333333333"/>
  <g>
    <path class="cls-12" d="M376.1666666667,103.5837849215v167.4799804687c0,20.4299926758-6.5700073242,39.3200073242-17.7100219727,54.6799926758-2.9099731445,4.0200195312-6.1300048828,7.8000488281-9.6399536133,11.3000488281-2.6700439453,2.6599731445-5.4900512695,5.1699829102-8.4800415039,7.5-15.3099975586,11.9799804688-34.4599609375,19.2899780273-55.299987793,19.7599487305-.7399902344.0100097656-1.450012207.0200195312-2.1300048828.0200195312H115.4266764323c-51.5100097656,0-93.2600097656-41.75-93.2600097656-93.2600097656V103.5837849215C22.1666666667,52.0737751559,63.9166666667,10.3237751559,115.4266764323,10.3237751559h167.4799804688c51.5100097656,0,93.2600097656,41.75,93.2600097656,93.2600097656Z"/>
    <g class="cls-43">
      <g class="cls-44">
        <polygon class="cls-40" points="356.7770799794 74.6208635889 356.7770799794 79.2479975889 371.4048906099 93.8814725889 376.031050993 93.8814725889 376.308940986 93.6035825889 376.308940986 88.9774220889 373.7212895513 91.5650735889 356.7770799794 74.6208635889"/>
        <polygon class="cls-4" points="365.7252262533 29.6265785889 356.7770799794 29.6265785889 356.7770799794 32.7927545889 364.2958627894 32.7927545889 372.0171335944 40.5074765889 372.0171335944 50.4665585889 362.057963346 50.4665585889 356.7770799794 45.1811615889 356.7770799794 49.6666955889 359.2108299179 52.1024810889 356.7770799794 54.5362310889 356.7770799794 59.0192870889 362.057963346 53.7382265889 372.0171335944 53.7382265889 372.0171335944 63.6908480889 364.2958627894 71.4055700889 356.7770799794 71.4055700889 356.7770799794 74.5718345889 365.7252262533 74.5718345889 373.7212895513 66.5756825889 376.308940986 69.1612985889 376.308940986 64.7108990889 375.2888900117 63.6908480889 375.2888900117 53.7382265889 376.308940986 53.7382265889 376.308940986 50.4665585889 375.2888900117 50.4665585889 375.2888900117 40.5074765889 376.308940986 39.4874255889 376.308940986 35.0414510889 373.7212895513 37.6291025889 365.7252262533 29.6265785889"/>
        <polygon class="cls-19" points="376.308940986 15.2208760389 376.308940986 10.6013140989 376.031050993 10.3234010889 371.4048906099 10.3234010889 356.7770799794 24.9456365889 356.7770799794 29.5709120889 373.7212895513 12.6332422389 376.308940986 15.2208760389"/>
        <polygon class="cls-16" points="365.7252262533 113.1846500889 356.7770799794 113.1846500889 356.7770799794 116.3508260889 364.2958627894 116.3508260889 372.0171335944 124.0655480889 372.0171335944 134.0246300889 362.057963346 134.0246300889 356.7770799794 128.7392330889 356.7770799794 133.2247670889 359.2108299179 135.6605525889 356.7770799794 138.0943025889 356.7770799794 142.5773585889 362.057963346 137.2962980889 372.0171335944 137.2962980889 372.0171335944 147.2489195889 364.2958627894 154.9636415889 356.7770799794 154.9636415889 356.7770799794 158.1299060889 365.7252262533 158.1299060889 373.7212895513 150.1337540889 376.308940986 152.7193700889 376.308940986 148.2689705889 375.2888900117 147.2489195889 375.2888900117 137.2962980889 376.308940986 137.2962980889 376.308940986 134.0246300889 375.2888900117 134.0246300889 375.2888900117 124.0655480889 376.308940986 123.0454970889 376.308940986 118.5995225889 373.7212895513 121.1871740889 365.7252262533 113.1846500889"/>
        <polygon class="cls-21" points="356.7770799794 158.1789350889 356.7770799794 162.8060690889 371.4048906099 177.4395440889 376.031050993 177.4395440889 376.308940986 177.1616540889 376.308940986 172.5354935889 373.7212895513 175.1231450889 356.7770799794 158.1789350889"/>
        <polygon class="cls-35" points="371.4048906099 93.8814725889 356.7770799794 108.5037080889 356.7770799794 113.1289835889 373.7212895513 96.1913225889 376.308940986 98.7789740889 376.308940986 94.1593625889 376.031050993 93.8814725889 371.4048906099 93.8814725889"/>
        <polygon class="cls-31" points="371.4048906099 177.4395440889 356.7770799794 192.0617795889 356.7770799794 196.6870550889 373.7212895513 179.7493940889 376.308940986 182.3370455889 376.308940986 177.7174340889 376.031050993 177.4395440889 371.4048906099 177.4395440889"/>
        <polygon class="cls-26" points="365.7252262533 196.7427215889 356.7770799794 196.7427215889 356.7770799794 199.9088975889 364.2958627894 199.9088975889 372.0171335944 207.6236195889 372.0171335944 217.5827015889 362.057963346 217.5827015889 356.7770799794 212.2973045889 356.7770799794 216.7828385889 359.2108299179 219.2186240889 356.7770799794 221.6523740889 356.7770799794 226.1354300889 362.057963346 220.8543695889 372.0171335944 220.8543695889 372.0171335944 230.8069910889 364.2958627894 238.5217130889 356.7770799794 238.5217130889 356.7770799794 241.6879775889 365.7252262533 241.6879775889 373.7212895513 233.6918255889 376.308940986 236.2773530889 376.308940986 231.8270420889 375.2888900117 230.8069910889 375.2888900117 220.8543695889 376.308940986 220.8543695889 376.308940986 217.5827015889 375.2888900117 217.5827015889 375.2888900117 207.6236195889 376.308940986 206.6035685889 376.308940986 202.1575940889 373.7212895513 204.7452455889 365.7252262533 196.7427215889"/>
        <polygon class="cls-32" points="356.7770799794 241.7370065889 356.7770799794 246.3641405889 371.4048906099 260.9976155889 376.031050993 260.9976155889 376.308940986 260.7197255889 376.308940986 256.0935650889 373.7212895513 258.6812165889 356.7770799794 241.7370065889"/>
        <polygon class="cls-6" points="371.4048906099 260.9976155889 356.7770799794 275.6198510889 356.7770799794 280.2451265889 373.7212895513 263.3074655889 376.308940986 265.8951170889 376.308940986 261.2755055889 376.031050993 260.9976155889 371.4048906099 260.9976155889"/>
        <polygon class="cls-33" points="356.7770799794 325.2950780889 356.7770799794 329.9222120889 371.4048906099 344.5556870889 376.031050993 344.5556870889 376.308940986 344.2777085889 376.308940986 339.6516365889 373.7212895513 342.2392880889 356.7770799794 325.2950780889"/>
        <polygon class="cls-7" points="365.7252262533 280.3007930889 356.7770799794 280.3007930889 356.7770799794 283.4669690889 364.2958627894 283.4669690889 372.0171335944 291.1816910889 372.0171335944 301.1407730889 362.057963346 301.1407730889 356.7770799794 295.8553760889 356.7770799794 300.3409100889 359.2108299179 302.7766955889 356.7770799794 305.2104455889 356.7770799794 309.6935015889 362.057963346 304.4124410889 372.0171335944 304.4124410889 372.0171335944 314.3650625889 364.2958627894 322.0797845889 356.7770799794 322.0797845889 356.7770799794 325.2460490889 365.7252262533 325.2460490889 373.7212895513 317.2498970889 376.308940986 319.8354245889 376.308940986 315.3851135889 375.2888900117 314.3650625889 375.2888900117 304.4124410889 376.308940986 304.4124410889 376.308940986 301.1407730889 375.2888900117 301.1407730889 375.2888900117 291.1816910889 376.308940986 290.1616400889 376.308940986 285.7156655889 373.7212895513 288.3033170889 365.7252262533 280.3007930889"/>
        <polygon class="cls-2" points="371.4048906099 344.5556870889 356.7770799794 359.1779225889 356.7770799794 363.8031980889 373.7212895513 346.8655370889 376.308940986 349.4531000889 376.308940986 344.8335770889 376.031050993 344.5556870889 371.4048906099 344.5556870889"/>
        <polygon class="cls-27" points="356.7770799794 363.8588645889 356.7770799794 364.3234010889 366.1894087416 364.3234010889 365.7252262533 363.8588645889 356.7770799794 363.8588645889"/>
        <path class="cls-1" d="M307.0264522362,29.6265785889h-8.9907147729l-8.0026122978,8.002524-7.996063298-8.002524h-8.9481462739v3.166176h7.51878281l7.7212775338,7.714722v9.959082h-9.9590884772l-5.2809718666-5.285397v4.485534l2.4337499385,2.4357855-2.4337499385,2.43375v4.483056l5.2809718666-5.2810605h9.9590884772v9.9526215l-7.7212775338,7.714722h-7.51878281v3.1662645h8.9481462739l7.996063298-7.996152,8.0026122978,7.996152h8.9907147729l-16.9933270707,16.993239-16.9442095719-16.94421v4.627134l14.6278106305,14.633475h4.6261603831l16.9999645705-16.9998765v8.997264l7.996063298,8.0026125h29.0209192669l7.996063298-8.0026125v-8.997264l2.3655164402,2.3664015v-4.627134l-.0491174988-.049029h.0491174988v-3.1662645h-2.4337499385v-9.952533l2.4337499385-2.43375v-4.483056l-5.5623133595,5.562225v9.003813l-16.9999645706-16.999788,16.9999645706-16.9998765v8.9971755l5.5623133595,5.5669155v-4.485534l-2.4337499385-2.4357855v-9.9526215h2.4337499385v-3.166176h-.0556664986l.0556664986-.0556665v-4.6252755l-2.3655164402,2.364543v-8.990715l-7.996063298-7.9960635h-29.0209192669l-7.996063298,7.9960635v9.003813l-16.9999645705-16.9998765h-4.6261603831l-14.6278106305,14.6222355v4.6252755l16.9442095719-16.93766985,16.9933270707,16.99333635ZM309.2679801796,71.4055700889h-9.9526142422l-7.7146403115-7.714722v-9.9526215h9.9525327486l7.7147218051,7.7148105v9.952533ZM330.1452259374,92.2455500889h-9.9591780336l-7.7146333051-7.7211825v-9.952533h9.9525327486l7.7212785901,7.7146335v9.959082ZM351.0842291232,84.5243675889l-7.7147218051,7.7211825h-9.9525327486v-9.959082l7.7146413678-7.7146335h9.9526131858v9.952533ZM348.8427011798,71.4055700889h-8.9907147729l-8.0026122978,8.0026125-7.996063298-8.0026125h-9.0038127726l16.9998760706-16.9933275,16.9933270707,16.9933275ZM333.4169745695,11.9592262389h9.9525327486l7.7147218051,7.71473085v9.9526215h-9.9526131858l-7.7146413678-7.7148105v-9.95254185ZM339.851986407,32.7927545889h8.9907147729l-16.9933270707,16.9933275-16.9933270707-16.9933275h8.9972637727l7.996063298-7.996152,8.0026122978,7.996152ZM312.4714145986,19.6739570889l7.7146333051-7.71473085h9.9591780336v9.95254185l-7.7212785901,7.7148105h-9.9525327486v-9.9526215ZM312.5396480969,44.0997800889v-8.9971755l16.9933270707,16.9998765-16.9933270707,16.98669v-8.990715l-7.996063298-7.995975,7.996063298-8.002701ZM309.2679801796,42.7453760889l-7.7147218051,7.7211825h-9.9525327486v-9.959082l7.7146403115-7.714722h9.9526142422v9.9526215Z"/>
        <path class="cls-39" d="M307.0264522362,113.1846500889h-8.9907147729l-8.0026122978,8.002524-7.996063298-8.002524h-8.9481462739v3.166176h7.51878281l7.7212775338,7.714722v9.959082h-9.9590884772l-5.2809718666-5.285397v4.485534l2.4337499385,2.4357855-2.4337499385,2.43375v4.483056l5.2809718666-5.2810605h9.9590884772v9.9526215l-7.7212775338,7.714722h-7.51878281v3.1662645h8.9481462739l7.996063298-7.996152,8.0026122978,7.996152h8.9907147729l-16.9933270707,16.993239-16.9442095719-16.94421v4.627134l14.6278106305,14.633475h4.6261603831l16.9999645705-16.9998765v8.9971755l7.996063298,8.002701h29.0209192669l7.996063298-8.002701v-8.9971755l2.3655164402,2.3664015v-4.627134l-.0491174988-.049029h.0491174988v-3.1662645h-2.4337499385v-9.952533l2.4337499385-2.43375v-4.483056l-5.5623133595,5.562225v9.003813l-16.9999645706-16.999788,16.9999645706-16.9998765v8.9971755l5.5623133595,5.5669155v-4.485534l-2.4337499385-2.4357855v-9.9526215h2.4337499385v-3.166176h-.0556664986l.0556664986-.0556665v-4.6252755l-2.3655164402,2.364543v-8.990715l-7.996063298-7.9960635h-29.0209192669l-7.996063298,7.9960635v9.003813l-16.9999645705-16.9998765h-4.6261603831l-14.6278106305,14.6222355v4.6252755l16.9442095719-16.937661,16.9933270707,16.9933275ZM309.2679801796,154.9636415889h-9.9526142422l-7.7146403115-7.714722v-9.9526215h9.9525327486l7.7147218051,7.7148105v9.952533ZM330.1452259374,175.8036215889h-9.9591780336l-7.7146333051-7.7211825v-9.952533h9.9525327486l7.7212785901,7.7146335v9.959082ZM351.0842291232,168.0824390889l-7.7147218051,7.7211825h-9.9525327486v-9.959082l7.7146413678-7.7146335h9.9526131858v9.952533ZM348.8427011798,154.9636415889h-8.9907147729l-8.0026122978,8.0026125-7.996063298-8.0026125h-9.0038127726l16.9998760706-16.9933275,16.9933270707,16.9933275ZM333.4169745695,95.5173065889h9.9525327486l7.7147218051,7.714722v9.9526215h-9.9526131858l-7.7146413678-7.7148105v-9.952533ZM339.851986407,116.3508260889h8.9907147729l-16.9933270707,16.9933275-16.9933270707-16.9933275h8.9972637727l7.996063298-7.996152,8.0026122978,7.996152ZM312.4714145986,103.2320285889l7.7146333051-7.714722h9.9591780336v9.952533l-7.7212785901,7.7148105h-9.9525327486v-9.9526215ZM312.5396480969,127.6578515889v-8.9971755l16.9933270707,16.9998765-16.9933270707,16.98669v-8.990715l-7.996063298-7.995975,7.996063298-8.002701ZM309.2679801796,126.3034475889l-7.7147218051,7.7211825h-9.9525327486v-9.959082l7.7146403115-7.714722h9.9526142422v9.9526215Z"/>
        <path class="cls-30" d="M307.0264522362,196.7427215889h-8.9907147729l-8.0026122978,8.002524-7.996063298-8.002524h-8.9481462739v3.166176h7.51878281l7.7212775338,7.714722v9.959082h-9.9590884772l-5.2809718666-5.285397v4.485534l2.4337499385,2.4357855-2.4337499385,2.43375v4.483056l5.2809718666-5.2810605h9.9590884772v9.9526215l-7.7212775338,7.714722h-7.51878281v3.1662645h8.9481462739l7.996063298-7.996152,8.0026122978,7.996152h8.9907147729l-16.9933270707,16.993239-16.9442095719-16.94421v4.627134l14.6278106305,14.633475h4.6261603831l16.9999645705-16.9998765v8.9971755l7.996063298,8.002701h29.0209192669l7.996063298-8.002701v-8.9971755l2.3655164402,2.3664015v-4.627134l-.0491174988-.049029h.0491174988v-3.1662645h-2.4337499385v-9.952533l2.4337499385-2.43375v-4.483056l-5.5623133595,5.562225v9.003813l-16.9999645706-16.999788,16.9999645706-16.9998765v8.9971755l5.5623133595,5.5669155v-4.485534l-2.4337499385-2.4357855v-9.9526215h2.4337499385v-3.166176h-.0556664986l.0556664986-.0556665v-4.6252755l-2.3655164402,2.364543v-8.990715l-7.996063298-7.9960635h-29.0209192669l-7.996063298,7.9960635v9.003813l-16.9999645705-16.9998765h-4.6261603831l-14.6278106305,14.6222355v4.6252755l16.9442095719-16.937661,16.9933270707,16.9933275ZM309.2679801796,238.5217130889h-9.9526142422l-7.7146403115-7.714722v-9.9526215h9.9525327486l7.7147218051,7.7148105v9.952533ZM330.1452259374,259.3616930889h-9.9591780336l-7.7146333051-7.7211825v-9.952533h9.9525327486l7.7212785901,7.7146335v9.959082ZM351.0842291232,251.6405105889l-7.7147218051,7.7211825h-9.9525327486v-9.959082l7.7146413678-7.7146335h9.9526131858v9.952533ZM348.8427011798,238.5217130889h-8.9907147729l-8.0026122978,8.0026125-7.996063298-8.0026125h-9.0038127726l16.9998760706-16.9933275,16.9933270707,16.9933275ZM333.4169745695,179.0753780889h9.9525327486l7.7147218051,7.714722v9.9526215h-9.9526131858l-7.7146413678-7.7148105v-9.952533ZM339.851986407,199.9088975889h8.9907147729l-16.9933270707,16.9933275-16.9933270707-16.9933275h8.9972637727l7.996063298-7.996152,8.0026122978,7.996152ZM312.4714145986,186.7901000889l7.7146333051-7.714722h9.9591780336v9.952533l-7.7212785901,7.7148105h-9.9525327486v-9.9526215ZM312.5396480969,211.2159230889v-8.9971755l16.9933270707,16.9998765-16.9933270707,16.98669v-8.990715l-7.996063298-7.995975,7.996063298-8.002701ZM309.2679801796,209.8615190889l-7.7147218051,7.7211825h-9.9525327486v-9.959082l7.7146403115-7.714722h9.9526142422v9.9526215Z"/>
        <path class="cls-45" d="M356.7214134808,280.2451265889v-4.6252755l-2.3655164402,2.364543v-8.990715l-7.996063298-7.9960635h-29.0209192669l-7.996063298,7.9960635v9.003813l-16.9999645705-16.9998765h-4.6261603831l-14.6278106305,14.6222355v4.6252755l16.9442095719-16.937661,16.9933270707,16.9933275h-8.9907147729l-8.0026122978,8.002524-7.996063298-8.002524h-8.9481462739v3.166176h7.51878281l7.7212775338,7.714722v9.959082h-9.9590884772l-5.2809718666-5.285397v4.485534l2.4337499385,2.4357855-2.4337499385,2.43375v4.483056l5.2809718666-5.2810605h9.9590884772v9.9526215l-7.7212775338,7.714722h-7.51878281v3.1662645h8.9481462739l7.996063298-7.996152,8.0026122978,7.996152h8.9907147729l-16.9933270707,16.993239-16.9442095719-16.94421v4.627134l14.6278106305,14.633475h4.6261603831l16.9999645705-16.9998765v8.9971755l7.996063298,8.002701h29.0209192669l7.996063298-8.002701v-8.9971755l2.3655164402,2.3664015v-4.627134l-.0491174988-.049029h.0491174988v-3.1662645h-2.4337499385v-9.952533l2.4337499385-2.43375v-4.483056l-5.5623133595,5.562225v9.003813l-16.9999645706-16.999788,16.9999645706-16.9998765v8.9971755l5.5623133595,5.5669155v-4.485534l-2.4337499385-2.4357855v-9.9526215h2.4337499385v-3.166176h-.0556664986l.0556664986-.0556665ZM312.4714145986,270.3481715889l7.7146333051-7.714722h9.9591780336v9.952533l-7.7212785901,7.7148105h-9.9525327486v-9.9526215ZM291.6007256259,291.1816910889l7.7146403115-7.714722h9.9526142422v9.9526215l-7.7147218051,7.7211825h-9.9525327486v-9.959082ZM309.2679801796,322.0797845889h-9.9526142422l-7.7146403115-7.714722v-9.9526215h9.9525327486l7.7147218051,7.7148105v9.952533ZM304.5435847989,302.7766955889l7.996063298-8.002701v-8.9971755l16.9933270707,16.9998765-16.9933270707,16.98669v-8.990715l-7.996063298-7.995975ZM330.1452259374,342.9197645889h-9.9591780336l-7.7146333051-7.7211825v-9.952533h9.9525327486l7.7212785901,7.7146335v9.959082ZM351.0842291232,335.1985820889l-7.7147218051,7.7211825h-9.9525327486v-9.959082l7.7146413678-7.7146335h9.9526131858v9.952533ZM348.8427011798,322.0797845889h-8.9907147729l-8.0026122978,8.0026125-7.996063298-8.0026125h-9.0038127726l16.9998760706-16.9933275,16.9933270707,16.9933275ZM331.8493741091,300.4602965889l-16.9933270707-16.9933275h8.9972637727l7.996063298-7.996152,8.0026122978,7.996152h8.9907147729l-16.9933270707,16.9933275ZM351.0842291232,280.3007930889h-9.9526131858l-7.7146413678-7.7148105v-9.952533h9.9525327486l7.7147218051,7.714722v9.9526215Z"/>
        <path class="cls-34" d="M356.7214134808,363.8031980889v-4.6252755l-2.3655164402,2.364543v-8.990715l-7.996063298-7.9960635h-29.0209192669l-7.996063298,7.9960635v9.003813l-16.9999645705-16.9998765h-4.6261603831l-14.6278106305,14.6222355v4.6252755l16.9442095719-16.937661,16.9933270707,16.9933275h-8.9907147729l-.4645364883.4645365h28.9836607678l5.2945123663-5.2945125,5.2987603661,5.2945125h19.5732790055v-.4645365h-.0556664986l.0556664986-.0556665ZM330.1452259374,356.1440540889l-7.7212785901,7.7148105h-9.9525327486v-9.9526215l7.7146333051-7.714722h9.9591780336v9.952533ZM351.0842291232,363.8588645889h-9.9526131858l-7.7146413678-7.7148105v-9.952533h9.9525327486l7.7147218051,7.714722v9.9526215Z"/>
        <polygon class="cls-29" points="273.0889155935 363.8588645889 273.0889155935 364.3234010889 282.5012509374 364.3234010889 282.0370618675 363.8588645889 273.0889155935 363.8588645889"/>
        <path class="cls-37" d="M223.3382878503,29.6265785889h-8.9907147729l-8.0026122978,8.002524-7.996063298-8.002524h-8.9481462739v3.166176h7.5187828101l7.7212708049,7.714722v9.959082h-9.9591702484l-5.2808833666-5.285397v4.485534l2.4337499385,2.4357855-2.4337499385,2.43375v4.483056l5.2808833666-5.2810605h9.9591702484v9.9526215l-7.7212708049,7.714722h-7.5187828101v3.1662645h8.9481462739l7.996063298-7.996152,8.0026122978,7.996152h8.9907147729l-16.9933270707,16.993239-16.9442095719-16.94421v4.627134l14.6278106305,14.633475h4.6261603831l16.9999645706-16.9998765v8.997264l7.996063298,8.0026125h29.0209192669l7.996063298-8.0026125v-8.997264l2.3655164402,2.3664015v-4.627134l-.0491174988-.049029h.0491174988v-3.1662645h-2.4337499385v-9.952533l2.4337499385-2.43375v-4.483056l-5.5623133595,5.562225v9.003813l-16.9999645706-16.999788,16.9999645706-16.9998765v8.9971755l5.5623133595,5.5669155v-4.485534l-2.4337499385-2.4357855v-9.9526215h2.4337499385v-3.166176h-.0556664986l.0556664986-.0556665v-4.6252755l-2.3655164402,2.364543v-8.990715l-7.996063298-7.9960635h-29.0209192669l-7.996063298,7.9960635v9.003813l-16.9999645706-16.9998765h-4.6261603831l-14.6278106305,14.6222355v4.6252755l16.9442095719-16.93766985,16.9933270707,16.99333635ZM225.5798209374,71.4055700889h-9.9526263922l-7.7146286078-7.714722v-9.9526215h9.9525280512l7.7147269488,7.7148105v9.952533ZM246.4570537663,92.2455500889h-9.9591702484l-7.7146333051-7.7211825v-9.952533h9.9525327486l7.7212708049,7.7146335v9.959082ZM267.3960709374,84.5243675889l-7.7147280051,7.7211825h-9.9525269949v-9.959082l7.7146275514-7.7146335h9.9526274486v9.952533ZM265.154536794,71.4055700889h-8.9907147729l-8.0026122978,8.0026125-7.996063298-8.0026125h-9.0038127725l16.9998760705-16.9933275,16.9933270707,16.9933275ZM249.7288159374,11.9592262389h9.9525269949l7.7147280051,7.71473085v9.9526215h-9.9526274486l-7.7146275514-7.7148105v-9.95254185ZM256.1638220211,32.7927545889h8.9907147729l-16.9933270707,16.9933275-16.9933270707-16.9933275h8.9972637727l7.996063298-7.996152,8.0026122978,7.996152ZM228.7832502128,19.6739570889l7.7146333051-7.71473085h9.9591702484v9.95254185l-7.7212708049,7.7148105h-9.9525327486v-9.9526215ZM228.8514837111,44.0997800889v-8.9971755l16.9933270707,16.9998765-16.9933270707,16.98669v-8.990715l-7.996063298-7.995975,7.996063298-8.002701ZM225.5798209374,42.7453760889l-7.7147269488,7.7211825h-9.9525280512v-9.959082l7.7146286078-7.714722h9.9526263922v9.9526215Z"/>
        <path class="cls-23" d="M223.3382878503,113.1846500889h-8.9907147729l-8.0026122978,8.002524-7.996063298-8.002524h-8.9481462739v3.166176h7.5187828101l7.7212708049,7.714722v9.959082h-9.9591702484l-5.2808833666-5.285397v4.485534l2.4337499385,2.4357855-2.4337499385,2.43375v4.483056l5.2808833666-5.2810605h9.9591702484v9.9526215l-7.7212708049,7.714722h-7.5187828101v3.1662645h8.9481462739l7.996063298-7.996152,8.0026122978,7.996152h8.9907147729l-16.9933270707,16.993239-16.9442095719-16.94421v4.627134l14.6278106305,14.633475h4.6261603831l16.9999645706-16.9998765v8.9971755l7.996063298,8.002701h29.0209192669l7.996063298-8.002701v-8.9971755l2.3655164402,2.3664015v-4.627134l-.0491174988-.049029h.0491174988v-3.1662645h-2.4337499385v-9.952533l2.4337499385-2.43375v-4.483056l-5.5623133595,5.562225v9.003813l-16.9999645706-16.999788,16.9999645706-16.9998765v8.9971755l5.5623133595,5.5669155v-4.485534l-2.4337499385-2.4357855v-9.9526215h2.4337499385v-3.166176h-.0556664986l.0556664986-.0556665v-4.6252755l-2.3655164402,2.364543v-8.990715l-7.996063298-7.9960635h-29.0209192669l-7.996063298,7.9960635v9.003813l-16.9999645706-16.9998765h-4.6261603831l-14.6278106305,14.6222355v4.6252755l16.9442095719-16.937661,16.9933270707,16.9933275ZM225.5798209374,154.9636415889h-9.9526263922l-7.7146286078-7.714722v-9.9526215h9.9525280512l7.7147269488,7.7148105v9.952533ZM246.4570537663,175.8036215889h-9.9591702484l-7.7146333051-7.7211825v-9.952533h9.9525327486l7.7212708049,7.7146335v9.959082ZM267.3960709374,168.0824390889l-7.7147280051,7.7211825h-9.9525269949v-9.959082l7.7146275514-7.7146335h9.9526274486v9.952533ZM265.154536794,154.9636415889h-8.9907147729l-8.0026122978,8.0026125-7.996063298-8.0026125h-9.0038127725l16.9998760705-16.9933275,16.9933270707,16.9933275ZM249.7288159374,95.5173065889h9.9525269949l7.7147280051,7.714722v9.9526215h-9.9526274486l-7.7146275514-7.7148105v-9.952533ZM256.1638220211,116.3508260889h8.9907147729l-16.9933270707,16.9933275-16.9933270707-16.9933275h8.9972637727l7.996063298-7.996152,8.0026122978,7.996152ZM228.7832502128,103.2320285889l7.7146333051-7.714722h9.9591702484v9.952533l-7.7212708049,7.7148105h-9.9525327486v-9.9526215ZM228.8514837111,127.6578515889v-8.9971755l16.9933270707,16.9998765-16.9933270707,16.98669v-8.990715l-7.996063298-7.995975,7.996063298-8.002701ZM225.5798209374,126.3034475889l-7.7147269488,7.7211825h-9.9525280512v-9.959082l7.7146286078-7.714722h9.9526263922v9.9526215Z"/>
        <path class="cls-41" d="M223.3382878503,196.7427215889h-8.9907147729l-8.0026122978,8.002524-7.996063298-8.002524h-8.9481462739v3.166176h7.5187828101l7.7212708049,7.714722v9.959082h-9.9591702484l-5.2808833666-5.285397v4.485534l2.4337499385,2.4357855-2.4337499385,2.43375v4.483056l5.2808833666-5.2810605h9.9591702484v9.9526215l-7.7212708049,7.714722h-7.5187828101v3.1662645h8.9481462739l7.996063298-7.996152,8.0026122978,7.996152h8.9907147729l-16.9933270707,16.993239-16.9442095719-16.94421v4.627134l14.6278106305,14.633475h4.6261603831l16.9999645706-16.9998765v8.9971755l7.996063298,8.002701h29.0209192669l7.996063298-8.002701v-8.9971755l2.3655164402,2.3664015v-4.627134l-.0491174988-.049029h.0491174988v-3.1662645h-2.4337499385v-9.952533l2.4337499385-2.43375v-4.483056l-5.5623133595,5.562225v9.003813l-16.9999645706-16.999788,16.9999645706-16.9998765v8.9971755l5.5623133595,5.5669155v-4.485534l-2.4337499385-2.4357855v-9.9526215h2.4337499385v-3.166176h-.0556664986l.0556664986-.0556665v-4.6252755l-2.3655164402,2.364543v-8.990715l-7.996063298-7.9960635h-29.0209192669l-7.996063298,7.9960635v9.003813l-16.9999645706-16.9998765h-4.6261603831l-14.6278106305,14.6222355v4.6252755l16.9442095719-16.937661,16.9933270707,16.9933275ZM225.5798209374,238.5217130889h-9.9526263922l-7.7146286078-7.714722v-9.9526215h9.9525280512l7.7147269488,7.7148105v9.952533ZM246.4570537663,259.3616930889h-9.9591702484l-7.7146333051-7.7211825v-9.952533h9.9525327486l7.7212708049,7.7146335v9.959082ZM267.3960709374,251.6405105889l-7.7147280051,7.7211825h-9.9525269949v-9.959082l7.7146275514-7.7146335h9.9526274486v9.952533ZM265.154536794,238.5217130889h-8.9907147729l-8.0026122978,8.0026125-7.996063298-8.0026125h-9.0038127725l16.9998760705-16.9933275,16.9933270707,16.9933275ZM249.7288159374,179.0753780889h9.9525269949l7.7147280051,7.714722v9.9526215h-9.9526274486l-7.7146275514-7.7148105v-9.952533ZM256.1638220211,199.9088975889h8.9907147729l-16.9933270707,16.9933275-16.9933270707-16.9933275h8.9972637727l7.996063298-7.996152,8.0026122978,7.996152ZM228.7832502128,186.7901000889l7.7146333051-7.714722h9.9591702484v9.952533l-7.7212708049,7.7148105h-9.9525327486v-9.9526215ZM228.8514837111,211.2159230889v-8.9971755l16.9933270707,16.9998765-16.9933270707,16.98669v-8.990715l-7.996063298-7.995975,7.996063298-8.002701ZM225.5798209374,209.8615190889l-7.7147269488,7.7211825h-9.9525280512v-9.959082l7.7146286078-7.714722h9.9526263922v9.9526215Z"/>
        <path class="cls-24" d="M273.0332490949,280.2451265889v-4.6252755l-2.3655164402,2.364543v-8.990715l-7.996063298-7.9960635h-29.0209192669l-7.996063298,7.9960635v9.003813l-16.9999645706-16.9998765h-4.6261603831l-14.6278106305,14.6222355v4.6252755l16.9442095719-16.937661,16.9933270707,16.9933275h-8.9907147729l-8.0026122978,8.002524-7.996063298-8.002524h-8.9481462739v3.166176h7.5187828101l7.7212708049,7.714722v9.959082h-9.9591702484l-5.2808833666-5.285397v4.485534l2.4337499385,2.4357855-2.4337499385,2.43375v4.483056l5.2808833666-5.2810605h9.9591702484v9.9526215l-7.7212708049,7.714722h-7.5187828101v3.1662645h8.9481462739l7.996063298-7.996152,8.0026122978,7.996152h8.9907147729l-16.9933270707,16.993239-16.9442095719-16.94421v4.627134l14.6278106305,14.633475h4.6261603831l16.9999645706-16.9998765v8.9971755l7.996063298,8.002701h29.0209192669l7.996063298-8.002701v-8.9971755l2.3655164402,2.3664015v-4.627134l-.0491174988-.049029h.0491174988v-3.1662645h-2.4337499385v-9.952533l2.4337499385-2.43375v-4.483056l-5.5623133595,5.562225v9.003813l-16.9999645706-16.999788,16.9999645706-16.9998765v8.9971755l5.5623133595,5.5669155v-4.485534l-2.4337499385-2.4357855v-9.9526215h2.4337499385v-3.166176h-.0556664986l.0556664986-.0556665ZM228.7832502128,270.3481715889l7.7146333051-7.714722h9.9591702484v9.952533l-7.7212708049,7.7148105h-9.9525327486v-9.9526215ZM207.9125659374,291.1816910889l7.7146286078-7.714722h9.9526263922v9.9526215l-7.7147269488,7.7211825h-9.9525280512v-9.959082ZM225.5798209374,322.0797845889h-9.9526263922l-7.7146286078-7.714722v-9.9526215h9.9525280512l7.7147269488,7.7148105v9.952533ZM220.8554204131,302.7766955889l7.996063298-8.002701v-8.9971755l16.9933270707,16.9998765-16.9933270707,16.98669v-8.990715l-7.996063298-7.995975ZM246.4570537663,342.9197645889h-9.9591702484l-7.7146333051-7.7211825v-9.952533h9.9525327486l7.7212708049,7.7146335v9.959082ZM267.3960709374,335.1985820889l-7.7147280051,7.7211825h-9.9525269949v-9.959082l7.7146275514-7.7146335h9.9526274486v9.952533ZM265.154536794,322.0797845889h-8.9907147729l-8.0026122978,8.0026125-7.996063298-8.0026125h-9.0038127725l16.9998760705-16.9933275,16.9933270707,16.9933275ZM248.1612097233,300.4602965889l-16.9933270707-16.9933275h8.9972637727l7.996063298-7.996152,8.0026122978,7.996152h8.9907147729l-16.9933270707,16.9933275ZM267.3960709374,280.3007930889h-9.9526274486l-7.7146275514-7.7148105v-9.952533h9.9525269949l7.7147280051,7.714722v9.9526215Z"/>
        <polygon class="cls-5" points="189.4007512077 363.8588645889 189.4007512077 364.3234010889 198.8130799699 364.3234010889 198.3488974816 363.8588645889 189.4007512077 363.8588645889"/>
        <path class="cls-14" d="M273.0332490949,363.8031980889v-4.6252755l-2.3655164402,2.364543v-8.990715l-7.996063298-7.9960635h-29.0209192669l-7.996063298,7.9960635v9.003813l-16.9999645706-16.9998765h-4.6261603831l-14.6278106305,14.6222355v4.6252755l16.9442095719-16.937661,16.9933270707,16.9933275h-8.9907147729l-.4645364883.4645365h28.9836607678l5.2945123663-5.2945125,5.2988488661,5.2945125h19.5731905055v-.4645365h-.0556664986l.0556664986-.0556665ZM246.4570537663,356.1440540889l-7.7212708049,7.7148105h-9.9525327486v-9.9526215l7.7146333051-7.714722h9.9591702484v9.952533ZM267.3960709374,363.8588645889h-9.9526274486l-7.7146275514-7.7148105v-9.952533h9.9525269949l7.7147280051,7.714722v9.9526215Z"/>
        <path class="cls-9" d="M139.6501234645,29.6265785889h-8.9907147729l-8.0026122978,8.002524-7.996063298-8.002524h-8.9481441584v3.166176h7.5187806945l7.7212708049,7.714722v9.959082h-9.9590794995l-5.280972-5.285397v4.485534l2.43375,2.4357855-2.43375,2.43375v4.483056l5.280972-5.2810605h9.9590794995v9.9526215l-7.7212708049,7.714722h-7.5187806945v3.1662645h8.9481441584l7.996063298-7.996152,8.0026122978,7.996152h8.9907147729l-16.9933270707,16.993239-16.9442074564-16.94421v4.627134l14.6278085149,14.633475h4.6261603831l16.9999645706-16.9998765v8.997264l7.996063298,8.0026125h29.0209192669l7.996063298-8.0026125v-8.997264l2.3655164402,2.3664015v-4.627134l-.0491174988-.049029h.0491174988v-3.1662645h-2.4337499385v-9.952533l2.4337499385-2.43375v-4.483056l-5.5623133595,5.562225v9.003813l-16.9999645705-16.999788,16.9999645705-16.9998765v8.9971755l5.5623133595,5.5669155v-4.485534l-2.4337499385-2.4357855v-9.9526215h2.4337499385v-3.166176h-.0556664986l.0556664986-.0556665v-4.6252755l-2.3655164402,2.364543v-8.990715l-7.996063298-7.9960635h-29.0209192669l-7.996063298,7.9960635v9.003813l-16.9999645706-16.9998765h-4.6261603831l-14.6278085149,14.6222355v4.6252755l16.9442074564-16.93766985,16.9933270707,16.99333635ZM141.8916514079,71.4055700889h-9.9526212486l-7.7146333051-7.714722v-9.9526215h9.9525327486l7.7147218051,7.7148105v9.952533ZM162.7688893804,92.2455500889h-9.9591702484l-7.7146333051-7.7211825v-9.952533h9.9525327486l7.7212708049,7.7146335v9.959082ZM183.7079003515,84.5243675889l-7.7147218051,7.7211825h-9.9525327486v-9.959082l7.7146333051-7.7146335h9.9526212486v9.952533ZM181.4663724081,71.4055700889h-8.9907147729l-8.0026122978,8.0026125-7.996063298-8.0026125h-9.0038127725l16.9998760705-16.9933275,16.9933270707,16.9933275ZM166.0406457978,11.9592262389h9.9525327486l7.7147218051,7.71473085v9.9526215h-9.9526212486l-7.7146333051-7.7148105v-9.95254185ZM172.4756576352,32.7927545889h8.9907147729l-16.9933270707,16.9933275-16.9933270707-16.9933275h8.9972637727l7.996063298-7.996152,8.0026122978,7.996152ZM145.0950858269,19.6739570889l7.7146333051-7.71473085h9.9591702484v9.95254185l-7.7212708049,7.7148105h-9.9525327486v-9.9526215ZM145.1633193252,44.0997800889v-8.9971755l16.9933270707,16.9998765-16.9933270707,16.98669v-8.990715l-7.996063298-7.995975,7.996063298-8.002701ZM141.8916514079,42.7453760889l-7.7147218051,7.7211825h-9.9525327486v-9.959082l7.7146333051-7.714722h9.9526212486v9.9526215Z"/>
        <path class="cls-3" d="M139.6501234645,113.1846500889h-8.9907147729l-8.0026122978,8.002524-7.996063298-8.002524h-8.9481441584v3.166176h7.5187806945l7.7212708049,7.714722v9.959082h-9.9590794995l-5.280972-5.285397v4.485534l2.43375,2.4357855-2.43375,2.43375v4.483056l5.280972-5.2810605h9.9590794995v9.9526215l-7.7212708049,7.714722h-7.5187806945v3.1662645h8.9481441584l7.996063298-7.996152,8.0026122978,7.996152h8.9907147729l-16.9933270707,16.993239-16.9442074564-16.94421v4.627134l14.6278085149,14.633475h4.6261603831l16.9999645706-16.9998765v8.9971755l7.996063298,8.002701h29.0209192669l7.996063298-8.002701v-8.9971755l2.3655164402,2.3664015v-4.627134l-.0491174988-.049029h.0491174988v-3.1662645h-2.4337499385v-9.952533l2.4337499385-2.43375v-4.483056l-5.5623133595,5.562225v9.003813l-16.9999645705-16.999788,16.9999645705-16.9998765v8.9971755l5.5623133595,5.5669155v-4.485534l-2.4337499385-2.4357855v-9.9526215h2.4337499385v-3.166176h-.0556664986l.0556664986-.0556665v-4.6252755l-2.3655164402,2.364543v-8.990715l-7.996063298-7.9960635h-29.0209192669l-7.996063298,7.9960635v9.003813l-16.9999645706-16.9998765h-4.6261603831l-14.6278085149,14.6222355v4.6252755l16.9442074564-16.937661,16.9933270707,16.9933275ZM141.8916514079,154.9636415889h-9.9526212486l-7.7146333051-7.714722v-9.9526215h9.9525327486l7.7147218051,7.7148105v9.952533ZM162.7688893804,175.8036215889h-9.9591702484l-7.7146333051-7.7211825v-9.952533h9.9525327486l7.7212708049,7.7146335v9.959082ZM183.7079003515,168.0824390889l-7.7147218051,7.7211825h-9.9525327486v-9.959082l7.7146333051-7.7146335h9.9526212486v9.952533ZM181.4663724081,154.9636415889h-8.9907147729l-8.0026122978,8.0026125-7.996063298-8.0026125h-9.0038127725l16.9998760705-16.9933275,16.9933270707,16.9933275ZM166.0406457978,95.5173065889h9.9525327486l7.7147218051,7.714722v9.9526215h-9.9526212486l-7.7146333051-7.7148105v-9.952533ZM172.4756576352,116.3508260889h8.9907147729l-16.9933270707,16.9933275-16.9933270707-16.9933275h8.9972637727l7.996063298-7.996152,8.0026122978,7.996152ZM145.0950858269,103.2320285889l7.7146333051-7.714722h9.9591702484v9.952533l-7.7212708049,7.7148105h-9.9525327486v-9.9526215ZM145.1633193252,127.6578515889v-8.9971755l16.9933270707,16.9998765-16.9933270707,16.98669v-8.990715l-7.996063298-7.995975,7.996063298-8.002701ZM141.8916514079,126.3034475889l-7.7147218051,7.7211825h-9.9525327486v-9.959082l7.7146333051-7.714722h9.9526212486v9.9526215Z"/>
        <path class="cls-28" d="M124.9665578354,260.9976155889l16.9999645706-16.9998765v8.9971755l7.996063298,8.002701h29.0209192669l7.996063298-8.002701v-8.9971755l2.3655164402,2.3664015v-4.627134l-.0491174988-.049029h.0491174988v-3.1662645h-2.4337499385v-9.952533l2.4337499385-2.43375v-4.483056l-5.5623133595,5.562225v9.003813l-16.9999645705-16.999788,16.9999645705-16.9998765v8.9971755l5.5623133595,5.5669155v-4.485534l-2.4337499385-2.4357855v-9.9526215h2.4337499385v-3.166176h-.0556664986l.0556664986-.0556665v-4.6252755l-2.3655164402,2.364543v-8.990715l-7.996063298-7.9960635h-29.0209192669l-7.996063298,7.9960635v9.003813l-16.9999645706-16.9998765h-4.6261603831l-14.6278085149,14.6222355v4.6252755l16.9442074564-16.937661,16.9933270707,16.9933275h-8.9907147729l-8.0026122978,8.002524-7.996063298-8.002524h-8.9481441584v3.166176h7.5187806945l7.7212708049,7.714722v9.959082h-9.9590794995l-5.280972-5.285397v4.485534l2.43375,2.4357855-2.43375,2.43375v4.483056l5.280972-5.2810605h9.9590794995v9.9526215l-7.7212708049,7.714722h-7.5187806945v3.1662645h8.9481441584l7.996063298-7.996152,8.0026122978,7.996152h8.9907147729l-16.9933270707,16.993239-16.9442074564-16.94421v4.627134l14.6278085149,14.633475h4.6261603831ZM162.7688893804,259.3616930889h-9.9591702484l-7.7146333051-7.7211825v-9.952533h9.9525327486l7.7212708049,7.7146335v9.959082ZM183.7079003515,251.6405105889l-7.7147218051,7.7211825h-9.9525327486v-9.959082l7.7146333051-7.7146335h9.9526212486v9.952533ZM181.4663724081,238.5217130889h-8.9907147729l-8.0026122978,8.0026125-7.996063298-8.0026125h-9.0038127725l16.9998760705-16.9933275,16.9933270707,16.9933275ZM166.0406457978,179.0753780889h9.9525327486l7.7147218051,7.714722v9.9526215h-9.9526212486l-7.7146333051-7.7148105v-9.952533ZM172.4756576352,199.9088975889h8.9907147729l-16.9933270707,16.9933275-16.9933270707-16.9933275h8.9972637727l7.996063298-7.996152,8.0026122978,7.996152ZM145.0950858269,186.7901000889l7.7146333051-7.714722h9.9591702484v9.952533l-7.7212708049,7.7148105h-9.9525327486v-9.9526215ZM145.1633193252,211.2159230889v-8.9971755l16.9933270707,16.9998765-16.9933270707,16.98669v-8.990715l-7.996063298-7.995975,7.996063298-8.002701ZM124.2243968542,207.6236195889l7.7146333051-7.714722h9.9526212486v9.9526215l-7.7147218051,7.7211825h-9.9525327486v-9.959082ZM131.9390301593,238.5217130889l-7.7146333051-7.714722v-9.9526215h9.9525327486l7.7147218051,7.7148105v9.952533h-9.9526212486Z"/>
        <path class="cls-18" d="M189.3450847091,280.2451265889v-4.6252755l-2.3655164402,2.364543v-8.990715l-7.996063298-7.9960635h-29.0209192669l-7.996063298,7.9960635v9.003813l-16.9999645706-16.9998765h-4.6261603831l-14.6278085149,14.6222355v4.6252755l16.9442074564-16.937661,16.9933270707,16.9933275h-8.9907147729l-8.0026122978,8.002524-7.996063298-8.002524h-8.9481441584v3.166176h7.5187806945l7.7212708049,7.714722v9.959082h-9.9590794995l-5.280972-5.285397v4.485534l2.43375,2.4357855-2.43375,2.43375v4.483056l5.280972-5.2810605h9.9590794995v9.9526215l-7.7212708049,7.714722h-7.5187806945v3.1662645h8.9481441584l7.996063298-7.996152,8.0026122978,7.996152h8.9907147729l-16.9933270707,16.993239-16.9442074564-16.94421v4.627134l14.6278085149,14.633475h4.6261603831l16.9999645706-16.9998765v8.9971755l7.996063298,8.002701h29.0209192669l7.996063298-8.002701v-8.9971755l2.3655164402,2.3664015v-4.627134l-.0491174988-.049029h.0491174988v-3.1662645h-2.4337499385v-9.952533l2.4337499385-2.43375v-4.483056l-5.5623133595,5.562225v9.003813l-16.9999645705-16.999788,16.9999645705-16.9998765v8.9971755l5.5623133595,5.5669155v-4.485534l-2.4337499385-2.4357855v-9.9526215h2.4337499385v-3.166176h-.0556664986l.0556664986-.0556665ZM145.0950858269,270.3481715889l7.7146333051-7.714722h9.9591702484v9.952533l-7.7212708049,7.7148105h-9.9525327486v-9.9526215ZM124.2243968542,291.1816910889l7.7146333051-7.714722h9.9526212486v9.9526215l-7.7147218051,7.7211825h-9.9525327486v-9.959082ZM141.8916514079,322.0797845889h-9.9526212486l-7.7146333051-7.714722v-9.9526215h9.9525327486l7.7147218051,7.7148105v9.952533ZM137.1672560272,302.7766955889l7.996063298-8.002701v-8.9971755l16.9933270707,16.9998765-16.9933270707,16.98669v-8.990715l-7.996063298-7.995975ZM162.7688893804,342.9197645889h-9.9591702484l-7.7146333051-7.7211825v-9.952533h9.9525327486l7.7212708049,7.7146335v9.959082ZM183.7079003515,335.1985820889l-7.7147218051,7.7211825h-9.9525327486v-9.959082l7.7146333051-7.7146335h9.9526212486v9.952533ZM181.4663724081,322.0797845889h-8.9907147729l-8.0026122978,8.0026125-7.996063298-8.0026125h-9.0038127725l16.9998760705-16.9933275,16.9933270707,16.9933275ZM164.4730453374,300.4602965889l-16.9933270707-16.9933275h8.9972637727l7.996063298-7.996152,8.0026122978,7.996152h8.9907147729l-16.9933270707,16.9933275ZM183.7079003515,280.3007930889h-9.9526212486l-7.7146333051-7.7148105v-9.952533h9.9525327486l7.7147218051,7.714722v9.9526215Z"/>
        <path class="cls-42" d="M189.3450847091,363.8031980889v-4.6252755l-2.3655164402,2.364543v-8.990715l-7.996063298-7.9960635h-29.0209192669l-7.996063298,7.9960635v9.003813l-16.9999645706-16.9998765h-4.6261603831l-14.6278085149,14.6222355v4.6252755l16.9442074564-16.937661,16.9933270707,16.9933275h-8.9907147729l-.4645364883.4645365h28.9836607678l5.2945123663-5.2945125,5.2988488661,5.2945125h19.5731905055v-.4645365h-.0556664986l.0556664986-.0556665ZM162.7688893804,356.1440540889l-7.7212708049,7.7148105h-9.9525327486v-9.9526215l7.7146333051-7.714722h9.9591702484v9.952533ZM183.7079003515,363.8588645889h-9.9526212486l-7.7146333051-7.7148105v-9.952533h9.9525327486l7.7147218051,7.714722v9.9526215Z"/>
        <polygon class="cls-38" points="105.7125889374 363.8588645889 105.7125889374 364.3234010889 115.124915584 364.3234010889 114.6607330958 363.8588645889 105.7125889374 363.8588645889"/>
        <path class="cls-25" d="M41.2783939374,93.8814725889l16.999965-16.9998765v8.997264l7.9960635,8.0026125h29.02092l7.9960635-8.0026125v-8.997264l2.3655165,2.3664015v-4.627134l-.0491175-.049029h.0491175v-3.1662645h-2.43375v-9.952533l2.43375-2.43375v-4.483056l-5.5623135,5.562225v9.003813l-16.999965-16.999788,16.999965-16.9998765v8.9971755l5.5623135,5.5669155v-4.485534l-2.43375-2.4357855v-9.9526215h2.43375v-3.166176h-.0556665l.0556665-.0556665v-4.6252755l-2.3655165,2.364543v-8.990715l-7.9960635-7.9960635h-29.02092l-7.9960635,7.9960635v9.003813l-16.999965-16.9998765h-4.6261605l-14.62784109,14.6222355v4.6252755l16.94424009-16.93766985,16.9933275,16.99333635h-8.990715l-8.0026125,8.002524-7.9960635-8.002524h-8.94817659v3.166176h7.51883079l7.7212533,7.714722v9.959082h-9.95914395l-5.28094014-5.285397v4.485534l2.43375354,2.4357855-2.43375354,2.43375v4.483056l5.28094014-5.2810605h9.95914395v9.9526215l-7.7212533,7.714722h-7.51883079v3.1662645h8.94817659l7.9960635-7.996152,8.0026125,7.996152h8.990715l-16.9933275,16.993239-16.94424009-16.94421v4.627134l14.62784109,14.633475h4.6261605ZM79.0807264374,92.2455500889h-9.9591705l-7.7146335-7.7211825v-9.952533h9.952533l7.721271,7.7146335v9.959082ZM100.0197379374,84.5243675889l-7.714722,7.7211825h-9.952533v-9.959082l7.7146335-7.7146335h9.9526215v9.952533ZM97.7782099374,71.4055700889h-8.990715l-8.0026125,8.0026125-7.9960635-8.0026125h-9.003813l16.9998765-16.9933275,16.9933275,16.9933275ZM82.3524829374,11.9592262389h9.952533l7.714722,7.71473085v9.9526215h-9.9526215l-7.7146335-7.7148105v-9.95254185ZM88.7874949374,32.7927545889h8.990715l-16.9933275,16.9933275-16.9933275-16.9933275h8.997264l7.9960635-7.996152,8.0026125,7.996152ZM61.4069224374,19.6739570889l7.7146335-7.71473085h9.9591705v9.95254185l-7.721271,7.7148105h-9.952533v-9.9526215ZM61.4751559374,44.0997800889v-8.9971755l16.9933275,16.9998765-16.9933275,16.98669v-8.990715l-7.9960635-7.995975,7.9960635-8.002701ZM40.5362329374,40.5074765889l7.7146335-7.714722h9.9526215v9.9526215l-7.714722,7.7211825h-9.952533v-9.959082ZM48.2508664374,71.4055700889l-7.7146335-7.714722v-9.9526215h9.952533l7.714722,7.7148105v9.952533h-9.9526215Z"/>
        <path class="cls-20" d="M41.2783939374,177.4395440889l16.999965-16.9998765v8.9971755l7.9960635,8.002701h29.02092l7.9960635-8.002701v-8.9971755l2.3655165,2.3664015v-4.627134l-.0491175-.049029h.0491175v-3.1662645h-2.43375v-9.952533l2.43375-2.43375v-4.483056l-5.5623135,5.562225v9.003813l-16.999965-16.999788,16.999965-16.9998765v8.9971755l5.5623135,5.5669155v-4.485534l-2.43375-2.4357855v-9.9526215h2.43375v-3.166176h-.0556665l.0556665-.0556665v-4.6252755l-2.3655165,2.364543v-8.990715l-7.9960635-7.9960635h-29.02092l-7.9960635,7.9960635v9.003813l-16.999965-16.9998765h-4.6261605l-14.62784109,14.6222355v4.6252755l16.94424009-16.937661,16.9933275,16.9933275h-8.990715l-8.0026125,8.002524-7.9960635-8.002524h-8.94817659v3.166176h7.51883079l7.7212533,7.714722v9.959082h-9.95914395l-5.28094014-5.285397v4.485534l2.43375354,2.4357855-2.43375354,2.43375v4.483056l5.28094014-5.2810605h9.95914395v9.9526215l-7.7212533,7.714722h-7.51883079v3.1662645h8.94817659l7.9960635-7.996152,8.0026125,7.996152h8.990715l-16.9933275,16.993239-16.94424009-16.94421v4.627134l14.62784109,14.633475h4.6261605ZM79.0807264374,175.8036215889h-9.9591705l-7.7146335-7.7211825v-9.952533h9.952533l7.721271,7.7146335v9.959082ZM100.0197379374,168.0824390889l-7.714722,7.7211825h-9.952533v-9.959082l7.7146335-7.7146335h9.9526215v9.952533ZM97.7782099374,154.9636415889h-8.990715l-8.0026125,8.0026125-7.9960635-8.0026125h-9.003813l16.9998765-16.9933275,16.9933275,16.9933275ZM82.3524829374,95.5173065889h9.952533l7.714722,7.714722v9.9526215h-9.9526215l-7.7146335-7.7148105v-9.952533ZM88.7874949374,116.3508260889h8.990715l-16.9933275,16.9933275-16.9933275-16.9933275h8.997264l7.9960635-7.996152,8.0026125,7.996152ZM61.4069224374,103.2320285889l7.7146335-7.714722h9.9591705v9.952533l-7.721271,7.7148105h-9.952533v-9.9526215ZM61.4751559374,127.6578515889v-8.9971755l16.9933275,16.9998765-16.9933275,16.98669v-8.990715l-7.9960635-7.995975,7.9960635-8.002701ZM40.5362329374,124.0655480889l7.7146335-7.714722h9.9526215v9.9526215l-7.714722,7.7211825h-9.952533v-9.959082ZM48.2508664374,154.9636415889l-7.7146335-7.714722v-9.9526215h9.952533l7.714722,7.7148105v9.952533h-9.9526215Z"/>
        <path class="cls-17" d="M41.2783939374,260.9976155889l16.999965-16.9998765v8.9971755l7.9960635,8.002701h29.02092l7.9960635-8.002701v-8.9971755l2.3655165,2.3664015v-4.627134l-.0491175-.049029h.0491175v-3.1662645h-2.43375v-9.952533l2.43375-2.43375v-4.483056l-5.5623135,5.562225v9.003813l-16.999965-16.999788,16.999965-16.9998765v8.9971755l5.5623135,5.5669155v-4.485534l-2.43375-2.4357855v-9.9526215h2.43375v-3.166176h-.0556665l.0556665-.0556665v-4.6252755l-2.3655165,2.364543v-8.990715l-7.9960635-7.9960635h-29.02092l-7.9960635,7.9960635v9.003813l-16.999965-16.9998765h-4.6261605l-14.62784109,14.6222355v4.6252755l16.94424009-16.937661,16.9933275,16.9933275h-8.990715l-8.0026125,8.002524-7.9960635-8.002524h-8.94817659v3.166176h7.51883079l7.7212533,7.714722v9.959082h-9.95914395l-5.28094014-5.285397v4.485534l2.43375354,2.4357855-2.43375354,2.43375v4.483056l5.28094014-5.2810605h9.95914395v9.9526215l-7.7212533,7.714722h-7.51883079v3.1662645h8.94817659l7.9960635-7.996152,8.0026125,7.996152h8.990715l-16.9933275,16.993239-16.94424009-16.94421v4.627134l14.62784109,14.633475h4.6261605ZM79.0807264374,259.3616930889h-9.9591705l-7.7146335-7.7211825v-9.952533h9.952533l7.721271,7.7146335v9.959082ZM100.0197379374,251.6405105889l-7.714722,7.7211825h-9.952533v-9.959082l7.7146335-7.7146335h9.9526215v9.952533ZM97.7782099374,238.5217130889h-8.990715l-8.0026125,8.0026125-7.9960635-8.0026125h-9.003813l16.9998765-16.9933275,16.9933275,16.9933275ZM82.3524829374,179.0753780889h9.952533l7.714722,7.714722v9.9526215h-9.9526215l-7.7146335-7.7148105v-9.952533ZM88.7874949374,199.9088975889h8.990715l-16.9933275,16.9933275-16.9933275-16.9933275h8.997264l7.9960635-7.996152,8.0026125,7.996152ZM61.4069224374,186.7901000889l7.7146335-7.714722h9.9591705v9.952533l-7.721271,7.7148105h-9.952533v-9.9526215ZM61.4751559374,211.2159230889v-8.9971755l16.9933275,16.9998765-16.9933275,16.98669v-8.990715l-7.9960635-7.995975,7.9960635-8.002701ZM40.5362329374,207.6236195889l7.7146335-7.714722h9.9526215v9.9526215l-7.714722,7.7211825h-9.952533v-9.959082ZM48.2508664374,238.5217130889l-7.7146335-7.714722v-9.9526215h9.952533l7.714722,7.7148105v9.952533h-9.9526215Z"/>
        <path class="cls-36" d="M36.6522334374,344.5556870889h4.6261605l16.999965-16.9998765v8.9971755l7.9960635,8.002701h29.02092l7.9960635-8.002701v-8.9971755l2.3655165,2.3664015v-4.627134l-.0491175-.049029h.0491175v-3.1662645h-2.43375v-9.952533l2.43375-2.43375v-4.483056l-5.5623135,5.562225v9.003813l-16.999965-16.999788,16.999965-16.9998765v8.9971755l5.5623135,5.5669155v-4.485534l-2.43375-2.4357855v-9.9526215h2.43375v-3.166176h-.0556665l.0556665-.0556665v-4.6252755l-2.3655165,2.364543v-8.990715l-7.9960635-7.9960635h-29.02092l-7.9960635,7.9960635v9.003813l-16.999965-16.9998765h-4.6261605l-14.62784109,14.6222355v4.6252755l16.94424009-16.937661,16.9933275,16.9933275h-8.990715l-8.0026125,8.002524-7.9960635-8.002524h-8.94817659v3.166176h7.51883079l7.7212533,7.714722v9.959082h-9.95914395l-5.28094014-5.285397v4.485534l2.43375354,2.4357855-2.43375354,2.43375v4.483056l5.28094014-5.2810605h9.95914395v9.9526215l-7.7212533,7.714722h-7.51883079v3.1662645h8.94817659l7.9960635-7.996152,8.0026125,7.996152h8.990715l-16.9933275,16.993239-16.94424009-16.94421v4.627134l14.62784109,14.633475ZM79.0807264374,342.9197645889h-9.9591705l-7.7146335-7.7211825v-9.952533h9.952533l7.721271,7.7146335v9.959082ZM100.0197379374,335.1985820889l-7.714722,7.7211825h-9.952533v-9.959082l7.7146335-7.7146335h9.9526215v9.952533ZM97.7782099374,322.0797845889h-8.990715l-8.0026125,8.0026125-7.9960635-8.0026125h-9.003813l16.9998765-16.9933275,16.9933275,16.9933275ZM82.3524829374,262.6334495889h9.952533l7.714722,7.714722v9.9526215h-9.9526215l-7.7146335-7.7148105v-9.952533ZM88.7874949374,283.4669690889h8.990715l-16.9933275,16.9933275-16.9933275-16.9933275h8.997264l7.9960635-7.996152,8.0026125,7.996152ZM61.4069224374,270.3481715889l7.7146335-7.714722h9.9591705v9.952533l-7.721271,7.7148105h-9.952533v-9.9526215ZM61.4751559374,294.7739945889v-8.9971755l16.9933275,16.9998765-16.9933275,16.98669v-8.990715l-7.9960635-7.995975,7.9960635-8.002701ZM40.5362329374,291.1816910889l7.7146335-7.714722h9.9526215v9.9526215l-7.714722,7.7211825h-9.952533v-9.959082ZM48.2508664374,322.0797845889l-7.7146335-7.714722v-9.9526215h9.952533l7.714722,7.7148105v9.952533h-9.9526215Z"/>
        <path class="cls-10" d="M105.6569224374,363.8031980889v-4.6252755l-2.3655165,2.364543v-8.990715l-7.9960635-7.9960635h-29.02092l-7.9960635,7.9960635v9.003813l-16.999965-16.9998765h-4.6261605l-14.62784109,14.6222355v4.6252755l16.94424009-16.937661,16.9933275,16.9933275h-8.990715l-.4645365.4645365h28.9836615l5.2945125-5.2945125,5.298849,5.2945125h19.573191v-.4645365h-.0556665l.0556665-.0556665ZM79.0807264374,356.1440540889l-7.721271,7.7148105h-9.952533v-9.9526215l7.7146335-7.714722h9.9591705v9.952533ZM100.0197379374,363.8588645889h-9.9526215l-7.7146335-7.7148105v-9.952533h9.952533l7.714722,7.714722v9.9526215Z"/>
        <polygon class="cls-22" points="22.0243923474 363.8588645889 22.0243923474 364.3234010889 31.4367514374 364.3234010889 30.9725689374 363.8588645889 22.0243923474 363.8588645889"/>
      </g>
    </g>
    <g>
      <path class="cls-11" d="M310.4665817627,277.7936955227c-.75-7.1198730469-6.7698974609-12.6799316406-14.08984375-12.6799316406h-100.5600585938c-23.8200683594,0-43.1999511719-19.3798828125-43.1999511719-43.1999511719,0-.5.0100097656-.9899902344.0299072266-1.4799804688.7800292969-23.1401367188,19.8499755859-41.7199707031,43.1700439453-41.7199707031,23,0,41.9399414062,17.7897949219,43.2099609375,40.4599609375.0200195312.3498535156.0400390625.6999511719.0500488281,1.0500488281,0,.0600585938.0100097656.1198730469.0100097656.1799316406.7299804688,7.1398925781,6.7600097656,12.7099609375,14.0899658203,12.7099609375,7.5299072266,0,13.6800537109-5.8798828125,14.1300048828-13.2900390625-1.1099853516-38.4799804688-32.75-69.4399414062-71.4899902344-69.4399414062-38.9399414062,0-70.7199707031,31.2900390625-71.5100097656,70.0500488281-.0100097656.4899902344-.0200195312.9799804688-.0200195312,1.4799804688,0,39.4399414062,32.0900878906,71.5300292969,71.5300292969,71.5300292969h100.5600585938c7.8199462891,0,14.1599121094-6.3400878906,14.1599121094-14.1701660156,0-.5-.0300292969-.9897460938-.0700683594-1.4799804688Z"/>
      <path class="cls-8" d="M195.816679419,136.223871304c.5600585938,0,1.1199951172.0100097656,1.6799316406.0200195312.1229248047-.0024414062.2442626953-.0024414062.3664550781-.0043945312,42.95703125,2.369140625,81.3625488281,35.4719238281,86.9150390625,82.5786132812.0368652344,1.029296875.0786132812,2.0576171875.0786132812,3.095703125,0,7.2600097656,5.4599609375,13.25,12.4899902344,14.0700683594,7.0300292969-.830078125,12.4799804688-6.8200683594,12.4799804688-14.0700683594,0-60.5200195312-47.4100341797-110.16015625-107.0400390625-113.7800292969,11.580078125-2.8698730469,20.169921875-13.3000488281,20.169921875-25.7600097656,0-1.33984375-.0998535156-2.6499023438-.2899169922-3.9399414062v-.0100097656c-.3199462891-2.1398925781-.9000244141-4.1999511719-1.7000732422-6.1398925781-1.5,11.4799804688-10.9399414062,20.4697265625-22.6398925781,21.2397460938-.5400390625.0400390625-1.0900878906.0600585938-1.6500244141.0600585938-10.6099853516,0-19.6500244141-6.75-23.0400390625-16.1899414062-.7199707031-1.9599609375-1.1800537109-4.0300292969-1.3699951172-6.1899414062-1.5699462891,3.3999023438-2.4599609375,7.1799316406-2.4599609375,11.169921875,0,12.3601074219,8.4599609375,22.7299804688,19.8999023438,25.6899414062-60.0399169922,3.1801757812-107.9099121094,53.0300292969-107.9099121094,113.8500976562,0,7.8200683594,6.3399658203,14.169921875,14.1599121094,14.169921875.5700683594,0,1.1301269531-.0300292969,1.6800537109-.0998535156,7.0300292969-.830078125,12.4901123047-6.8200683594,12.4901123047-14.0700683594,0-47.25,38.4399414062-85.6899414062,85.6899414062-85.6899414062Z"/>
    </g>
  </g>
</svg>