<?xml version="1.0" encoding="UTF-8"?>
<svg id="Layer_1" data-name="Layer 1" xmlns="http://www.w3.org/2000/svg" xmlns:xlink="http://www.w3.org/1999/xlink" viewBox="0 0 412.2813547877 412.2817904398">
  <defs>
    <style>
      .cls-1 {
        fill: url(#linear-gradient-15);
      }

      .cls-2 {
        fill: url(#linear-gradient-13);
      }

      .cls-3 {
        fill: url(#linear-gradient-28);
      }

      .cls-4 {
        fill: url(#linear-gradient-2);
      }

      .cls-5 {
        fill: url(#linear-gradient-25);
      }

      .cls-6 {
        fill: url(#linear-gradient-10);
      }

      .cls-7 {
        fill: url(#linear-gradient-12);
      }

      .cls-8 {
        fill: url(#linear-gradient-40);
      }

      .cls-9 {
        fill: url(#linear-gradient-27);
      }

      .cls-10 {
        fill: url(#linear-gradient-37);
      }

      .cls-11 {
        fill: url(#linear-gradient-39);
      }

      .cls-12 {
        fill: #1f2225;
      }

      .cls-13 {
        fill: url(#linear-gradient-26);
      }

      .cls-14 {
        fill: none;
      }

      .cls-15 {
        fill: url(#linear-gradient-4);
      }

      .cls-16 {
        fill: url(#linear-gradient-35);
      }

      .cls-17 {
        fill: url(#linear-gradient-30);
      }

      .cls-18 {
        fill: url(#linear-gradient-3);
      }

      .cls-19 {
        fill: url(#linear-gradient-34);
      }

      .cls-20 {
        fill: url(#linear-gradient-5);
      }

      .cls-21 {
        fill: url(#linear-gradient-38);
      }

      .cls-22 {
        fill: url(#linear-gradient-22);
      }

      .cls-23 {
        fill: url(#linear-gradient-24);
      }

      .cls-24 {
        fill: url(#linear-gradient-33);
      }

      .cls-25 {
        fill: url(#linear-gradient-8);
      }

      .cls-26 {
        fill: url(#linear-gradient-14);
      }

      .cls-27 {
        fill: url(#linear-gradient-29);
      }

      .cls-28 {
        fill: url(#linear-gradient-20);
      }

      .cls-29 {
        fill: url(#linear-gradient-17);
      }

      .cls-30 {
        fill: url(#linear-gradient-7);
      }

      .cls-31 {
        fill: url(#linear-gradient-9);
      }

      .cls-32 {
        fill: url(#linear-gradient-11);
      }

      .cls-33 {
        fill: url(#linear-gradient-19);
      }

      .cls-34 {
        fill: url(#linear-gradient-6);
      }

      .cls-35 {
        fill: url(#linear-gradient-36);
      }

      .cls-36 {
        fill: url(#linear-gradient-21);
      }

      .cls-37 {
        fill: url(#linear-gradient-32);
      }

      .cls-38 {
        fill: url(#linear-gradient-16);
      }

      .cls-39 {
        fill: url(#linear-gradient);
      }

      .cls-40 {
        fill: url(#linear-gradient-23);
      }

      .cls-41 {
        fill: url(#linear-gradient-31);
      }

      .cls-42 {
        clip-path: url(#clippath);
      }

      .cls-43 {
        opacity: .08;
      }

      .cls-44 {
        fill: url(#linear-gradient-18);
      }
    </style>
    <clipPath id="clippath">
      <rect class="cls-14" width="412.2813547877" height="412.2813547877" rx="108.612402496" ry="108.612402496"/>
    </clipPath>
    <linearGradient id="linear-gradient" x1="384.7141834419" y1="51.0187339604" x2="524.784634202" y2="350.0031938788" gradientUnits="userSpaceOnUse">
      <stop offset="0" stop-color="#fff" stop-opacity="0"/>
      <stop offset="1" stop-color="#fff"/>
    </linearGradient>
    <linearGradient id="linear-gradient-2" x1="397.8262469013" y1="44.8758975078" x2="537.8966976614" y2="343.8603574262" xlink:href="#linear-gradient"/>
    <linearGradient id="linear-gradient-3" x1="413.360838744" y1="37.5981370437" x2="553.4312895044" y2="336.5825969628" xlink:href="#linear-gradient"/>
    <linearGradient id="linear-gradient-4" x1="360.4408571781" y1="62.3904813487" x2="500.5113079382" y2="361.3749412671" xlink:href="#linear-gradient"/>
    <linearGradient id="linear-gradient-5" x1="347.3287937187" y1="68.5333178013" x2="487.3992444788" y2="367.5177777197" xlink:href="#linear-gradient"/>
    <linearGradient id="linear-gradient-6" x1="375.9754541683" y1="55.112718473" x2="516.0459049284" y2="354.0971783915" xlink:href="#linear-gradient"/>
    <linearGradient id="linear-gradient-7" x1="338.5900644451" y1="72.6273023139" x2="478.6605152052" y2="371.6117622323" xlink:href="#linear-gradient"/>
    <linearGradient id="linear-gradient-8" x1="323.0554674549" y1="79.9050651897" x2="463.125918215" y2="378.8895251079" xlink:href="#linear-gradient"/>
    <linearGradient id="linear-gradient-9" x1="309.9434039955" y1="86.0479016422" x2="450.0138547556" y2="385.0323615606" xlink:href="#linear-gradient"/>
    <linearGradient id="linear-gradient-10" x1="301.2046747219" y1="90.1418861549" x2="441.275125482" y2="389.1263460732" xlink:href="#linear-gradient"/>
    <linearGradient id="linear-gradient-11" x1="272.5580142723" y1="103.5624854831" x2="412.6284650324" y2="402.5469454015" xlink:href="#linear-gradient"/>
    <linearGradient id="linear-gradient-12" x1="285.6700777316" y1="97.4196490305" x2="425.7405284918" y2="396.4041089489" xlink:href="#linear-gradient"/>
    <linearGradient id="linear-gradient-13" x1="263.8192849983" y1="107.6564699951" x2="403.8897357588" y2="406.6409299142" xlink:href="#linear-gradient"/>
    <linearGradient id="linear-gradient-14" x1="254.5106486926" y1="112.0174487683" x2="394.5810994531" y2="411.0019086876" xlink:href="#linear-gradient"/>
    <linearGradient id="linear-gradient-15" x1="350.0759097166" y1="67.2463285838" x2="490.1463604767" y2="366.2307885022" xlink:href="#linear-gradient"/>
    <linearGradient id="linear-gradient-16" x1="312.6905199934" y1="84.7609124247" x2="452.7609707535" y2="383.7453723431" xlink:href="#linear-gradient"/>
    <linearGradient id="linear-gradient-17" x1="275.3051302702" y1="102.2754962656" x2="415.3755810303" y2="401.259956184" xlink:href="#linear-gradient"/>
    <linearGradient id="linear-gradient-18" x1="237.919740547" y1="119.7900801066" x2="377.9901913071" y2="418.7745400249" xlink:href="#linear-gradient"/>
    <linearGradient id="linear-gradient-19" x1="211.6475632782" y1="132.098263995" x2="351.7180140384" y2="431.0827239134" xlink:href="#linear-gradient"/>
    <linearGradient id="linear-gradient-20" x1="174.5862055603" y1="149.4610429254" x2="314.6566563206" y2="448.4455028443" xlink:href="#linear-gradient"/>
    <linearGradient id="linear-gradient-21" x1="270.1514634413" y1="104.6899242128" x2="410.2219142014" y2="403.6743841312" xlink:href="#linear-gradient"/>
    <linearGradient id="linear-gradient-22" x1="232.7660737181" y1="122.2045080537" x2="372.8365244782" y2="421.1889679721" xlink:href="#linear-gradient"/>
    <linearGradient id="linear-gradient-23" x1="195.3806839949" y1="139.7190918946" x2="335.451134755" y2="438.703551813" xlink:href="#linear-gradient"/>
    <linearGradient id="linear-gradient-24" x1="157.9952942717" y1="157.2336757356" x2="298.0657450318" y2="456.2181356539" xlink:href="#linear-gradient"/>
    <linearGradient id="linear-gradient-25" x1="94.6617561421" y1="186.9046400267" x2="234.7322069025" y2="485.8890999458" xlink:href="#linear-gradient"/>
    <linearGradient id="linear-gradient-26" x1="131.7231170029" y1="169.541859624" x2="271.793567763" y2="468.5263195424" xlink:href="#linear-gradient"/>
    <linearGradient id="linear-gradient-27" x1="190.2270181761" y1="142.1335193685" x2="330.2974689363" y2="441.1179792869" xlink:href="#linear-gradient"/>
    <linearGradient id="linear-gradient-28" x1="152.8416284529" y1="159.6481032094" x2="292.912079213" y2="458.6325631278" xlink:href="#linear-gradient"/>
    <linearGradient id="linear-gradient-29" x1="115.4562387297" y1="177.1626870504" x2="255.5266894898" y2="476.1471469688" xlink:href="#linear-gradient"/>
    <linearGradient id="linear-gradient-30" x1="78.0708490065" y1="194.6772708913" x2="218.1412997666" y2="493.6617308096" xlink:href="#linear-gradient"/>
    <linearGradient id="linear-gradient-31" x1="51.7986717377" y1="206.9854547797" x2="191.8691224979" y2="505.9699146982" xlink:href="#linear-gradient"/>
    <linearGradient id="linear-gradient-32" x1="14.7373108771" y1="224.3482351826" x2="154.8077616374" y2="523.3326951015" xlink:href="#linear-gradient"/>
    <linearGradient id="linear-gradient-33" x1="110.3025575039" y1="179.5771217423" x2="250.373008264" y2="478.5615816607" xlink:href="#linear-gradient"/>
    <linearGradient id="linear-gradient-34" x1="72.9171677807" y1="197.0917055832" x2="212.9876185408" y2="496.0761655016" xlink:href="#linear-gradient"/>
    <linearGradient id="linear-gradient-35" x1="35.5317780575" y1="214.6062894241" x2="175.6022288176" y2="513.5907493425" xlink:href="#linear-gradient"/>
    <linearGradient id="linear-gradient-36" x1="-1.8536116657" y1="232.1208732651" x2="138.2168390944" y2="531.1053331834" xlink:href="#linear-gradient"/>
    <linearGradient id="linear-gradient-37" x1="-28.1257889345" y1="244.4290571535" x2="111.9446618257" y2="543.413517072" xlink:href="#linear-gradient"/>
    <linearGradient id="linear-gradient-38" x1="-65.1871506622" y1="261.791837962" x2="74.8833000987" y2="560.7762978819" xlink:href="#linear-gradient"/>
    <linearGradient id="linear-gradient-39" x1="96.5896168919" y1="162.8926000937" x2="318.9436059909" y2="339.3939304236" gradientUnits="userSpaceOnUse">
      <stop offset="0" stop-color="#f1ddbf"/>
      <stop offset="1" stop-color="#9e8a6e"/>
    </linearGradient>
    <linearGradient id="linear-gradient-40" x1="117.0752031659" y1="137.0851355351" x2="339.4291922649" y2="313.586465865" xlink:href="#linear-gradient-39"/>
  </defs>
  <g>
    <path class="cls-12" d="M412.2813547877,108.6144559167v195.0533142584c0,23.7935171149-7.6516709622,45.793519463-20.6257396955,63.6823205089-3.3890612159,4.6818618605-7.1392280168,9.0842223115-11.2270427564,13.1604503955-3.1096308902,3.097902067-6.3939146194,6.021151295-9.8761666664,8.7347744658-17.8305834329,13.9523236666-40.1333315854,22.465814336-64.4043895114,23.0131594156-.8618197072.0116577394-1.6887372802.0233154787-2.480681635.0233154787H108.6140202647c-59.9904424048,0-108.6140202647-48.6235778599-108.6140202647-108.6140202646V108.6144559167C0,48.6240135119,48.6235778599.0004356521,108.6140202647.0004356521h195.0533142584C363.6577769279.0004356521,412.2813547877,48.6240135119,412.2813547877,108.6144559167Z"/>
    <g class="cls-42">
      <g class="cls-43">
        <polygon class="cls-39" points="389.6995325611 74.8831778218 389.6995325611 80.2721074102 406.7356161326 97.3147879138 412.1234118112 97.3147879138 412.4470526666 96.9911470503 412.4470526666 91.6033512356 409.4333791095 94.6170248687 389.6995325611 74.8831778218"/>
        <polygon class="cls-4" points="400.1208711732 22.4811869249 389.6995325611 22.4811869249 389.6995325611 26.1686313621 398.4561821749 26.1686313621 407.4486567177 35.153478927 407.4486567177 46.7521902812 395.8498425862 46.7521902812 389.6995325611 40.5966235136 389.6995325611 45.8206405601 392.5339668037 48.6574454921 389.6995325611 51.4918798062 389.6995325611 56.7130108832 395.8498425862 50.5624945622 407.4486567177 50.5624945622 407.4486567177 62.1536817817 398.4561821749 71.1385293466 389.6995325611 71.1385293466 389.6995325611 74.8260768542 400.1208711732 74.8260768542 409.4333791095 65.5134656122 412.4470526666 68.5247686276 412.4470526666 63.3416705055 411.2590639728 62.1536817817 411.2590639728 50.5624945622 412.4470526666 50.5624945622 412.4470526666 46.7521902812 411.2590639728 46.7521902812 411.2590639728 35.153478927 412.4470526666 33.9654902032 412.4470526666 28.7875455981 409.4333791095 31.8012192312 400.1208711732 22.4811869249"/>
        <polygon class="cls-18" points="412.4470526666 5.7037785521 412.4470526666 .3236676618 412.1234118112 0 406.7356161326 0 389.6995325611 17.0295905705 389.6995325611 22.4163556819 409.4333791095 2.690125533 412.4470526666 5.7037785521"/>
        <polygon class="cls-15" points="400.1208711732 119.7959748386 389.6995325611 119.7959748386 389.6995325611 123.4834192759 398.4561821749 123.4834192759 407.4486567177 132.4682668407 407.4486567177 144.066978195 395.8498425862 144.066978195 389.6995325611 137.9114114273 389.6995325611 143.1354284738 392.5339668037 145.9722334058 389.6995325611 148.80666772 389.6995325611 154.027798797 395.8498425862 147.8772824759 407.4486567177 147.8772824759 407.4486567177 159.4684696954 398.4561821749 168.4533172603 389.6995325611 168.4533172603 389.6995325611 172.1408647679 400.1208711732 172.1408647679 409.4333791095 162.828253526 412.4470526666 165.8395565413 412.4470526666 160.6564584193 411.2590639728 159.4684696954 411.2590639728 147.8772824759 412.4470526666 147.8772824759 412.4470526666 144.066978195 411.2590639728 144.066978195 411.2590639728 132.4682668407 412.4470526666 131.2802781169 412.4470526666 126.1023335118 409.4333791095 129.116007145 400.1208711732 119.7959748386"/>
        <polygon class="cls-20" points="389.6995325611 172.1979657355 389.6995325611 177.586895324 406.7356161326 194.6295758275 412.1234118112 194.6295758275 412.4470526666 194.305934964 412.4470526666 188.9181391493 409.4333791095 191.9318127825 389.6995325611 172.1979657355"/>
        <polygon class="cls-34" points="406.7356161326 97.3147879138 389.6995325611 114.3443784843 389.6995325611 119.7311435956 409.4333791095 100.0049237537 412.4470526666 103.0185973869 412.4470526666 97.6384287773 412.1234118112 97.3147879138 406.7356161326 97.3147879138"/>
        <polygon class="cls-30" points="406.7356161326 194.6295758275 389.6995325611 211.659166398 389.6995325611 217.0459315093 409.4333791095 197.3197116675 412.4470526666 200.3333853007 412.4470526666 194.953216691 412.1234118112 194.6295758275 406.7356161326 194.6295758275"/>
        <polygon class="cls-25" points="400.1208711732 217.1107627524 389.6995325611 217.1107627524 389.6995325611 220.7982071896 398.4561821749 220.7982071896 407.4486567177 229.7830547545 407.4486567177 241.3817661087 395.8498425862 241.3817661087 389.6995325611 235.2261993411 389.6995325611 240.4502163876 392.5339668037 243.2870213196 389.6995325611 246.1214556337 389.6995325611 251.3425867108 395.8498425862 245.1920703897 407.4486567177 245.1920703897 407.4486567177 256.7832576092 398.4561821749 265.7681051741 389.6995325611 265.7681051741 389.6995325611 269.4556526816 400.1208711732 269.4556526816 409.4333791095 260.1430414397 412.4470526666 263.1542413847 412.4470526666 257.971246333 411.2590639728 256.7832576092 411.2590639728 245.1920703897 412.4470526666 245.1920703897 412.4470526666 241.3817661087 411.2590639728 241.3817661087 411.2590639728 229.7830547545 412.4470526666 228.5950660307 412.4470526666 223.4171214256 409.4333791095 226.4307950587 400.1208711732 217.1107627524"/>
        <polygon class="cls-31" points="389.6995325611 269.5127536493 389.6995325611 274.9016832377 406.7356161326 291.9443637413 412.1234118112 291.9443637413 412.4470526666 291.6207228778 412.4470526666 286.232927063 409.4333791095 289.2466006962 389.6995325611 269.5127536493"/>
        <polygon class="cls-6" points="406.7356161326 291.9443637413 389.6995325611 308.9739543118 389.6995325611 314.3607194231 409.4333791095 294.6344995813 412.4470526666 297.6481732144 412.4470526666 292.2680046048 412.1234118112 291.9443637413 406.7356161326 291.9443637413"/>
        <polygon class="cls-32" points="389.6995325611 366.827541563 389.6995325611 372.2164711515 406.7356161326 389.259151655 412.1234118112 389.259151655 412.4470526666 388.9354077211 412.4470526666 383.5477149768 409.4333791095 386.5613886099 389.6995325611 366.827541563"/>
        <polygon class="cls-7" points="400.1208711732 314.4255506661 389.6995325611 314.4255506661 389.6995325611 318.1129951034 398.4561821749 318.1129951034 407.4486567177 327.0978426682 407.4486567177 338.6965540225 395.8498425862 338.6965540225 389.6995325611 332.5409872548 389.6995325611 337.7650043014 392.5339668037 340.6018092333 389.6995325611 343.4362435475 389.6995325611 348.6573746245 395.8498425862 342.5068583034 407.4486567177 342.5068583034 407.4486567177 354.0980455229 398.4561821749 363.0828930878 389.6995325611 363.0828930878 389.6995325611 366.7704405954 400.1208711732 366.7704405954 409.4333791095 357.4578293534 412.4470526666 360.4690292985 412.4470526666 355.2860342468 411.2590639728 354.0980455229 411.2590639728 342.5068583034 412.4470526666 342.5068583034 412.4470526666 338.6965540225 411.2590639728 338.6965540225 411.2590639728 327.0978426682 412.4470526666 325.9098539444 412.4470526666 320.7319093393 409.4333791095 323.7455829725 400.1208711732 314.4255506661"/>
        <polygon class="cls-2" points="406.7356161326 389.259151655 389.6995325611 406.2887422255 389.6995325611 411.6755073369 409.4333791095 391.949287495 412.4470526666 394.9628580578 412.4470526666 389.5827925185 412.1234118112 389.259151655 406.7356161326 389.259151655"/>
        <polygon class="cls-26" points="389.6995325611 411.7403385799 389.6995325611 412.2813547877 400.661475086 412.2813547877 400.1208711732 411.7403385799 389.6995325611 411.7403385799"/>
        <path class="cls-1" d="M331.758130845,22.4811869249h-10.4709154437l-9.3201351412,9.3200323063-9.3125079363-9.3200323063h-10.421338612v3.6874444372h8.7566496138l8.9924823794,8.9848475649v11.5987113542h-11.5987188979l-6.1504130953-6.1555667677v5.2240170466l2.8344342426,2.8368049319-2.8344342426,2.8344343141v5.221131077l6.1504130953-6.150516321h11.5987188979v11.5911872195l-8.9924823794,8.9848475649h-8.7566496138v3.6875475076h10.421338612l9.3125079363-9.3126112419,9.3201351412,9.3126112419h10.4709154437l-19.7910505849,19.7909480145-19.7338465484-19.7338470469v5.3889295884l17.0360835715,17.0426805035h5.3877956786l19.7987808601-19.7986782899v10.4785429133l9.3125079363,9.3201353767h33.7988246117l9.3125079363-9.3201353767v-10.4785429133l2.7549670134,2.7559977864v-5.3889295884l-.0572040365-.0571009676h.0572040365v-3.6875475076h-2.8344342425v-11.5910841492l2.8344342425-2.8344343142v-5.221131077l-6.4780736938,6.4779707871v10.4861701184l-19.7987808601-19.7985752196,19.7987808601-19.7986782899v10.4784398429l6.4780736938,6.4834335151v-5.2240170466l-2.8344342425-2.8368049319v-11.5911872195h2.8344342425v-3.6874444372h-.0648312414l.0648312414-.064831243v-5.3867651113l-2.7549670134,2.7538333093v-10.4709157082l-9.3125079363-9.3125081716h-33.7988246117l-9.3125079363,9.3125081716v10.4861701183L314.6571129618,0h-5.3877956786l-17.0360835715,17.0295905705v5.3867651113l19.7338465484-19.7262301489,19.7910505849,19.7910613919ZM334.3686963176,71.1385293466h-11.5911787668l-8.9847524274-8.9848475649v-11.5911872195h11.5910838564l8.9848473379,8.9849506352v11.5910841492ZM358.6831007392,95.4095327029h-11.5988231985l-8.9847442676-8.9923716996v-11.5910841492h11.5910838564l8.9924836097,8.9847444945v11.5987113542ZM383.0694301216,86.4171610033l-8.9848473379,8.9923716996h-11.5910838563v-11.5987113542l8.9847536577-8.9847444945h11.5911775366v11.5910841492ZM380.458864649,71.1385293466h-10.4709154437l-9.3201351412,9.3201353767-9.3125079363-9.3201353767h-10.4861698535l19.7986777898-19.7910510849,19.7910505849,19.7910510849ZM362.4934989273,1.9051418335h11.5910838563l8.9848473379,8.9848578719v11.5911872195h-11.5911775366l-8.9847536577-8.9849506352V1.9051418335ZM369.9879492053,26.1686313621h10.4709154437l-19.7910505849,19.7910510849-19.7910505849-19.7910510849h10.4785426486l9.3125079363-9.3126112419,9.3201351412,9.3126112419ZM338.0995332732,10.8899997054l8.9847442676-8.9848578719h11.5988231985v11.5910944562l-8.9924836097,8.9849506352h-11.5910838564v-11.5911872195ZM338.1790005023,39.337207045v-10.4784398429l19.7910505849,19.7986782899-19.7910505849,19.7833208095v-10.4709157082l-9.3125079363-9.3124051013,9.3125079363-9.320238447ZM334.3686963176,37.7598185816l-8.9848473379,8.9923716996h-11.5910838564v-11.5987113542l8.9847524274-8.9848475649h11.5911787668v11.5911872195Z"/>
        <path class="cls-38" d="M331.758130845,119.7959748386h-10.4709154437l-9.3201351412,9.3200323063-9.3125079363-9.3200323063h-10.421338612v3.6874444372h8.7566496138l8.9924823794,8.9848475649v11.5987113543h-11.5987188979l-6.1504130953-6.1555667677v5.2240170465l2.8344342426,2.836804932-2.8344342426,2.8344343142v5.221131077l6.1504130953-6.1505163211h11.5987188979v11.5911872195l-8.9924823794,8.9848475649h-8.7566496138v3.6875475076h10.421338612l9.3125079363-9.312611242,9.3201351412,9.312611242h10.4709154437l-19.7910505849,19.7909480145-19.7338465484-19.7338470469v5.3889295884l17.0360835715,17.0426805035h5.3877956786l19.7987808601-19.79867829v10.478439843l9.3125079363,9.320238447h33.7988246117l9.3125079363-9.320238447v-10.478439843l2.7549670134,2.7559977864v-5.3889295884l-.0572040365-.0571009676h.0572040365v-3.6875475076h-2.8344342425v-11.5910841492l2.8344342425-2.8344343142v-5.221131077l-6.4780736938,6.4779707871v10.4861701184l-19.7987808601-19.7985752196,19.7987808601-19.79867829v10.478439843l6.4780736938,6.483433515v-5.2240170465l-2.8344342425-2.8368049319v-11.5911872195h2.8344342425v-3.6874444372h-.0648312414l.0648312414-.0648312431v-5.3867651113l-2.7549670134,2.7538333093v-10.4709157082l-9.3125079363-9.3125081716h-33.7988246117l-9.3125079363,9.3125081716v10.4861701183l-19.7987808601-19.7986782899h-5.3877956786l-17.0360835715,17.0295905705v5.3867651113l19.7338465484-19.7262198419,19.7910505849,19.7910510849ZM334.3686963176,168.4533172603h-11.5911787668l-8.9847524274-8.9848475649v-11.5911872195h11.5910838564l8.9848473379,8.9849506352v11.5910841492ZM358.6831007392,192.7243206167h-11.5988231985l-8.9847442676-8.9923716996v-11.5910841492h11.5910838564l8.9924836097,8.9847444945v11.5987113542ZM383.0694301216,183.7319489171l-8.9848473379,8.9923716996h-11.5910838563v-11.5987113542l8.9847536577-8.9847444945h11.5911775366v11.5910841492ZM380.458864649,168.4533172603h-10.4709154437l-9.3201351412,9.3201353767-9.3125079363-9.3201353767h-10.4861698535l19.7986777898-19.7910510849,19.7910505849,19.7910510849ZM362.4934989273,99.2199400542h11.5910838563l8.9848473379,8.9848475649v11.5911872195h-11.5911775366l-8.9847536577-8.9849506352v-11.5910841492ZM369.9879492053,123.4834192759h10.4709154437l-19.7910505849,19.7910510849-19.7910505849-19.7910510849h10.4785426486l9.3125079363-9.3126112419,9.3201351412,9.3126112419ZM338.0995332732,108.2047876191l8.9847442676-8.9848475649h11.5988231985v11.5910841492l-8.9924836097,8.9849506352h-11.5910838564v-11.5911872195ZM338.1790005023,136.6519949588v-10.478439843l19.7910505849,19.79867829-19.7910505849,19.7833208095v-10.4709157082l-9.3125079363-9.3124051013,9.3125079363-9.320238447ZM334.3686963176,135.0746064954l-8.9848473379,8.9923716996h-11.5910838564v-11.5987113543l8.9847524274-8.9848475649h11.5911787668v11.5911872195Z"/>
        <path class="cls-29" d="M331.758130845,217.1107627524h-10.4709154437l-9.3201351412,9.3200323063-9.3125079363-9.3200323063h-10.421338612v3.6874444372h8.7566496138l8.9924823794,8.9848475649v11.5987113542h-11.5987188979l-6.1504130953-6.1555667676v5.2240170465l2.8344342426,2.836804932-2.8344342426,2.8344343141v5.221131077l6.1504130953-6.1505163211h11.5987188979v11.5911872195l-8.9924823794,8.9848475649h-8.7566496138v3.6875475075h10.421338612l9.3125079363-9.3126112419,9.3201351412,9.3126112419h10.4709154437l-19.7910505849,19.7909480145-19.7338465484-19.7338470469v5.3889295884l17.0360835715,17.0426805036h5.3877956786l19.7987808601-19.79867829v10.478439843l9.3125079363,9.320238447h33.7988246117l9.3125079363-9.320238447v-10.478439843l2.7549670134,2.7559977864v-5.3889295884l-.0572040365-.0571009677h.0572040365v-3.6875475075h-2.8344342425v-11.5910841492l2.8344342425-2.8344343142v-5.221131077l-6.4780736938,6.4779707871v10.4861701183l-19.7987808601-19.7985752196,19.7987808601-19.79867829v10.478439843l6.4780736938,6.483433515v-5.2240170465l-2.8344342425-2.836804932v-11.5911872195h2.8344342425v-3.6874444372h-.0648312414l.0648312414-.0648312431v-5.3867651113l-2.7549670134,2.7538333093v-10.4709157082l-9.3125079363-9.3125081716h-33.7988246117l-9.3125079363,9.3125081716v10.4861701183l-19.7987808601-19.7986782899h-5.3877956786l-17.0360835715,17.0295905705v5.3867651113l19.7338465484-19.7262198419,19.7910505849,19.7910510849ZM334.3686963176,265.7681051741h-11.5911787668l-8.9847524274-8.9848475649v-11.5911872195h11.5910838564l8.9848473379,8.9849506352v11.5910841492ZM358.6831007392,290.0391085305h-11.5988231985l-8.9847442676-8.9923716996v-11.5910841492h11.5910838564l8.9924836097,8.9847444945v11.5987113543ZM383.0694301216,281.0467368308l-8.9848473379,8.9923716996h-11.5910838563v-11.5987113543l8.9847536577-8.9847444945h11.5911775366v11.5910841492ZM380.458864649,265.7681051741h-10.4709154437l-9.3201351412,9.3201353767-9.3125079363-9.3201353767h-10.4861698535l19.7986777898-19.7910510849,19.7910505849,19.7910510849ZM362.4934989273,196.534727968h11.5910838563l8.9848473379,8.9848475649v11.5911872195h-11.5911775366l-8.9847536577-8.9849506352v-11.5910841492ZM369.9879492053,220.7982071896h10.4709154437l-19.7910505849,19.7910510849-19.7910505849-19.7910510849h10.4785426486l9.3125079363-9.312611242,9.3201351412,9.312611242ZM338.0995332732,205.5195755329l8.9847442676-8.9848475649h11.5988231985v11.5910841492l-8.9924836097,8.9849506352h-11.5910838564v-11.5911872195ZM338.1790005023,233.9667828726v-10.478439843l19.7910505849,19.79867829-19.7910505849,19.7833208095v-10.4709157082l-9.3125079363-9.3124051013,9.3125079363-9.320238447ZM334.3686963176,232.3893944091l-8.9848473379,8.9923716996h-11.5910838564v-11.5987113542l8.9847524274-8.9848475649h11.5911787668v11.5911872195Z"/>
        <path class="cls-44" d="M389.6347013197,314.3607194231v-5.3867651113l-2.7549670134,2.7538333093v-10.4709157082l-9.3125079363-9.3125081716h-33.7988246117l-9.3125079363,9.3125081716v10.4861701184l-19.7987808601-19.7986782899h-5.3877956786l-17.0360835715,17.0295905705v5.3867651113l19.7338465484-19.7262198418,19.7910505849,19.7910510849h-10.4709154437l-9.3201351412,9.3200323063-9.3125079363-9.3200323063h-10.421338612v3.6874444372h8.7566496138l8.9924823794,8.9848475649v11.5987113542h-11.5987188979l-6.1504130953-6.1555667676v5.2240170465l2.8344342426,2.8368049319-2.8344342426,2.8344343142v5.221131077l6.1504130953-6.1505163211h11.5987188979v11.5911872195l-8.9924823794,8.9848475649h-8.7566496138v3.6875475075h10.421338612l9.3125079363-9.312611242,9.3201351412,9.312611242h10.4709154437l-19.7910505849,19.7909480145-19.7338465484-19.7338470469v5.3889295884l17.0360835715,17.0426805035h5.3877956786l19.7987808601-19.7986782899v10.478439843l9.3125079363,9.320238447h33.7988246117l9.3125079363-9.320238447v-10.478439843l2.7549670134,2.7559977864v-5.3889295884l-.0572040365-.0571009676h.0572040365v-3.6875475075h-2.8344342425v-11.5910841492l2.8344342425-2.8344343141v-5.221131077l-6.4780736938,6.4779707871v10.4861701184l-19.7987808601-19.7985752196,19.7987808601-19.7986782899v10.4784398429l6.4780736938,6.4834335151v-5.2240170465l-2.8344342425-2.836804932v-11.5911872195h2.8344342425v-3.6874444372h-.0648312414l.0648312414-.064831243ZM338.0995332732,302.8343634466l8.9847442676-8.9848475649h11.5988231985v11.5910841492l-8.9924836097,8.9849506352h-11.5910838564v-11.5911872195ZM313.7927651233,327.0978426682l8.9847524274-8.9848475649h11.5911787668v11.5911872195l-8.9848473379,8.9923716996h-11.5910838564v-11.5987113542ZM334.3686963176,363.0828930878h-11.5911787668l-8.9847524274-8.9848475649v-11.5911872195h11.5910838564l8.9848473379,8.9849506352v11.5910841492ZM328.866492566,340.6018092333l9.3125079363-9.320238447v-10.4784398429l19.7910505849,19.7986782899-19.7910505849,19.7833208095v-10.4709157082l-9.3125079363-9.3124051013ZM358.6831007392,387.3538964442h-11.5988231985l-8.9847442676-8.9923716996v-11.5910841492h11.5910838564l8.9924836097,8.9847444945v11.5987113542ZM383.0694301216,378.3615247446l-8.9848473379,8.9923716996h-11.5910838563v-11.5987113542l8.9847536577-8.9847444945h11.5911775366v11.5910841492ZM380.458864649,363.0828930878h-10.4709154437l-9.3201351412,9.3201353767-9.3125079363-9.3201353767h-10.4861698535l19.7986777898-19.7910510849,19.7910505849,19.7910510849ZM360.6678140641,337.9040461882l-19.7910505849-19.7910510849h10.4785426486l9.3125079363-9.312611242,9.3201351412,9.312611242h10.4709154437l-19.7910505849,19.7910510849ZM383.0694301216,314.4255506661h-11.5911775366l-8.9847536577-8.9849506352v-11.5910841492h11.5910838563l8.9848473379,8.9848475649v11.5911872195Z"/>
        <path class="cls-33" d="M389.6347013197,411.6755073369v-5.3867651113l-2.7549670134,2.7538333093v-10.4709157082l-9.3125079363-9.3125081716h-33.7988246117l-9.3125079363,9.3125081716v10.4861701183l-19.7987808601-19.79867829h-5.3877956786l-17.0360835715,17.0295905705v5.3867651113l19.7338465484-19.7262198419,19.7910505849,19.7910510849h-10.4709154437l-.5410161941.5410162078h33.7554320001l6.1661828568-6.1661830125,6.1711302329,6.1661830125h22.7957570227v-.5410162078h-.0648312414l.0648312414-.064831243ZM358.6831007392,402.7553879446l-8.9924836097,8.9849506352h-11.5910838564v-11.5911872195l8.9847442676-8.9848475649h11.5988231985v11.5910841492ZM383.0694301216,411.7403385799h-11.5911775366l-8.9847536577-8.9849506352v-11.5910841492h11.5910838563l8.9848473379,8.9848475649v11.5911872195Z"/>
        <polygon class="cls-28" points="292.2332337117 411.7403385799 292.2332337117 412.2813547877 303.1951839017 412.2813547877 302.6545723238 411.7403385799 292.2332337117 411.7403385799"/>
        <path class="cls-36" d="M234.2918319956,22.4811869249h-10.4709154437l-9.3201351412,9.3200323063-9.3125079363-9.3200323063h-10.421338612v3.6874444372h8.7566496138l8.9924745428,8.9848475649v11.5987113542h-11.5988141316l-6.150310025-6.1555667677v5.2240170466l2.8344342426,2.8368049319-2.8344342426,2.8344343141v5.221131077l6.150310025-6.150516321h11.5988141316v11.5911872195l-8.9924745428,8.9848475649h-8.7566496138v3.6875475076h10.421338612l9.3125079363-9.3126112419,9.3201351412,9.3126112419h10.4709154437l-19.7910505849,19.7909480145-19.7338465484-19.7338470469v5.3889295884l17.0360835715,17.0426805035h5.3877956786l19.7987808601-19.7986782899v10.4785429133l9.3125079363,9.3201353767h33.7988246117l9.3125079364-9.3201353767v-10.4785429133l2.7549670134,2.7559977864v-5.3889295884l-.0572040365-.0571009676h.0572040365v-3.6875475076h-2.8344342425v-11.5910841492l2.8344342425-2.8344343142v-5.221131077l-6.4780736938,6.4779707871v10.4861701184l-19.7987808601-19.7985752196,19.7987808601-19.7986782899v10.4784398429l6.4780736938,6.4834335151v-5.2240170466l-2.8344342425-2.8368049319v-11.5911872195h2.8344342425v-3.6874444372h-.0648312414l.0648312414-.064831243v-5.3867651113l-2.7549670134,2.7538333093v-10.4709157082l-9.3125079364-9.3125081716h-33.7988246117l-9.3125079363,9.3125081716v10.4861701183L217.1908141124,0h-5.3877956786l-17.0360835715,17.0295905705v5.3867651113l19.7338465484-19.7262301489,19.7910505849,19.7910613919ZM236.9024034586,71.1385293466h-11.5911929171l-8.9847387969-8.9848475649v-11.5911872195h11.5910783857l8.9848533284,8.9849506352v11.5910841492ZM261.2167928229,95.4095327029h-11.5988141316l-8.9847442676-8.9923716996v-11.5910841492h11.5910838564l8.9924745428,8.9847444945v11.5987113542ZM285.6031384929,86.4171610033l-8.9848545587,8.9923716996h-11.5910771554v-11.5987113542l8.9847375666-8.9847444945h11.5911941474v11.5910841492ZM282.9925657996,71.1385293466h-10.4709154437l-9.3201351412,9.3201353767-9.3125079364-9.3201353767h-10.4861698534l19.7986777898-19.7910510849,19.7910505849,19.7910510849ZM265.0272067789,1.9051418335h11.5910771554l8.9848545587,8.9848578719v11.5911872195h-11.5911941474l-8.9847375666-8.9849506352V1.9051418335ZM272.5216503559,26.1686313621h10.4709154437l-19.7910505849,19.7910510849-19.7910505849-19.7910510849h10.4785426486l9.3125079364-9.3126112419,9.3201351412,9.3126112419ZM240.6332344237,10.8899997054l8.9847442676-8.9848578719h11.5988141316v11.5910944562l-8.9924745428,8.9849506352h-11.5910838564v-11.5911872195ZM240.7127016529,39.337207045v-10.4784398429l19.7910505849,19.7986782899-19.7910505849,19.7833208095v-10.4709157082l-9.3125079363-9.3124051013,9.3125079363-9.320238447ZM236.9024034586,37.7598185816l-8.9848533284,8.9923716996h-11.5910783857v-11.5987113542l8.9847387969-8.9848475649h11.5911929171v11.5911872195Z"/>
        <path class="cls-22" d="M234.2918319956,119.7959748386h-10.4709154437l-9.3201351412,9.3200323063-9.3125079363-9.3200323063h-10.421338612v3.6874444372h8.7566496138l8.9924745428,8.9848475649v11.5987113543h-11.5988141316l-6.150310025-6.1555667677v5.2240170465l2.8344342426,2.836804932-2.8344342426,2.8344343142v5.221131077l6.150310025-6.1505163211h11.5988141316v11.5911872195l-8.9924745428,8.9848475649h-8.7566496138v3.6875475076h10.421338612l9.3125079363-9.312611242,9.3201351412,9.312611242h10.4709154437l-19.7910505849,19.7909480145-19.7338465484-19.7338470469v5.3889295884l17.0360835715,17.0426805035h5.3877956786l19.7987808601-19.79867829v10.478439843l9.3125079363,9.320238447h33.7988246117l9.3125079364-9.320238447v-10.478439843l2.7549670134,2.7559977864v-5.3889295884l-.0572040365-.0571009676h.0572040365v-3.6875475076h-2.8344342425v-11.5910841492l2.8344342425-2.8344343142v-5.221131077l-6.4780736938,6.4779707871v10.4861701184l-19.7987808601-19.7985752196,19.7987808601-19.79867829v10.478439843l6.4780736938,6.483433515v-5.2240170465l-2.8344342425-2.8368049319v-11.5911872195h2.8344342425v-3.6874444372h-.0648312414l.0648312414-.0648312431v-5.3867651113l-2.7549670134,2.7538333093v-10.4709157082l-9.3125079364-9.3125081716h-33.7988246117l-9.3125079363,9.3125081716v10.4861701183l-19.7987808601-19.7986782899h-5.3877956786l-17.0360835715,17.0295905705v5.3867651113l19.7338465484-19.7262198419,19.7910505849,19.7910510849ZM236.9024034586,168.4533172603h-11.5911929171l-8.9847387969-8.9848475649v-11.5911872195h11.5910783857l8.9848533284,8.9849506352v11.5910841492ZM261.2167928229,192.7243206167h-11.5988141316l-8.9847442676-8.9923716996v-11.5910841492h11.5910838564l8.9924745428,8.9847444945v11.5987113542ZM285.6031384929,183.7319489171l-8.9848545587,8.9923716996h-11.5910771554v-11.5987113542l8.9847375666-8.9847444945h11.5911941474v11.5910841492ZM282.9925657996,168.4533172603h-10.4709154437l-9.3201351412,9.3201353767-9.3125079364-9.3201353767h-10.4861698534l19.7986777898-19.7910510849,19.7910505849,19.7910510849ZM265.0272067789,99.2199400542h11.5910771554l8.9848545587,8.9848475649v11.5911872195h-11.5911941474l-8.9847375666-8.9849506352v-11.5910841492ZM272.5216503559,123.4834192759h10.4709154437l-19.7910505849,19.7910510849-19.7910505849-19.7910510849h10.4785426486l9.3125079364-9.3126112419,9.3201351412,9.3126112419ZM240.6332344237,108.2047876191l8.9847442676-8.9848475649h11.5988141316v11.5910841492l-8.9924745428,8.9849506352h-11.5910838564v-11.5911872195ZM240.7127016529,136.6519949588v-10.478439843l19.7910505849,19.79867829-19.7910505849,19.7833208095v-10.4709157082l-9.3125079363-9.3124051013,9.3125079363-9.320238447ZM236.9024034586,135.0746064954l-8.9848533284,8.9923716996h-11.5910783857v-11.5987113543l8.9847387969-8.9848475649h11.5911929171v11.5911872195Z"/>
        <path class="cls-40" d="M234.2918319956,217.1107627524h-10.4709154437l-9.3201351412,9.3200323063-9.3125079363-9.3200323063h-10.421338612v3.6874444372h8.7566496138l8.9924745428,8.9848475649v11.5987113542h-11.5988141316l-6.150310025-6.1555667676v5.2240170465l2.8344342426,2.836804932-2.8344342426,2.8344343141v5.221131077l6.150310025-6.1505163211h11.5988141316v11.5911872195l-8.9924745428,8.9848475649h-8.7566496138v3.6875475075h10.421338612l9.3125079363-9.3126112419,9.3201351412,9.3126112419h10.4709154437l-19.7910505849,19.7909480145-19.7338465484-19.7338470469v5.3889295884l17.0360835715,17.0426805036h5.3877956786l19.7987808601-19.79867829v10.478439843l9.3125079363,9.320238447h33.7988246117l9.3125079364-9.320238447v-10.478439843l2.7549670134,2.7559977864v-5.3889295884l-.0572040365-.0571009677h.0572040365v-3.6875475075h-2.8344342425v-11.5910841492l2.8344342425-2.8344343142v-5.221131077l-6.4780736938,6.4779707871v10.4861701183l-19.7987808601-19.7985752196,19.7987808601-19.79867829v10.478439843l6.4780736938,6.483433515v-5.2240170465l-2.8344342425-2.836804932v-11.5911872195h2.8344342425v-3.6874444372h-.0648312414l.0648312414-.0648312431v-5.3867651113l-2.7549670134,2.7538333093v-10.4709157082l-9.3125079364-9.3125081716h-33.7988246117l-9.3125079363,9.3125081716v10.4861701183l-19.7987808601-19.7986782899h-5.3877956786l-17.0360835715,17.0295905705v5.3867651113l19.7338465484-19.7262198419,19.7910505849,19.7910510849ZM236.9024034586,265.7681051741h-11.5911929171l-8.9847387969-8.9848475649v-11.5911872195h11.5910783857l8.9848533284,8.9849506352v11.5910841492ZM261.2167928229,290.0391085305h-11.5988141316l-8.9847442676-8.9923716996v-11.5910841492h11.5910838564l8.9924745428,8.9847444945v11.5987113543ZM285.6031384929,281.0467368308l-8.9848545587,8.9923716996h-11.5910771554v-11.5987113543l8.9847375666-8.9847444945h11.5911941474v11.5910841492ZM282.9925657996,265.7681051741h-10.4709154437l-9.3201351412,9.3201353767-9.3125079364-9.3201353767h-10.4861698534l19.7986777898-19.7910510849,19.7910505849,19.7910510849ZM265.0272067789,196.534727968h11.5910771554l8.9848545587,8.9848475649v11.5911872195h-11.5911941474l-8.9847375666-8.9849506352v-11.5910841492ZM272.5216503559,220.7982071896h10.4709154437l-19.7910505849,19.7910510849-19.7910505849-19.7910510849h10.4785426486l9.3125079364-9.312611242,9.3201351412,9.312611242ZM240.6332344237,205.5195755329l8.9847442676-8.9848475649h11.5988141316v11.5910841492l-8.9924745428,8.9849506352h-11.5910838564v-11.5911872195ZM240.7127016529,233.9667828726v-10.478439843l19.7910505849,19.79867829-19.7910505849,19.7833208095v-10.4709157082l-9.3125079363-9.3124051013,9.3125079363-9.320238447ZM236.9024034586,232.3893944091l-8.9848533284,8.9923716996h-11.5910783857v-11.5987113542l8.9847387969-8.9848475649h11.5911929171v11.5911872195Z"/>
        <path class="cls-23" d="M292.1684024703,314.3607194231v-5.3867651113l-2.7549670134,2.7538333093v-10.4709157082l-9.3125079364-9.3125081716h-33.7988246117l-9.3125079363,9.3125081716v10.4861701184l-19.7987808601-19.7986782899h-5.3877956786l-17.0360835715,17.0295905705v5.3867651113l19.7338465484-19.7262198418,19.7910505849,19.7910510849h-10.4709154437l-9.3201351412,9.3200323063-9.3125079363-9.3200323063h-10.421338612v3.6874444372h8.7566496138l8.9924745428,8.9848475649v11.5987113542h-11.5988141316l-6.150310025-6.1555667676v5.2240170465l2.8344342426,2.8368049319-2.8344342426,2.8344343142v5.221131077l6.150310025-6.1505163211h11.5988141316v11.5911872195l-8.9924745428,8.9848475649h-8.7566496138v3.6875475075h10.421338612l9.3125079363-9.312611242,9.3201351412,9.312611242h10.4709154437l-19.7910505849,19.7909480145-19.7338465484-19.7338470469v5.3889295884l17.0360835715,17.0426805035h5.3877956786l19.7987808601-19.7986782899v10.478439843l9.3125079363,9.320238447h33.7988246117l9.3125079364-9.320238447v-10.478439843l2.7549670134,2.7559977864v-5.3889295884l-.0572040365-.0571009676h.0572040365v-3.6875475075h-2.8344342425v-11.5910841492l2.8344342425-2.8344343141v-5.221131077l-6.4780736938,6.4779707871v10.4861701184l-19.7987808601-19.7985752196,19.7987808601-19.7986782899v10.4784398429l6.4780736938,6.4834335151v-5.2240170465l-2.8344342425-2.836804932v-11.5911872195h2.8344342425v-3.6874444372h-.0648312414l.0648312414-.064831243ZM240.6332344237,302.8343634466l8.9847442676-8.9848475649h11.5988141316v11.5910841492l-8.9924745428,8.9849506352h-11.5910838564v-11.5911872195ZM216.3264717446,327.0978426682l8.9847387969-8.9848475649h11.5911929171v11.5911872195l-8.9848533284,8.9923716996h-11.5910783857v-11.5987113542ZM236.9024034586,363.0828930878h-11.5911929171l-8.9847387969-8.9848475649v-11.5911872195h11.5910783857l8.9848533284,8.9849506352v11.5910841492ZM231.4001937165,340.6018092333l9.3125079363-9.320238447v-10.4784398429l19.7910505849,19.7986782899-19.7910505849,19.7833208095v-10.4709157082l-9.3125079363-9.3124051013ZM261.2167928229,387.3538964442h-11.5988141316l-8.9847442676-8.9923716996v-11.5910841492h11.5910838564l8.9924745428,8.9847444945v11.5987113542ZM285.6031384929,378.3615247446l-8.9848545587,8.9923716996h-11.5910771554v-11.5987113542l8.9847375666-8.9847444945h11.5911941474v11.5910841492ZM282.9925657996,363.0828930878h-10.4709154437l-9.3201351412,9.3201353767-9.3125079364-9.3201353767h-10.4861698534l19.7986777898-19.7910510849,19.7910505849,19.7910510849ZM263.2015152147,337.9040461882l-19.7910505849-19.7910510849h10.4785426486l9.3125079364-9.312611242,9.3201351412,9.312611242h10.4709154437l-19.7910505849,19.7910510849ZM285.6031384929,314.4255506661h-11.5911941474l-8.9847375666-8.9849506352v-11.5910841492h11.5910771554l8.9848545587,8.9848475649v11.5911872195Z"/>
        <polygon class="cls-5" points="194.7669348623 411.7403385799 194.7669348623 412.2813547877 205.7288773871 412.2813547877 205.1882734743 411.7403385799 194.7669348623 411.7403385799"/>
        <path class="cls-13" d="M292.1684024703,411.6755073369v-5.3867651113l-2.7549670134,2.7538333093v-10.4709157082l-9.3125079364-9.3125081716h-33.7988246117l-9.3125079363,9.3125081716v10.4861701183l-19.7987808601-19.79867829h-5.3877956786l-17.0360835715,17.0295905705v5.3867651113l19.7338465484-19.7262198419,19.7910505849,19.7910510849h-10.4709154437l-.5410161942.5410162078h33.7554320002l6.1661828568-6.1661830125,6.1712333032,6.1661830125h22.7956539524v-.5410162078h-.0648312414l.0648312414-.064831243ZM261.2167928229,402.7553879446l-8.9924745428,8.9849506352h-11.5910838564v-11.5911872195l8.9847442676-8.9848475649h11.5988141316v11.5910841492ZM285.6031384929,411.7403385799h-11.5911941474l-8.9847375666-8.9849506352v-11.5910841492h11.5910771554l8.9848545587,8.9848475649v11.5911872195Z"/>
        <path class="cls-9" d="M136.8255331462,22.4811869249h-10.4709154437l-9.3201351413,9.3200323063-9.3125079363-9.3200323063h-10.4213361482v3.6874444372h8.75664715l8.9924745428,8.9848475649v11.5987113542h-11.598708442l-6.1504132507-6.1555667677v5.2240170466l2.8344343142,2.8368049319-2.8344343142,2.8344343141v5.221131077l6.1504132507-6.150516321h11.598708442v11.5911872195l-8.9924745428,8.9848475649h-8.75664715v3.6875475076h10.4213361482l9.3125079363-9.3126112419,9.3201351413,9.3126112419h10.4709154437l-19.7910505849,19.7909480145-19.7338440845-19.7338470469v5.3889295884l17.0360811076,17.0426805035h5.3877956786l19.7987808601-19.7986782899v10.4785429133l9.3125079363,9.3201353767h33.7988246117l9.3125079364-9.3201353767v-10.4785429133l2.7549670134,2.7559977864v-5.3889295884l-.0572040365-.0571009676h.0572040365v-3.6875475076h-2.8344342426v-11.5910841492l2.8344342426-2.8344343142v-5.221131077l-6.4780736938,6.4779707871v10.4861701184l-19.7987808601-19.7985752196,19.7987808601-19.7986782899v10.4784398429l6.4780736938,6.4834335151v-5.2240170466l-2.8344342426-2.8368049319v-11.5911872195h2.8344342426v-3.6874444372h-.0648312414l.0648312414-.064831243v-5.3867651113l-2.7549670134,2.7538333093v-10.4709157082l-9.3125079364-9.3125081716h-33.7988246117l-9.3125079363,9.3125081716v10.4861701183L119.7245152629,0h-5.3877956786l-17.0360811076,17.0295905705v5.3867651113L117.0344825612,2.690125533l19.7910505849,19.7910613919ZM139.4360986188,71.1385293466h-11.5911869267l-8.9847442676-8.9848475649v-11.5911872195h11.5910838563l8.9848473379,8.9849506352v11.5910841492ZM163.7504939734,95.4095327029h-11.5988141315l-8.9847442676-8.9923716996v-11.5910841492h11.5910838564l8.9924745428,8.9847444945v11.5987113542ZM188.1368324228,86.4171610033l-8.9848473379,8.9923716996h-11.5910838564v-11.5987113542l8.9847442676-8.9847444945h11.5911869267v11.5910841492ZM185.5262669502,71.1385293466h-10.4709154437l-9.3201351412,9.3201353767-9.3125079363-9.3201353767h-10.4861698534l19.7986777898-19.7910510849,19.7910505849,19.7910510849ZM167.5609012285,1.9051418335h11.5910838564l8.9848473379,8.9848578719v11.5911872195h-11.5911869267l-8.9847442676-8.9849506352V1.9051418335ZM175.0553515065,26.1686313621h10.4709154437l-19.7910505849,19.7910510849-19.7910505849-19.7910510849h10.4785426486l9.3125079363-9.3126112419,9.3201351412,9.3126112419ZM143.1669355743,10.8899997054l8.9847442676-8.9848578719h11.5988141315v11.5910944562l-8.9924745428,8.9849506352h-11.5910838564v-11.5911872195ZM143.2464028034,39.337207045v-10.4784398429l19.7910505849,19.7986782899-19.7910505849,19.7833208095v-10.4709157082l-9.3125079363-9.3124051013,9.3125079363-9.320238447ZM139.4360986188,37.7598185816l-8.9848473379,8.9923716996h-11.5910838563v-11.5987113542l8.9847442676-8.9848475649h11.5911869267v11.5911872195Z"/>
        <path class="cls-3" d="M136.8255331462,119.7959748386h-10.4709154437l-9.3201351413,9.3200323063-9.3125079363-9.3200323063h-10.4213361482v3.6874444372h8.75664715l8.9924745428,8.9848475649v11.5987113543h-11.598708442l-6.1504132507-6.1555667677v5.2240170465l2.8344343142,2.836804932-2.8344343142,2.8344343142v5.221131077l6.1504132507-6.1505163211h11.598708442v11.5911872195l-8.9924745428,8.9848475649h-8.75664715v3.6875475076h10.4213361482l9.3125079363-9.312611242,9.3201351413,9.312611242h10.4709154437l-19.7910505849,19.7909480145-19.7338440845-19.7338470469v5.3889295884l17.0360811076,17.0426805035h5.3877956786l19.7987808601-19.79867829v10.478439843l9.3125079363,9.320238447h33.7988246117l9.3125079364-9.320238447v-10.478439843l2.7549670134,2.7559977864v-5.3889295884l-.0572040365-.0571009676h.0572040365v-3.6875475076h-2.8344342426v-11.5910841492l2.8344342426-2.8344343142v-5.221131077l-6.4780736938,6.4779707871v10.4861701184l-19.7987808601-19.7985752196,19.7987808601-19.79867829v10.478439843l6.4780736938,6.483433515v-5.2240170465l-2.8344342426-2.8368049319v-11.5911872195h2.8344342426v-3.6874444372h-.0648312414l.0648312414-.0648312431v-5.3867651113l-2.7549670134,2.7538333093v-10.4709157082l-9.3125079364-9.3125081716h-33.7988246117l-9.3125079363,9.3125081716v10.4861701183l-19.7987808601-19.7986782899h-5.3877956786l-17.0360811076,17.0295905705v5.3867651113l19.7338440845-19.7262198419,19.7910505849,19.7910510849ZM139.4360986188,168.4533172603h-11.5911869267l-8.9847442676-8.9848475649v-11.5911872195h11.5910838563l8.9848473379,8.9849506352v11.5910841492ZM163.7504939734,192.7243206167h-11.5988141315l-8.9847442676-8.9923716996v-11.5910841492h11.5910838564l8.9924745428,8.9847444945v11.5987113542ZM188.1368324228,183.7319489171l-8.9848473379,8.9923716996h-11.5910838564v-11.5987113542l8.9847442676-8.9847444945h11.5911869267v11.5910841492ZM185.5262669502,168.4533172603h-10.4709154437l-9.3201351412,9.3201353767-9.3125079363-9.3201353767h-10.4861698534l19.7986777898-19.7910510849,19.7910505849,19.7910510849ZM167.5609012285,99.2199400542h11.5910838564l8.9848473379,8.9848475649v11.5911872195h-11.5911869267l-8.9847442676-8.9849506352v-11.5910841492ZM175.0553515065,123.4834192759h10.4709154437l-19.7910505849,19.7910510849-19.7910505849-19.7910510849h10.4785426486l9.3125079363-9.3126112419,9.3201351412,9.3126112419ZM143.1669355743,108.2047876191l8.9847442676-8.9848475649h11.5988141315v11.5910841492l-8.9924745428,8.9849506352h-11.5910838564v-11.5911872195ZM143.2464028034,136.6519949588v-10.478439843l19.7910505849,19.79867829-19.7910505849,19.7833208095v-10.4709157082l-9.3125079363-9.3124051013,9.3125079363-9.320238447ZM139.4360986188,135.0746064954l-8.9848473379,8.9923716996h-11.5910838563v-11.5987113543l8.9847442676-8.9848475649h11.5911869267v11.5911872195Z"/>
        <path class="cls-27" d="M119.7245152629,291.9443637413l19.7987808601-19.79867829v10.478439843l9.3125079363,9.320238447h33.7988246117l9.3125079364-9.320238447v-10.478439843l2.7549670134,2.7559977864v-5.3889295884l-.0572040365-.0571009677h.0572040365v-3.6875475075h-2.8344342426v-11.5910841492l2.8344342426-2.8344343142v-5.221131077l-6.4780736938,6.4779707871v10.4861701183l-19.7987808601-19.7985752196,19.7987808601-19.79867829v10.478439843l6.4780736938,6.483433515v-5.2240170465l-2.8344342426-2.836804932v-11.5911872195h2.8344342426v-3.6874444372h-.0648312414l.0648312414-.0648312431v-5.3867651113l-2.7549670134,2.7538333093v-10.4709157082l-9.3125079364-9.3125081716h-33.7988246117l-9.3125079363,9.3125081716v10.4861701183l-19.7987808601-19.7986782899h-5.3877956786l-17.0360811076,17.0295905705v5.3867651113l19.7338440845-19.7262198419,19.7910505849,19.7910510849h-10.4709154437l-9.3201351413,9.3200323063-9.3125079363-9.3200323063h-10.4213361482v3.6874444372h8.75664715l8.9924745428,8.9848475649v11.5987113542h-11.598708442l-6.1504132507-6.1555667676v5.2240170465l2.8344343142,2.836804932-2.8344343142,2.8344343141v5.221131077l6.1504132507-6.1505163211h11.598708442v11.5911872195l-8.9924745428,8.9848475649h-8.75664715v3.6875475075h10.4213361482l9.3125079363-9.3126112419,9.3201351413,9.3126112419h10.4709154437l-19.7910505849,19.7909480145-19.7338440845-19.7338470469v5.3889295884l17.0360811076,17.0426805036h5.3877956786ZM163.7504939734,290.0391085305h-11.5988141315l-8.9847442676-8.9923716996v-11.5910841492h11.5910838564l8.9924745428,8.9847444945v11.5987113543ZM188.1368324228,281.0467368308l-8.9848473379,8.9923716996h-11.5910838564v-11.5987113543l8.9847442676-8.9847444945h11.5911869267v11.5910841492ZM185.5262669502,265.7681051741h-10.4709154437l-9.3201351412,9.3201353767-9.3125079363-9.3201353767h-10.4861698534l19.7986777898-19.7910510849,19.7910505849,19.7910510849ZM167.5609012285,196.534727968h11.5910838564l8.9848473379,8.9848475649v11.5911872195h-11.5911869267l-8.9847442676-8.9849506352v-11.5910841492ZM175.0553515065,220.7982071896h10.4709154437l-19.7910505849,19.7910510849-19.7910505849-19.7910510849h10.4785426486l9.3125079363-9.312611242,9.3201351412,9.312611242ZM143.1669355743,205.5195755329l8.9847442676-8.9848475649h11.5988141315v11.5910841492l-8.9924745428,8.9849506352h-11.5910838564v-11.5911872195ZM143.2464028034,233.9667828726v-10.478439843l19.7910505849,19.79867829-19.7910505849,19.7833208095v-10.4709157082l-9.3125079363-9.3124051013,9.3125079363-9.320238447ZM118.8601674245,229.7830547545l8.9847442676-8.9848475649h11.5911869267v11.5911872195l-8.9848473379,8.9923716996h-11.5910838563v-11.5987113542ZM127.8449116921,265.7681051741l-8.9847442676-8.9848475649v-11.5911872195h11.5910838563l8.9848473379,8.9849506352v11.5910841492h-11.5911869267Z"/>
        <path class="cls-17" d="M194.7021036209,314.3607194231v-5.3867651113l-2.7549670134,2.7538333093v-10.4709157082l-9.3125079364-9.3125081716h-33.7988246117l-9.3125079363,9.3125081716v10.4861701184l-19.7987808601-19.7986782899h-5.3877956786l-17.0360811076,17.0295905705v5.3867651113l19.7338440845-19.7262198418,19.7910505849,19.7910510849h-10.4709154437l-9.3201351413,9.3200323063-9.3125079363-9.3200323063h-10.4213361482v3.6874444372h8.75664715l8.9924745428,8.9848475649v11.5987113542h-11.598708442l-6.1504132507-6.1555667676v5.2240170465l2.8344343142,2.8368049319-2.8344343142,2.8344343142v5.221131077l6.1504132507-6.1505163211h11.598708442v11.5911872195l-8.9924745428,8.9848475649h-8.75664715v3.6875475075h10.4213361482l9.3125079363-9.312611242,9.3201351413,9.312611242h10.4709154437l-19.7910505849,19.7909480145-19.7338440845-19.7338470469v5.3889295884l17.0360811076,17.0426805035h5.3877956786l19.7987808601-19.7986782899v10.478439843l9.3125079363,9.320238447h33.7988246117l9.3125079364-9.320238447v-10.478439843l2.7549670134,2.7559977864v-5.3889295884l-.0572040365-.0571009676h.0572040365v-3.6875475075h-2.8344342426v-11.5910841492l2.8344342426-2.8344343141v-5.221131077l-6.4780736938,6.4779707871v10.4861701184l-19.7987808601-19.7985752196,19.7987808601-19.7986782899v10.4784398429l6.4780736938,6.4834335151v-5.2240170465l-2.8344342426-2.836804932v-11.5911872195h2.8344342426v-3.6874444372h-.0648312414l.0648312414-.064831243ZM143.1669355743,302.8343634466l8.9847442676-8.9848475649h11.5988141315v11.5910841492l-8.9924745428,8.9849506352h-11.5910838564v-11.5911872195ZM118.8601674245,327.0978426682l8.9847442676-8.9848475649h11.5911869267v11.5911872195l-8.9848473379,8.9923716996h-11.5910838563v-11.5987113542ZM139.4360986188,363.0828930878h-11.5911869267l-8.9847442676-8.9848475649v-11.5911872195h11.5910838563l8.9848473379,8.9849506352v11.5910841492ZM133.9338948671,340.6018092333l9.3125079363-9.320238447v-10.4784398429l19.7910505849,19.7986782899-19.7910505849,19.7833208095v-10.4709157082l-9.3125079363-9.3124051013ZM163.7504939734,387.3538964442h-11.5988141315l-8.9847442676-8.9923716996v-11.5910841492h11.5910838564l8.9924745428,8.9847444945v11.5987113542ZM188.1368324228,378.3615247446l-8.9848473379,8.9923716996h-11.5910838564v-11.5987113542l8.9847442676-8.9847444945h11.5911869267v11.5910841492ZM185.5262669502,363.0828930878h-10.4709154437l-9.3201351412,9.3201353767-9.3125079363-9.3201353767h-10.4861698534l19.7986777898-19.7910510849,19.7910505849,19.7910510849ZM165.7352163653,337.9040461882l-19.7910505849-19.7910510849h10.4785426486l9.3125079363-9.312611242,9.3201351412,9.312611242h10.4709154437l-19.7910505849,19.7910510849ZM188.1368324228,314.4255506661h-11.5911869267l-8.9847442676-8.9849506352v-11.5910841492h11.5910838564l8.9848473379,8.9848475649v11.5911872195Z"/>
        <path class="cls-41" d="M194.7021036209,411.6755073369v-5.3867651113l-2.7549670134,2.7538333093v-10.4709157082l-9.3125079364-9.3125081716h-33.7988246117l-9.3125079363,9.3125081716v10.4861701183l-19.7987808601-19.79867829h-5.3877956786l-17.0360811076,17.0295905705v5.3867651113l19.7338440845-19.7262198419,19.7910505849,19.7910510849h-10.4709154437l-.5410161942.5410162078h33.7554320002l6.1661828568-6.1661830125,6.1712333032,6.1661830125h22.7956539524v-.5410162078h-.0648312414l.0648312414-.064831243ZM163.7504939734,402.7553879446l-8.9924745428,8.9849506352h-11.5910838564v-11.5911872195l8.9847442676-8.9848475649h11.5988141315v11.5910841492ZM188.1368324228,411.7403385799h-11.5911869267l-8.9847442676-8.9849506352v-11.5910841492h11.5910838564l8.9848473379,8.9848475649v11.5911872195Z"/>
        <polygon class="cls-37" points="97.3006384767 411.7403385799 97.3006384767 412.2813547877 108.2625785377 412.2813547877 107.7219746249 411.7403385799 97.3006384767 411.7403385799"/>
        <path class="cls-24" d="M22.2582169817,97.3147879138l19.7987813603-19.7986782899v10.4785429133l9.3125081716,9.3201353767h33.7988254655l9.3125081716-9.3201353767v-10.4785429133l2.754967083,2.7559977864v-5.3889295884l-.057204038-.0571009676h.057204038v-3.6875475076h-2.8344343142v-11.5910841492l2.8344343142-2.8344343142v-5.221131077l-6.4780738574,6.4779707871v10.4861701184l-19.7987813603-19.7985752196,19.7987813603-19.7986782899v10.4784398429l6.4780738574,6.4834335151v-5.2240170466l-2.8344343142-2.8368049319v-11.5911872195h2.8344343142v-3.6874444372h-.064831243l.064831243-.064831243v-5.3867651113l-2.754967083,2.7538333093v-10.4709157082L85.168331979,0h-33.7988254655l-9.3125081716,9.3125081716v10.4861701183L22.2582169817,0h-5.3877958147L-.1656978788,17.0295905705v5.3867651113L19.568184212,2.690125533l19.7910510849,19.7910613919h-10.4709157082l-9.3201353767,9.3200323063-9.3125081716-9.3200323063H-.1656978788v3.6874444372h8.756705493l8.9924541559,8.9848475649v11.5987113542H5.9846782665L-.1656978788,40.5966235136v5.2240170466l2.834438437,2.8368049319-2.834438437,2.8344343141v5.221131077l6.1503761454-6.150516321h11.5987835035v11.5911872195l-8.9924541559,8.9848475649H-.1656978788v3.6875475076h10.4213739192l9.3125081716-9.3126112419,9.3201353767,9.3126112419h10.4709157082l-19.7910510849,19.7909480145L-.1656978788,74.8831778218v5.3889295884l17.0361190458,17.0426805035h5.3877958147ZM66.2841968043,95.4095327029h-11.5988144246l-8.9847444945-8.9923716996v-11.5910841492h11.5910841492l8.9924747699,8.9847444945v11.5987113542ZM90.6705358697,86.4171610033l-8.9848475649,8.9923716996h-11.5910841492v-11.5987113542l8.9847444945-8.9847444945h11.5911872195v11.5910841492ZM88.0599703312,71.1385293466h-10.4709157082l-9.3201353767,9.3201353767-9.3125081716-9.3201353767h-10.4861701183l19.79867829-19.7910510849,19.7910510849,19.7910510849ZM70.0946041556,1.9051418335h11.5910841492l8.9848475649,8.9848578719v11.5911872195h-11.5911872195l-8.9847444945-8.9849506352V1.9051418335ZM77.589054623,26.1686313621h10.4709157082l-19.7910510849,19.7910510849-19.7910510849-19.7910510849h10.4785429133l9.3125081716-9.3126112419,9.3201353767,9.3126112419ZM45.7006378852,10.8899997054L54.6853823798,1.9051418335h11.5988144246v11.5910944562l-8.9924747699,8.9849506352h-11.5910841492v-11.5911872195ZM45.7801051163,39.337207045v-10.4784398429l19.7910510849,19.7986782899-19.7910510849,19.7833208095v-10.4709157082l-9.3125081716-9.3124051013,9.3125081716-9.320238447ZM21.3938691213,35.153478927l8.9847444945-8.9848475649h11.5911872195v11.5911872195l-8.9848475649,8.9923716996h-11.5910841492v-11.5987113542ZM30.3786136159,71.1385293466l-8.9847444945-8.9848475649v-11.5911872195h11.5910841492l8.9848475649,8.9849506352v11.5910841492h-11.5911872195Z"/>
        <path class="cls-19" d="M22.2582169817,194.6295758275l19.7987813603-19.79867829v10.478439843l9.3125081716,9.320238447h33.7988254655l9.3125081716-9.320238447v-10.478439843l2.754967083,2.7559977864v-5.3889295884l-.057204038-.0571009676h.057204038v-3.6875475076h-2.8344343142v-11.5910841492l2.8344343142-2.8344343142v-5.221131077l-6.4780738574,6.4779707871v10.4861701184l-19.7987813603-19.7985752196,19.7987813603-19.79867829v10.478439843l6.4780738574,6.483433515v-5.2240170465l-2.8344343142-2.8368049319v-11.5911872195h2.8344343142v-3.6874444372h-.064831243l.064831243-.0648312431v-5.3867651113l-2.754967083,2.7538333093v-10.4709157082l-9.3125081716-9.3125081716h-33.7988254655l-9.3125081716,9.3125081716v10.4861701183l-19.7987813603-19.7986782899h-5.3877958147L-.1656978788,114.3443784843v5.3867651113l19.7338820908-19.7262198419,19.7910510849,19.7910510849h-10.4709157082l-9.3201353767,9.3200323063-9.3125081716-9.3200323063H-.1656978788v3.6874444372h8.756705493l8.9924541559,8.9848475649v11.5987113543H5.9846782665l-6.1503761454-6.1555667677v5.2240170465l2.834438437,2.836804932-2.834438437,2.8344343142v5.221131077l6.1503761454-6.1505163211h11.5987835035v11.5911872195l-8.9924541559,8.9848475649H-.1656978788v3.6875475076h10.4213739192l9.3125081716-9.312611242,9.3201353767,9.312611242h10.4709157082l-19.7910510849,19.7909480145L-.1656978788,172.1979657355v5.3889295884l17.0361190458,17.0426805035h5.3877958147ZM66.2841968043,192.7243206167h-11.5988144246l-8.9847444945-8.9923716996v-11.5910841492h11.5910841492l8.9924747699,8.9847444945v11.5987113542ZM90.6705358697,183.7319489171l-8.9848475649,8.9923716996h-11.5910841492v-11.5987113542l8.9847444945-8.9847444945h11.5911872195v11.5910841492ZM88.0599703312,168.4533172603h-10.4709157082l-9.3201353767,9.3201353767-9.3125081716-9.3201353767h-10.4861701183l19.79867829-19.7910510849,19.7910510849,19.7910510849ZM70.0946041556,99.2199400542h11.5910841492l8.9848475649,8.9848475649v11.5911872195h-11.5911872195l-8.9847444945-8.9849506352v-11.5910841492ZM77.589054623,123.4834192759h10.4709157082l-19.7910510849,19.7910510849-19.7910510849-19.7910510849h10.4785429133l9.3125081716-9.3126112419,9.3201353767,9.3126112419ZM45.7006378852,108.2047876191l8.9847444945-8.9848475649h11.5988144246v11.5910841492l-8.9924747699,8.9849506352h-11.5910841492v-11.5911872195ZM45.7801051163,136.6519949588v-10.478439843l19.7910510849,19.79867829-19.7910510849,19.7833208095v-10.4709157082l-9.3125081716-9.3124051013,9.3125081716-9.320238447ZM21.3938691213,132.4682668407l8.9847444945-8.9848475649h11.5911872195v11.5911872195l-8.9848475649,8.9923716996h-11.5910841492v-11.5987113543ZM30.3786136159,168.4533172603l-8.9847444945-8.9848475649v-11.5911872195h11.5910841492l8.9848475649,8.9849506352v11.5910841492h-11.5911872195Z"/>
        <path class="cls-16" d="M22.2582169817,291.9443637413l19.7987813603-19.79867829v10.478439843l9.3125081716,9.320238447h33.7988254655l9.3125081716-9.320238447v-10.478439843l2.754967083,2.7559977864v-5.3889295884l-.057204038-.0571009677h.057204038v-3.6875475075h-2.8344343142v-11.5910841492l2.8344343142-2.8344343142v-5.221131077l-6.4780738574,6.4779707871v10.4861701183l-19.7987813603-19.7985752196,19.7987813603-19.79867829v10.478439843l6.4780738574,6.483433515v-5.2240170465l-2.8344343142-2.836804932v-11.5911872195h2.8344343142v-3.6874444372h-.064831243l.064831243-.0648312431v-5.3867651113l-2.754967083,2.7538333093v-10.4709157082l-9.3125081716-9.3125081716h-33.7988254655l-9.3125081716,9.3125081716v10.4861701183l-19.7987813603-19.7986782899h-5.3877958147L-.1656978788,211.659166398v5.3867651113l19.7338820908-19.7262198419,19.7910510849,19.7910510849h-10.4709157082l-9.3201353767,9.3200323063-9.3125081716-9.3200323063H-.1656978788v3.6874444372h8.756705493l8.9924541559,8.9848475649v11.5987113542H5.9846782665l-6.1503761454-6.1555667676v5.2240170465l2.834438437,2.836804932-2.834438437,2.8344343141v5.221131077l6.1503761454-6.1505163211h11.5987835035v11.5911872195l-8.9924541559,8.9848475649H-.1656978788v3.6875475075h10.4213739192l9.3125081716-9.3126112419,9.3201353767,9.3126112419h10.4709157082l-19.7910510849,19.7909480145L-.1656978788,269.5127536493v5.3889295884l17.0361190458,17.0426805036h5.3877958147ZM66.2841968043,290.0391085305h-11.5988144246l-8.9847444945-8.9923716996v-11.5910841492h11.5910841492l8.9924747699,8.9847444945v11.5987113543ZM90.6705358697,281.0467368308l-8.9848475649,8.9923716996h-11.5910841492v-11.5987113543l8.9847444945-8.9847444945h11.5911872195v11.5910841492ZM88.0599703312,265.7681051741h-10.4709157082l-9.3201353767,9.3201353767-9.3125081716-9.3201353767h-10.4861701183l19.79867829-19.7910510849,19.7910510849,19.7910510849ZM70.0946041556,196.534727968h11.5910841492l8.9848475649,8.9848475649v11.5911872195h-11.5911872195l-8.9847444945-8.9849506352v-11.5910841492ZM77.589054623,220.7982071896h10.4709157082l-19.7910510849,19.7910510849-19.7910510849-19.7910510849h10.4785429133l9.3125081716-9.312611242,9.3201353767,9.312611242ZM45.7006378852,205.5195755329l8.9847444945-8.9848475649h11.5988144246v11.5910841492l-8.9924747699,8.9849506352h-11.5910841492v-11.5911872195ZM45.7801051163,233.9667828726v-10.478439843l19.7910510849,19.79867829-19.7910510849,19.7833208095v-10.4709157082l-9.3125081716-9.3124051013,9.3125081716-9.320238447ZM21.3938691213,229.7830547545l8.9847444945-8.9848475649h11.5911872195v11.5911872195l-8.9848475649,8.9923716996h-11.5910841492v-11.5987113542ZM30.3786136159,265.7681051741l-8.9847444945-8.9848475649v-11.5911872195h11.5910841492l8.9848475649,8.9849506352v11.5910841492h-11.5911872195Z"/>
        <path class="cls-35" d="M16.8704211669,389.259151655h5.3877958147l19.7987813603-19.7986782899v10.478439843l9.3125081716,9.320238447h33.7988254655l9.3125081716-9.320238447v-10.478439843l2.754967083,2.7559977864v-5.3889295884l-.057204038-.0571009676h.057204038v-3.6875475075h-2.8344343142v-11.5910841492l2.8344343142-2.8344343141v-5.221131077l-6.4780738574,6.4779707871v10.4861701184l-19.7987813603-19.7985752196,19.7987813603-19.7986782899v10.4784398429l6.4780738574,6.4834335151v-5.2240170465l-2.8344343142-2.836804932v-11.5911872195h2.8344343142v-3.6874444372h-.064831243l.064831243-.064831243v-5.3867651113l-2.754967083,2.7538333093v-10.4709157082l-9.3125081716-9.3125081716h-33.7988254655l-9.3125081716,9.3125081716v10.4861701184l-19.7987813603-19.7986782899h-5.3877958147L-.1656978788,308.9739543118v5.3867651113l19.7338820908-19.7262198418,19.7910510849,19.7910510849h-10.4709157082l-9.3201353767,9.3200323063-9.3125081716-9.3200323063H-.1656978788v3.6874444372h8.756705493l8.9924541559,8.9848475649v11.5987113542H5.9846782665l-6.1503761454-6.1555667676v5.2240170465l2.834438437,2.8368049319-2.834438437,2.8344343142v5.221131077l6.1503761454-6.1505163211h11.5987835035v11.5911872195l-8.9924541559,8.9848475649H-.1656978788v3.6875475075h10.4213739192l9.3125081716-9.312611242,9.3201353767,9.312611242h10.4709157082l-19.7910510849,19.7909480145L-.1656978788,366.827541563v5.3889295884l17.0361190458,17.0426805035ZM66.2841968043,387.3538964442h-11.5988144246l-8.9847444945-8.9923716996v-11.5910841492h11.5910841492l8.9924747699,8.9847444945v11.5987113542ZM90.6705358697,378.3615247446l-8.9848475649,8.9923716996h-11.5910841492v-11.5987113542l8.9847444945-8.9847444945h11.5911872195v11.5910841492ZM88.0599703312,363.0828930878h-10.4709157082l-9.3201353767,9.3201353767-9.3125081716-9.3201353767h-10.4861701183l19.79867829-19.7910510849,19.7910510849,19.7910510849ZM70.0946041556,293.8495158817h11.5910841492l8.9848475649,8.9848475649v11.5911872195h-11.5911872195l-8.9847444945-8.9849506352v-11.5910841492ZM77.589054623,318.1129951034h10.4709157082l-19.7910510849,19.7910510849-19.7910510849-19.7910510849h10.4785429133l9.3125081716-9.312611242,9.3201353767,9.312611242ZM45.7006378852,302.8343634466l8.9847444945-8.9848475649h11.5988144246v11.5910841492l-8.9924747699,8.9849506352h-11.5910841492v-11.5911872195ZM45.7801051163,331.2815707863v-10.4784398429l19.7910510849,19.7986782899-19.7910510849,19.7833208095v-10.4709157082l-9.3125081716-9.3124051013,9.3125081716-9.320238447ZM21.3938691213,327.0978426682l8.9847444945-8.9848475649h11.5911872195v11.5911872195l-8.9848475649,8.9923716996h-11.5910841492v-11.5987113542ZM30.3786136159,363.0828930878l-8.9847444945-8.9848475649v-11.5911872195h11.5910841492l8.9848475649,8.9849506352v11.5910841492h-11.5911872195Z"/>
        <path class="cls-10" d="M97.2358072337,411.6755073369v-5.3867651113l-2.754967083,2.7538333093v-10.4709157082l-9.3125081716-9.3125081716h-33.7988254655l-9.3125081716,9.3125081716v10.4861701183l-19.7987813603-19.79867829h-5.3877958147L-.1656978788,406.2887422255v5.3867651113l19.7338820908-19.7262198419,19.7910510849,19.7910510849h-10.4709157082l-.5410162078.5410162078h33.7554328529l6.1661830125-6.1661830125,6.1712334591,6.1661830125h22.7956545282v-.5410162078h-.064831243l.064831243-.064831243ZM66.2841968043,402.7553879446l-8.9924747699,8.9849506352h-11.5910841492v-11.5911872195l8.9847444945-8.9848475649h11.5988144246v11.5910841492ZM90.6705358697,411.7403385799h-11.5911872195l-8.9847444945-8.9849506352v-11.5910841492h11.5910841492l8.9848475649,8.9848475649v11.5911872195Z"/>
        <polygon class="cls-21" points="-.1656978788 411.7403385799 -.1656978788 412.2813547877 10.7962799669 412.2813547877 10.2556760404 411.7403385799 -.1656978788 411.7403385799"/>
      </g>
    </g>
  </g>
  <g>
    <path class="cls-11" d="M335.3512083401,311.5056930922c-.8734774466-8.2920647053-7.8844703304-14.7675124164-16.4095476554-14.7675124164h-117.1159242784c-27.7417233173,0-50.3122440562-22.5705207389-50.3122440562-50.3122440562,0-.5823182977.0116577393-1.1529788561.0348310505-1.7236394144.9084506647-26.9498500463,23.1180079861-48.5886046418,50.2774130057-48.5886046418,26.7866416952,0,48.8447905726,20.7186461915,50.3239017956,47.1211511581.0233154787.4074522073.0466309574.8151887498.0582886968,1.2229252922,0,.0699464362.0116577394.1396085372.0116577394.2095549734.8501619679,8.315380184,7.8729547586,14.8024856345,16.4096898229,14.8024856345,8.7696055164,0,15.9322911794-6.8479267004,16.4563207803-15.4780658471-1.2927295608-44.8151934459-38.1418485009-80.8722969473-83.259858835-80.8722969473-45.3508807862,0-82.3630659097,36.4415245651-83.2831743137,81.582850378-.0116577394.5706605583-.0233154787,1.1413211167-.0233154787,1.7236394144,0,45.933199084,37.3732907085,83.3064897924,83.3064897924,83.3064897924h117.1159242784c9.1073956227,0,16.4911518309-7.3838983758,16.4911518309-16.5030939054,0-.5823182977-.0349732181-1.152694521-.0816041755-1.7236394144Z"/>
    <path class="cls-8" d="M201.8257364063,146.6282949962c.6522647339,0,1.3043873002.0116577394,1.9565098665.0233154787.143162726-.002843351.2844772738-.002843351.4267869946-.0051180319,50.0293306254,2.7591878716,94.757801864,41.3119006011,101.2244351868,96.1740750285.0429346011,1.1987568082.0915559042,2.396376276.0915559042,3.605369148,0,8.4552730563,6.3588703175,15.4314348897,14.5462997037,16.3865165117,8.1874293862-.9667393614,14.5346419644-7.9429011948,14.5346419644-16.3865165117,0-70.4838295032-55.215460797-128.2965493288-124.6627466701-132.51238595,13.4865827625-3.3423591747,23.4906291429-15.4897235865,23.4906291429-30.0010500721,0-1.5604310634-.1162930585-3.0861732439-.3376479388-4.5885999457v-.0116577393c-.3726211568-2.4921972068-1.0482013694-4.8914168339-1.9799675128-7.1507435886-1.7469548932,13.3700053689-12.7410561137,23.8397926534-26.3672474134,24.7365855787-.6289492552.0466309574-1.2695562497.0699464362-1.921678816.0699464362-12.3567772176,0-22.885137534-7.8612970193-26.8332726527-18.8553982399-.8385042285-2.2826422335-1.3743337363-4.6935195998-1.5955464491-7.2090322854-1.8284169011,3.9596506905-2.8649605312,8.3620111415-2.8649605312,13.0088997839,0,14.3950334271,9.8527801038,26.4721670677,23.1761545153,29.9194458966-69.9246845166,3.7037490948-125.6758326539,61.7607127767-125.6758326539,132.5939901255,0,9.1075377902,7.3837562082,16.5028095702,16.4911518309,16.5028095702.6639224732,0,1.3161872071-.0349732181,1.9566520341-.1162930585,8.1874293862-.9667393614,14.5464418712-7.9429011948,14.5464418712-16.3865165117,0-55.0290791348,44.7685624885-99.7976416233,99.7976416233-99.7976416233Z"/>
  </g>
</svg>