<?xml version="1.0" encoding="UTF-8"?>
<svg version="1.1" xmlns="http://www.w3.org/2000/svg" width="1718" height="1718">
<path d="M0 0 C4.45442519 0.00774975 8.90882153 -0.00222368 13.36324237 -0.00973 C21.13702316 -0.02046935 28.91074124 -0.02029611 36.68452476 -0.01258852 C48.24515184 -0.00115793 59.80572682 -0.00708503 71.36635365 -0.01621344 C92.02343381 -0.03194942 112.680486 -0.03066602 133.33756877 -0.0219767 C151.4156528 -0.01441018 169.49372661 -0.01246915 187.5718119 -0.01604463 C188.7740765 -0.01627379 189.97634109 -0.01650294 191.21503795 -0.01673904 C196.09623679 -0.01767316 200.97743563 -0.01862837 205.85863447 -0.01961833 C251.58592598 -0.02878164 297.31319974 -0.02049672 343.04048851 -0.00432764 C383.60722373 0.00990764 424.17393069 0.0086337 464.74066566 -0.00571062 C510.38788209 -0.02179769 556.03508287 -0.02813161 601.68230174 -0.01887383 C606.55426492 -0.01791177 611.42622811 -0.01697324 616.29819129 -0.01604463 C617.49766689 -0.0158074 618.69714248 -0.01557017 619.93296582 -0.01532575 C637.99333094 -0.01192289 656.05368469 -0.01588627 674.11404823 -0.02348329 C694.66318619 -0.03208446 715.21229198 -0.0298669 735.76142596 -0.01364106 C747.24171852 -0.00487348 758.7219413 -0.00419705 770.20223195 -0.01557958 C777.89314663 -0.02235975 785.58400595 -0.01802552 793.2749125 -0.00506528 C797.64167504 0.00199682 802.00830011 0.00466956 806.3750578 -0.00628323 C833.36776185 -0.06901372 859.99847902 1.30799909 886.6225016 6.13540266 C887.69964927 6.32631483 887.69964927 6.32631483 888.79855751 6.52108382 C922.71178487 12.55586672 956.36171921 22.5037279 987.9350016 36.38540266 C989.39728187 37.02614729 989.39728187 37.02614729 990.88910316 37.67983626 C1031.73437461 55.73081106 1069.13466437 79.22697841 1102.9350016 108.38540266 C1103.67492347 109.0234886 1104.41484535 109.66157454 1105.1771891 110.31899641 C1107.10665889 111.99662778 1109.02137464 113.6897266 1110.9350016 115.38540266 C1111.6441471 116.00971174 1112.35329261 116.63402083 1113.08392738 117.27724837 C1119.30319635 122.80455768 1125.26294214 128.55786377 1131.1315348 134.45156477 C1132.62805085 135.95347191 1134.12988459 137.44991329 1135.63226722 138.94594954 C1140.94346019 144.25320578 1146.07633655 149.65655305 1150.9350016 155.38540266 C1151.7806266 156.34962141 1152.6262516 157.31384016 1153.4975016 158.30727766 C1171.8126144 179.5575047 1188.16069185 202.94347358 1201.9350016 227.38540266 C1202.41501625 228.23473372 1202.89503089 229.08406477 1203.38959144 229.95913313 C1228.70135292 275.03476616 1246.1973057 323.77718297 1255.1850016 374.69790266 C1255.30410896 375.35557631 1255.42321632 376.01324995 1255.54593299 376.6908531 C1260.34234717 403.48891305 1261.38848781 430.30621815 1261.32040426 457.45040107 C1261.31265451 461.90482626 1261.32262794 466.35922259 1261.33013426 470.81364344 C1261.34087361 478.58742423 1261.34070037 486.3611423 1261.33299278 494.13492583 C1261.32156219 505.69555291 1261.32748929 517.25612789 1261.3366177 528.81675471 C1261.35235368 549.47383487 1261.35107028 570.13088707 1261.34238096 590.78796984 C1261.33481444 608.86605387 1261.33287341 626.94412768 1261.33644889 645.02221297 C1261.33667805 646.22447756 1261.3369072 647.42674216 1261.3371433 648.66543902 C1261.33807742 653.54663786 1261.33903263 658.4278367 1261.34002259 663.30903553 C1261.3491859 709.03632704 1261.34090098 754.76360081 1261.3247319 800.49088958 C1261.31049662 841.0576248 1261.31177056 881.62433175 1261.32611488 922.19106673 C1261.34220195 967.83828316 1261.34853586 1013.48548394 1261.33927809 1059.13270281 C1261.33831603 1064.00466599 1261.3373775 1068.87662917 1261.33644889 1073.74859236 C1261.33609304 1075.54780575 1261.33609304 1075.54780575 1261.33573001 1077.38336689 C1261.33232715 1095.443732 1261.33629053 1113.50408575 1261.34388755 1131.56444929 C1261.35248872 1152.11358725 1261.35027116 1172.66269304 1261.33404532 1193.21182702 C1261.32527773 1204.69211958 1261.3246013 1216.17234237 1261.33598384 1227.65263302 C1261.34276401 1235.3435477 1261.33842978 1243.03440702 1261.32546954 1250.72531356 C1261.31840744 1255.09207611 1261.3157347 1259.45870118 1261.32668748 1263.82545887 C1261.38941798 1290.81816291 1260.01240517 1317.44888009 1255.1850016 1344.07290266 C1255.05772682 1344.79100111 1254.93045204 1345.50909956 1254.79932044 1346.24895857 C1248.76499588 1380.15961023 1238.82149611 1413.81628197 1224.9350016 1445.38540266 C1224.50252113 1446.37089094 1224.07004066 1447.35637923 1223.62445472 1448.37173079 C1204.54457168 1491.47813322 1179.25413668 1531.12452458 1147.9350016 1566.38540266 C1147.06359535 1567.36895735 1146.1921891 1568.35251204 1145.2943766 1569.36587141 C1138.66731506 1576.73100662 1131.67780648 1583.74526211 1124.6850016 1590.76040266 C1124.2131443 1591.2349388 1123.741287 1591.70947493 1123.25513099 1592.19839094 C1117.6585608 1597.81905386 1111.98088667 1603.25122508 1105.9350016 1608.38540266 C1104.91364053 1609.27411944 1103.89277335 1610.16340428 1102.8725016 1611.05337141 C1094.50880849 1618.22701776 1085.84188192 1624.90102672 1076.9350016 1631.38540266 C1075.9138224 1632.13007796 1075.9138224 1632.13007796 1074.87201332 1632.88979719 C1058.97063642 1644.43154346 1042.46830981 1654.87293196 1025.16351722 1664.18081282 C1022.97898519 1665.36162801 1020.80827138 1666.56511414 1018.6381266 1667.77212141 C985.38952531 1686.0381457 948.84244108 1698.90894181 911.9350016 1707.38540266 C910.93001625 1707.61807844 909.92503089 1707.85075423 908.88959144 1708.09048079 C897.45644201 1710.69846483 885.96470663 1712.80594034 874.3725016 1714.57290266 C872.86913246 1714.80529646 872.86913246 1714.80529646 871.33539222 1715.04238508 C849.21179932 1718.25156387 827.15679989 1718.68091805 804.84813274 1718.64853913 C800.39525203 1718.6443194 795.942387 1718.65179839 791.48951028 1718.65769164 C783.70604004 1718.66640631 775.92259613 1718.66778273 768.13912223 1718.66418837 C756.56394857 1718.65885728 744.98880017 1718.66500078 733.41362926 1718.6732713 C711.53189728 1718.68847725 689.65017692 1718.69021985 667.76844077 1718.68774827 C650.86469551 1718.68591246 633.96095403 1718.68768126 617.05720924 1718.69197272 C614.6248372 1718.69257513 612.19246515 1718.69317633 609.76009311 1718.69377632 C606.09429162 1718.69468362 602.42849013 1718.69559229 598.76268865 1718.69650867 C564.69782947 1718.70493322 530.63297172 1718.70927738 496.56811164 1718.70510195 C495.28505764 1718.70494557 494.00200363 1718.7047892 492.6800692 1718.70462808 C486.17771407 1718.70382236 479.67535895 1718.70297658 473.17300384 1718.70211478 C471.88172138 1718.70194369 470.59043893 1718.70177261 469.2600267 1718.70159633 C466.64874195 1718.70124968 464.03745721 1718.70090115 461.42617246 1718.70055075 C420.8070366 1718.6951952 380.18792246 1718.70312129 339.56879066 1718.7215843 C293.88354566 1718.74232597 248.1983141 1718.75302283 202.51306413 1718.74900882 C197.63648278 1718.7486135 192.75990143 1718.74825195 187.88332008 1718.74791144 C186.08234868 1718.74777534 186.08234868 1718.74777534 184.24499403 1718.74763649 C166.16348269 1718.7464732 148.08198499 1718.75309838 130.00047706 1718.76372336 C109.42186916 1718.77580368 88.84329118 1718.77730183 68.26468281 1718.76493319 C56.76665501 1718.75833063 45.26869888 1718.75987517 33.77067689 1718.7735217 C26.06766013 1718.78182122 18.36469655 1718.77899799 10.66168403 1718.76754644 C6.28786544 1718.76134396 1.91418572 1718.75954667 -2.45962436 1718.77140977 C-29.46879561 1718.83970511 -56.11202899 1717.46578834 -82.7524984 1712.63540266 C-83.47059685 1712.50812788 -84.1886953 1712.3808531 -84.92855431 1712.24972151 C-163.31311482 1698.30136442 -239.35715603 1663.35331595 -299.0649984 1610.38540266 C-300.48115391 1609.15564711 -301.89773709 1607.92638364 -303.3149984 1606.69790266 C-304.56586616 1605.59471915 -305.8157304 1604.49039746 -307.0649984 1603.38540266 C-307.77212975 1602.76310774 -308.4792611 1602.14081282 -309.20782067 1601.49966048 C-315.42890855 1595.97009048 -321.39091528 1590.21497389 -327.26153161 1584.31924055 C-328.75804766 1582.81733342 -330.2598814 1581.32089204 -331.76226403 1579.82485579 C-337.073457 1574.51759955 -342.20633336 1569.11425227 -347.0649984 1563.38540266 C-347.9106234 1562.42118391 -348.7562484 1561.45696516 -349.6274984 1560.46352766 C-367.94261121 1539.21330062 -384.29068866 1515.82733175 -398.0649984 1491.38540266 C-398.54501305 1490.53607161 -399.0250277 1489.68674055 -399.51958825 1488.81167219 C-424.83134972 1443.73603917 -442.32730251 1394.99362235 -451.3149984 1344.07290266 C-451.43410576 1343.41522902 -451.55321312 1342.75755537 -451.6759298 1342.07995222 C-456.47234397 1315.28189228 -457.51848462 1288.46458718 -457.45040107 1261.32040426 C-457.44265131 1256.86597907 -457.45262475 1252.41158273 -457.46013106 1247.95716189 C-457.47087041 1240.1833811 -457.47069718 1232.40966302 -457.46298958 1224.6358795 C-457.451559 1213.07525242 -457.4574861 1201.51467744 -457.46661451 1189.95405061 C-457.48235048 1169.29697045 -457.48106709 1148.63991826 -457.47237777 1127.98283548 C-457.46481125 1109.90475146 -457.46287022 1091.82667765 -457.4664457 1073.74859236 C-457.46667485 1072.54632776 -457.46690401 1071.34406317 -457.46714011 1070.10536631 C-457.46807423 1065.22416747 -457.46902944 1060.34296863 -457.4700194 1055.46176979 C-457.4791827 1009.73447828 -457.47089778 964.00720452 -457.45472871 918.27991575 C-457.44049342 877.71318053 -457.44176737 837.14647357 -457.45611168 796.5797386 C-457.47219875 750.93252217 -457.47853267 705.28532139 -457.46927489 659.63810251 C-457.46831284 654.76613934 -457.46737431 649.89417615 -457.4664457 645.02221297 C-457.46620847 643.82273737 -457.46597124 642.62326178 -457.46572681 641.38743844 C-457.46232395 623.32707332 -457.46628734 605.26671957 -457.47388436 587.20635603 C-457.48248552 566.65721807 -457.48026796 546.10811228 -457.46404213 525.5589783 C-457.45527454 514.07868574 -457.45459811 502.59846296 -457.46598065 491.1181723 C-457.47276082 483.42725763 -457.46842659 475.73639831 -457.45546634 468.04549176 C-457.44840424 463.67872922 -457.44573151 459.31210415 -457.45668429 454.94534646 C-457.51941478 427.95264241 -456.14240198 401.32192524 -451.3149984 374.69790266 C-451.12408623 373.62075499 -451.12408623 373.62075499 -450.92931725 372.52184675 C-444.89453435 338.60861939 -434.94667316 304.95868505 -421.0649984 273.38540266 C-420.63783532 272.41054915 -420.21067223 271.43569563 -419.77056481 270.4313011 C-401.71959001 229.58602965 -378.22342265 192.18573989 -349.0649984 158.38540266 C-348.1078695 157.27551985 -348.1078695 157.27551985 -347.13140465 156.14321516 C-345.45377329 154.21374537 -343.76067446 152.29902962 -342.0649984 150.38540266 C-341.44068932 149.67625715 -340.81638024 148.96711165 -340.1731527 148.23647688 C-334.64584338 142.01720791 -328.89253729 136.05746212 -322.99883629 130.18886946 C-321.49692916 128.69235341 -320.00048778 127.19051967 -318.50445153 125.68813704 C-313.19719529 120.37694407 -307.79384801 115.24406771 -302.0649984 110.38540266 C-301.10077965 109.53977766 -300.1365609 108.69415266 -299.1431234 107.82290266 C-277.89289637 89.50778986 -254.50692749 73.15971241 -230.0649984 59.38540266 C-229.21566735 58.90538801 -228.36633629 58.42537337 -227.49126793 57.93081282 C-182.41563491 32.61905134 -133.67321809 15.12309856 -82.7524984 6.13540266 C-81.76598794 5.95674162 -81.76598794 5.95674162 -80.75954796 5.77447127 C-53.96148802 0.97805709 -27.14418292 -0.06808355 0 0 Z " fill="#202225" transform="translate(457.06499840319157,-0.38540266267955303)"/>
<path d="M0 0 C1.24652344 0.29390625 2.49304688 0.5878125 3.77734375 0.890625 C29.27031767 7.19934745 53.87661473 16.91689048 77.14111328 29.03369141 C78.97255617 29.98573382 80.81181586 30.92113802 82.65234375 31.85546875 C108.30207692 45.03019797 131.26304423 62.3873858 152.52734375 81.75 C154.27998238 83.34481809 156.04423185 84.9269187 157.81640625 86.5 C162.53845919 90.71451256 167.01434536 94.92313271 171.08203125 99.7734375 C173.02138877 102.02483014 175.05090074 104.17381672 177.09960938 106.32543945 C230.16526279 162.40618681 262.22522435 243.01016036 264.92089844 319.77490234 C264.98935941 321.70068426 265.07512116 323.62583649 265.1640625 325.55078125 C265.60033276 340.84007081 259.23724078 355.07825218 250 367 C249.50886719 367.64453125 249.01773438 368.2890625 248.51171875 368.953125 C247.40278497 370.35319479 246.20999702 371.68628894 245 373 C244.34 373 243.68 373 243 373 C243 373.66 243 374.32 243 375 C241.11589629 376.54678837 239.25584914 377.93881605 237.25 379.3125 C236.66307373 379.71549316 236.07614746 380.11848633 235.47143555 380.53369141 C229.96678519 384.20247327 224.26633344 386.86711135 218 389 C217.27635254 389.25821533 216.55270508 389.51643066 215.80712891 389.7824707 C209.3762319 391.92758784 203.50733755 392.50909039 196.75 392.4375 C195.23829224 392.42614014 195.23829224 392.42614014 193.69604492 392.41455078 C174.12865147 391.98449818 157.87742881 383.35538815 144.375 369.4375 C132.79750583 356.07727663 127.85916698 339.88701725 126.64639282 322.48779297 C126.39419246 318.95562092 126.07917784 315.42916533 125.76171875 311.90234375 C125.66844551 310.8651973 125.66844551 310.8651973 125.57328796 309.80709839 C121.71137832 268.24488199 102.11082351 228.67896755 74.0390625 198.2265625 C72.17658618 196.19282399 70.39915443 194.11048702 68.625 192 C49.44596793 170.15599992 23.14329934 155.74232937 -3 144 C-4.15757812 143.47535156 -5.31515625 142.95070313 -6.5078125 142.41015625 C-23.65220205 135.25523101 -42.63144236 132.06409565 -61 130 C-61.81500977 129.9057373 -62.63001953 129.81147461 -63.46972656 129.71435547 C-116.78608637 123.90916553 -170.38771578 141.51375165 -212.08740234 174.46191406 C-224.01488005 184.05383512 -234.46392252 193.9898663 -244 206 C-244.79535156 206.97839844 -245.59070313 207.95679688 -246.41015625 208.96484375 C-257.14913382 222.46089638 -265.81061186 237.34097439 -273 253 C-273.45584473 253.98637451 -273.45584473 253.98637451 -273.92089844 254.99267578 C-284.7877585 278.87773267 -290.4783504 305.7871075 -291 332 C-291.02852051 333.41817017 -291.02852051 333.41817017 -291.05761719 334.86499023 C-291.14712121 342.88225268 -290.63090094 350.72164657 -289.75 358.6875 C-289.5475769 360.52332642 -289.5475769 360.52332642 -289.34106445 362.39624023 C-284.03601864 408.01362284 -263.72271118 449.92044872 -232 483 C-231.24396484 483.79688232 -231.24396484 483.79688232 -230.47265625 484.60986328 C-222.57038858 492.90379571 -214.25752623 500.25212127 -205 507 C-204.17072998 507.61174072 -204.17072998 507.61174072 -203.32470703 508.23583984 C-167.03901978 534.68639215 -124.29926736 546.55175511 -79.87271118 546.37181091 C-77.73672813 546.37439324 -75.60074634 546.37830129 -73.46476781 546.3834005 C-67.66209727 546.39356821 -61.85958126 546.38544347 -56.05691838 546.37410367 C-49.77336142 546.36518279 -43.4898248 546.37377341 -37.20626831 546.38031006 C-26.33812415 546.38943172 -15.47003 546.38820921 -4.60188675 546.38012505 C11.12869748 546.36864664 26.85922356 546.37790254 42.58980258 546.39268685 C49.93675799 546.39957611 57.28371417 546.4055196 64.63067055 546.41126347 C65.36587561 546.41184021 66.10108067 546.41241694 66.85856467 546.41301116 C84.31895688 546.42650931 101.77934929 546.43111875 119.23974609 546.43383789 C120.00276928 546.43396104 120.76579247 546.43408419 121.55193757 546.43421107 C138.58830335 546.4369271 155.62466873 546.43783945 172.66103469 546.43678741 C179.62151661 546.43636254 186.58199854 546.43605506 193.54248047 546.43579102 C194.68774586 546.43574185 194.68774586 546.43574185 195.85614793 546.43569169 C213.30080007 546.43500549 230.74544131 546.43762685 248.19008827 546.4519434 C249.29087841 546.4528459 249.29087841 546.4528459 250.41390674 546.45376664 C257.74167602 546.45986531 265.0694444 546.46663294 272.39721216 546.47435217 C288.10878084 546.49079312 303.82025152 546.49688704 319.53182332 546.48151282 C330.98020916 546.47050922 342.4284971 546.47375377 353.87688057 546.49070387 C360.07234293 546.49938778 366.26762811 546.5015629 372.46308136 546.48617744 C378.14148426 546.47218856 383.81956723 546.47677031 389.49795301 546.49569846 C391.54467251 546.49929185 393.59141774 546.49621781 395.63811259 546.48554879 C416.43144982 546.38451576 434.88139214 549.75763221 451 564 C452.23556641 565.07701172 452.23556641 565.07701172 453.49609375 566.17578125 C462.31911319 574.38105504 468.37150734 584.50977325 472 596 C472.52207031 597.46179687 472.52207031 597.46179687 473.0546875 598.953125 C474.56800051 604.30351464 474.28918327 609.7974554 474.25 615.3125 C474.25773437 616.38951172 474.26546875 617.46652344 474.2734375 618.57617188 C474.24928123 628.54667379 473.00959889 637.11767102 468.375 646 C468.02236084 646.68642578 467.66972168 647.37285156 467.30639648 648.08007812 C459.0764782 663.62243324 445.81819275 675.3424996 429.26953125 681.35546875 C420.19010328 684.05107598 411.52982951 685.15310503 402.10776711 685.12863445 C401.24356691 685.13038749 400.37936671 685.13214053 399.48897862 685.13394669 C396.59709792 685.13859351 393.70526778 685.13614454 390.81338501 685.13371277 C388.71723718 685.13558144 386.62108969 685.13788236 384.52494276 685.14057809 C378.76700533 685.14669626 373.00908243 685.14656245 367.2511425 685.14538372 C361.0394099 685.1451797 354.82768197 685.15069881 348.61595154 685.15544128 C336.44290188 685.16375011 324.26985882 685.16650926 312.0968069 685.16705366 C302.19399662 685.16751362 292.29118791 685.16957416 282.38837814 685.17275429 C279.53521232 685.17365189 276.68204649 685.17454171 273.82888067 685.17542917 C273.11949252 685.17565021 272.41010437 685.17587126 271.67921961 685.17609901 C251.72337508 685.18225365 231.76753109 685.18619957 211.81168556 685.18575573 C211.05932778 685.18574015 210.30696999 685.18572457 209.53181349 685.18570852 C205.71883044 685.18562542 201.9058474 685.18552638 198.09286435 685.18542381 C196.95703087 685.1853939 196.95703087 685.1853939 195.79825126 685.18536337 C194.26695815 685.18532294 192.73566505 685.18528114 191.20437194 685.18523798 C167.41781736 685.1846262 143.63127706 685.1921137 119.84472656 685.20581055 C93.09540891 685.22120722 66.34610064 685.22977448 39.59677827 685.22884732 C36.73795406 685.2287727 33.87912985 685.22872399 31.02030563 685.22869301 C29.96450829 685.22867553 29.96450829 685.22867553 28.88738171 685.22865769 C17.60849595 685.22862705 6.32962267 685.23498646 -4.94925939 685.24362527 C-16.31212387 685.25214753 -27.67496537 685.25288642 -39.03783308 685.24651595 C-45.18173448 685.24326774 -51.3255911 685.2431319 -57.46948814 685.2518692 C-115.93664701 685.32981464 -115.93664701 685.32981464 -140.625 680.75 C-141.83115967 680.53166504 -143.03731934 680.31333008 -144.2800293 680.08837891 C-176.73525254 674.04989968 -207.45656315 663.69805035 -237 649 C-237.85835449 648.57895996 -238.71670898 648.15791992 -239.60107422 647.72412109 C-258.97985704 638.16371622 -277.02010398 626.33334367 -294 613 C-294.89460937 612.30648437 -295.78921875 611.61296875 -296.7109375 610.8984375 C-299.16938619 608.96509435 -301.58813201 606.99110598 -304 605 C-304.97195313 604.21367188 -305.94390625 603.42734375 -306.9453125 602.6171875 C-314.80843292 596.14566455 -322.09742521 589.11587769 -329.3125 581.9375 C-330.2312793 581.02790527 -331.15005859 580.11831055 -332.09667969 579.18115234 C-338.157362 573.09311051 -343.64199781 566.70853092 -349 560 C-349.87513787 558.96074606 -350.75526484 557.92562799 -351.64453125 556.8984375 C-409.71573759 489.30564598 -434.44036496 397.6939713 -428.76123047 309.86083984 C-428.24052504 303.48284175 -427.44725165 297.16768266 -426.44873047 290.84765625 C-425.99286577 287.95472599 -425.58981066 285.05759993 -425.19140625 282.15625 C-420.51373923 249.75072548 -410.0920681 218.47610849 -396 189 C-395.62294922 188.19820312 -395.24589844 187.39640625 -394.85742188 186.5703125 C-380.27955555 155.68792903 -360.73174534 127.53818351 -337.42578125 102.61328125 C-335.3245519 100.34963804 -333.30819473 98.04359107 -331.3125 95.6875 C-328.45814572 92.39140041 -325.34729292 89.58788979 -322.0234375 86.7734375 C-319.97191028 84.97538083 -318.08480459 83.0842574 -316.1875 81.125 C-311.44860254 76.34036029 -306.28949149 72.15580898 -301 68 C-300.38479492 67.51370117 -299.76958984 67.02740234 -299.13574219 66.52636719 C-278.53752045 50.3008392 -256.61520993 36.29638021 -232.95947266 24.94726562 C-230.99829157 23.99917409 -229.05175503 23.02512331 -227.10546875 22.046875 C-198.22697633 7.73996943 -166.62055123 -0.52371849 -135 -6 C-133.98969727 -6.18079102 -132.97939453 -6.36158203 -131.93847656 -6.54785156 C-89.31135881 -13.84830789 -41.82123685 -10.61955229 0 0 Z " fill="#C4AF91" transform="translate(923,689)"/>
<path d="M0 0 C1.85934236 3.0596773 2.39402986 5.96312455 2.88549805 9.48095703 C6.979722 38.54763021 24.25949523 65.62424334 47.22265625 83.6015625 C73.01190197 102.20049807 105.71331443 111.28396929 137.36450195 106.17993164 C168.81415643 100.24789379 197.43635143 84.29425931 215.87988281 57.67529297 C225.46512213 43.33921795 233.43240327 27.06279154 235.5625 9.8125 C235.706875 8.884375 235.85125 7.95625 236 7 C236.66 6.67 237.32 6.34 238 6 C250.50619554 40.28952793 250.36539348 75.3934184 235 109 C222.63073343 134.78637919 202.58333035 154.78602329 177.5625 168.3125 C176.83643555 168.70928955 176.11037109 169.1060791 175.36230469 169.51489258 C168.21722616 173.22880255 160.65610423 175.58505541 153 178 C154.7008374 178.17221069 154.7008374 178.17221069 156.43603516 178.34790039 C177.00406428 180.45404389 197.47884499 182.76763311 217.8125 186.5625 C218.5793512 186.70398468 219.34620239 186.84546936 220.1362915 186.99124146 C230.23867284 188.87145456 240.09484729 191.25372845 250 194 C252.22720541 194.58714157 254.45505976 195.1718277 256.68359375 195.75390625 C327.61740486 214.60418036 393.82008726 247.23565475 452 292 C452.59619141 292.45584473 453.19238281 292.91168945 453.80664062 293.38134766 C466.92651433 303.43099734 479.32567326 314.28896129 491.42382812 325.54150391 C493.11229779 327.10391373 494.81341454 328.6517967 496.515625 330.19921875 C506.16859115 339.02493347 515.14609438 348.37842888 524 358 C524.97106878 359.04583797 525.94239347 360.09143843 526.9140625 361.13671875 C531.63945176 366.26442443 536.15962463 371.51626975 540.53515625 376.9453125 C542.34085175 379.1831158 544.15979312 381.40481899 545.99609375 383.6171875 C579.06751171 423.61076413 606.72422187 469.84795915 626 518 C626.38414063 518.94617188 626.76828125 519.89234375 627.1640625 520.8671875 C627.78895026 522.41670592 628.40778166 523.96868527 629.01953125 525.5234375 C629.77428569 527.42986904 630.54572484 529.32970122 631.32421875 531.2265625 C638.17580494 548.02283941 643.77921383 565.00012504 648.35644531 582.55371094 C648.91561498 584.67923447 649.49318331 586.79771873 650.0859375 588.9140625 C659.21675542 621.85805355 664.23139395 655.97151534 667 690 C667.07057617 690.79567383 667.14115234 691.59134766 667.21386719 692.41113281 C668.05057718 701.91598128 668.14522001 711.45910233 668.22915649 720.99542236 C668.24276755 722.38606142 668.26093607 723.77666542 668.28427124 725.16717529 C668.48394101 738.09939038 667.54380551 751.13932688 661.0625 762.625 C660.67698975 763.32737793 660.29147949 764.02975586 659.89428711 764.75341797 C649.89773819 782.13649199 635.08026954 791.75224737 616.390625 797.8515625 C605.38043666 800.77980408 593.45625219 797.34301922 583.59765625 792.23828125 C567.82276625 782.8690642 554.59328243 769.07063469 549.42529297 750.98925781 C547.31628949 742.08829975 546.84480509 733.11153294 546.5625 724 C545.52223124 690.47586718 536.56454375 657.30019432 526.4375 625.5 C526.06133545 624.31792969 525.6851709 623.13585937 525.29760742 621.91796875 C523.1144849 615.15856595 520.71661564 608.56113255 518 602 C517.30380339 600.25295623 516.60852336 598.50554697 515.9140625 596.7578125 C507.48582226 575.88558887 497.77323836 555.2160902 486 536 C485.57041992 535.29681641 485.14083984 534.59363281 484.69824219 533.86914062 C477.57409244 522.25760663 470.02163123 511.00885327 462 500 C461.505 499.31808594 461.01 498.63617187 460.5 497.93359375 C453.4304266 488.23134068 445.96156538 478.98315692 438 470 C437.21882813 469.11828125 436.43765625 468.2365625 435.6328125 467.328125 C433.4354594 464.87271975 431.22047853 462.43450056 429 460 C428.13761719 459.04480469 427.27523437 458.08960938 426.38671875 457.10546875 C418.44356281 448.3340158 410.34355051 439.66818704 401.32421875 431.984375 C399.4543397 430.38790684 397.60850147 428.77221637 395.76953125 427.140625 C386.51232297 418.96169594 376.9131759 411.36571766 367 404 C366.28473145 403.46375 365.56946289 402.9275 364.83251953 402.375 C348.26011725 389.9782918 330.74419333 379.17010939 312.52758789 369.36132812 C310.56684137 368.30529387 308.61131446 367.23956558 306.65795898 366.16992188 C297.88269244 361.39202004 288.97755385 357.10012755 279.8125 353.125 C279.12945801 352.82729706 278.44641602 352.52959412 277.74267578 352.22286987 C249.76853475 340.0681896 220.89418109 330.61365639 190.97900391 324.6015625 C187.90287114 323.98038637 184.83259827 323.33410104 181.76171875 322.6875 C102.11959754 306.23643383 17.29494075 318.71045642 -56.21484375 352.71240234 C-58.79244821 353.90404732 -61.378893 355.07357779 -63.96875 356.23828125 C-95.92236727 370.78254914 -126.05630749 390.56880031 -152.47265625 413.68310547 C-153.98030862 414.98302185 -155.52136254 416.24386912 -157.0625 417.50390625 C-165.25957366 424.2284592 -172.80431514 431.58900292 -180.3125 439.0625 C-180.8244693 439.56929291 -181.3364386 440.07608582 -181.86392212 440.59823608 C-187.91884863 446.60484459 -193.57940651 452.73158196 -198.90405273 459.40966797 C-200.90260422 461.87963084 -202.97647766 464.24349549 -205.109375 466.59765625 C-209.08424378 471.02564434 -212.70000769 475.66489623 -216.25 480.4375 C-216.89767334 481.30729492 -217.54534668 482.17708984 -218.21264648 483.07324219 C-242.16330836 515.48625541 -261.26168089 550.90320128 -275.15380859 588.70800781 C-275.87538634 590.66247173 -276.61724261 592.60942916 -277.36328125 594.5546875 C-288.47248061 624.15509491 -294.3705253 655.69547143 -298 687 C-298.09949951 687.82669189 -298.19899902 688.65338379 -298.30151367 689.50512695 C-298.96589026 695.75673039 -299.1464339 702.00527489 -299.32421875 708.28515625 C-299.41532655 711.21251388 -299.50762816 714.13983148 -299.6003418 717.06713867 C-299.65807587 719.05128257 -299.7073414 721.03569241 -299.74780273 723.02026367 C-300.22370934 745.31009964 -305.23293161 763.79994967 -320.75 780.375 C-330.10517184 789.16712909 -340.80179189 794.32117533 -353 798 C-353.77730469 798.24621094 -354.55460937 798.49242187 -355.35546875 798.74609375 C-372.45015895 803.39661923 -390.27040597 798.42789536 -405.36328125 790.20703125 C-410.57795049 787.17134397 -414.85371321 783.36167831 -419 779 C-419.96486328 778.01193359 -419.96486328 778.01193359 -420.94921875 777.00390625 C-435.86082279 760.92783856 -439.0109411 741.96364241 -438.5625 720.8125 C-438.53983864 718.77670288 -438.51812152 716.74089504 -438.49731445 714.70507812 C-438.26957524 698.33958727 -437.08203968 682.23495226 -435 666 C-434.7801056 664.12773822 -434.56128394 662.25535 -434.34375 660.3828125 C-422.79998369 565.28458301 -384.84492569 474.64660365 -313 380 C-312.51789063 379.41879395 -312.03578125 378.83758789 -311.5390625 378.23876953 C-305.77827114 371.29836862 -299.84609068 364.55384903 -293.703125 357.94921875 C-291.67952903 355.76726423 -289.73198283 353.53075913 -287.79296875 351.2734375 C-283.435951 346.27582102 -278.75953738 341.61339543 -274.0625 336.9375 C-273.20720703 336.07833984 -272.35191406 335.21917969 -271.47070312 334.33398438 C-267.02737683 329.89743661 -262.5214252 325.60428263 -257.75805664 321.51293945 C-255.34899797 319.43976398 -253.02192362 317.2815282 -250.6875 315.125 C-245.28499945 310.20486557 -239.71013746 305.55742254 -234 301 C-233.48630859 300.58669434 -232.97261719 300.17338867 -232.44335938 299.74755859 C-161.76242951 242.93359471 -78.3022502 203.9298568 47 181 C47.80630859 180.90380371 48.61261719 180.80760742 49.44335938 180.70849609 C60.27755093 179.43853077 71.10692386 178.57094744 82 178 C80.94683594 177.6596875 79.89367187 177.319375 78.80859375 176.96875 C44.99191643 165.73733224 17.89826097 142.89683896 1.6875 111 C-4.09398028 99.23009926 -7.68289559 86.90063536 -10 74 C-10.18433594 72.99324219 -10.36867188 71.98648438 -10.55859375 70.94921875 C-13.26140098 46.76746555 -10.98209696 21.96419392 0 0 Z " fill="#D6C1A4" transform="translate(726,296)"/>
</svg>
