<svg width="20" height="20" viewBox="0 0 20 20" fill="none" xmlns="http://www.w3.org/2000/svg">
<path d="M8.5531 17.4927C8.69933 17.7459 8.90963 17.9562 9.16288 18.1024C9.41613 18.2486 9.70341 18.3256 9.99583 18.3256C10.2883 18.3256 10.5755 18.2486 10.8288 18.1024C11.082 17.9562 11.2923 17.7459 11.4386 17.4927" stroke="#CCA766" stroke-width="1.24948" stroke-linecap="round" stroke-linejoin="round"/>
<path d="M18.3256 6.66393C18.3256 4.74807 17.6593 3.08209 16.6597 1.66602" stroke="#CCA766" stroke-width="1.24948" stroke-linecap="round" stroke-linejoin="round"/>
<path d="M2.71715 12.7664C2.60833 12.8857 2.53652 13.034 2.51044 13.1933C2.48437 13.3526 2.50517 13.5161 2.5703 13.6638C2.63542 13.8116 2.74208 13.9372 2.87729 14.0254C3.0125 14.1137 3.17044 14.1607 3.33189 14.1608H16.6597C16.8211 14.1609 16.9791 14.114 17.1144 14.026C17.2497 13.9379 17.3565 13.8124 17.4218 13.6648C17.4871 13.5171 17.5081 13.3537 17.4822 13.1944C17.4563 13.035 17.3847 12.8866 17.2761 12.7672C16.1682 11.6252 14.9937 10.4115 14.9937 6.66393C14.9937 5.3384 14.4671 4.06716 13.5298 3.12987C12.5926 2.19258 11.3213 1.66602 9.99578 1.66602C8.67025 1.66602 7.39901 2.19258 6.46172 3.12987C5.52443 4.06716 4.99786 5.3384 4.99786 6.66393C4.99786 10.4115 3.82252 11.6252 2.71715 12.7664Z" stroke="#CCA766" stroke-width="1.24948" stroke-linecap="round" stroke-linejoin="round"/>
<path d="M3.33199 1.66602C2.3324 3.08209 1.66602 4.74807 1.66602 6.66393" stroke="#CCA766" stroke-width="1.24948" stroke-linecap="round" stroke-linejoin="round"/>
</svg>
