<svg width="22" height="22" viewBox="0 0 22 22" fill="none" xmlns="http://www.w3.org/2000/svg">
<path d="M3.66674 12.8334C3.49328 12.834 3.3232 12.7854 3.17628 12.6932C3.02936 12.601 2.91162 12.4689 2.83675 12.3125C2.76187 12.156 2.73293 11.9815 2.75328 11.8092C2.77364 11.6369 2.84246 11.474 2.95174 11.3393L12.0267 1.98928C12.0948 1.9107 12.1876 1.8576 12.2898 1.8387C12.392 1.81979 12.4977 1.8362 12.5893 1.88524C12.681 1.93427 12.7533 2.01301 12.7943 2.10854C12.8353 2.20407 12.8426 2.3107 12.8151 2.41094L11.0551 7.92928C11.0032 8.06817 10.9857 8.21759 11.0043 8.3647C11.0228 8.51181 11.0768 8.65223 11.1615 8.77392C11.2462 8.8956 11.3592 8.99491 11.4907 9.06334C11.6223 9.13176 11.7685 9.16726 11.9167 9.16678H18.3334C18.5069 9.16618 18.6769 9.21482 18.8239 9.30705C18.9708 9.39927 19.0885 9.53128 19.1634 9.68776C19.2383 9.84423 19.2672 10.0187 19.2469 10.191C19.2265 10.3633 19.1577 10.5262 19.0484 10.6609L9.97341 20.0109C9.90533 20.0895 9.81257 20.1426 9.71034 20.1615C9.60811 20.1804 9.50249 20.164 9.41082 20.115C9.31915 20.0659 9.24687 19.9872 9.20585 19.8917C9.16483 19.7961 9.1575 19.6895 9.18507 19.5893L10.9451 14.0709C10.997 13.932 11.0144 13.7826 10.9959 13.6355C10.9773 13.4884 10.9234 13.348 10.8387 13.2263C10.7539 13.1046 10.6409 13.0053 10.5094 12.9369C10.3779 12.8685 10.2317 12.833 10.0834 12.8334H3.66674Z" stroke="#BFBFBF" stroke-width="1.5125" stroke-linecap="round" stroke-linejoin="round"/>
</svg>
