<svg width="22" height="22" viewBox="0 0 22 22" fill="none" xmlns="http://www.w3.org/2000/svg">
<path d="M11.2291 12.0313L16.1738 8.70842L11.2291 5.3855V12.0313ZM13.5455 17.1699H16.7925C16.7385 17.479 16.6095 17.7338 16.4057 17.9342C16.2018 18.1345 15.9405 18.2593 15.622 18.3087L5.44536 19.5672C4.98809 19.632 4.57766 19.5239 4.21404 19.243C3.85028 18.9622 3.64075 18.5931 3.58544 18.1359L2.41509 8.67679C2.35978 8.21953 2.47169 7.80848 2.75082 7.44364C3.02994 7.07866 3.39806 6.87149 3.85517 6.82214L4.83004 6.71994V8.09494L4.04034 8.18317C3.95799 8.18897 3.89336 8.22273 3.84646 8.28446C3.79941 8.34618 3.78176 8.41814 3.79352 8.50033L4.96044 17.9596C4.9722 18.042 5.0075 18.1066 5.06632 18.1535C5.12498 18.2006 5.19549 18.2182 5.27784 18.2065L13.5455 17.1699ZM8.32048 15.3366C7.85741 15.3366 7.46546 15.1762 7.14463 14.8554C6.82379 14.5345 6.66338 14.1426 6.66338 13.6795V3.94885C6.66338 3.48578 6.82379 3.09383 7.14463 2.773C7.46546 2.45216 7.85741 2.29175 8.32048 2.29175H18.0511C18.5142 2.29175 18.9061 2.45216 19.227 2.773C19.5478 3.09383 19.7082 3.48578 19.7082 3.94885V13.6795C19.7082 14.1426 19.5478 14.5345 19.227 14.8554C18.9061 15.1762 18.5142 15.3366 18.0511 15.3366H8.32048ZM8.32048 13.9616H18.0511C18.1335 13.9616 18.2011 13.9352 18.2539 13.8823C18.3068 13.8294 18.3332 13.7618 18.3332 13.6795V3.94885C18.3332 3.86651 18.3068 3.7989 18.2539 3.74604C18.2011 3.69318 18.1335 3.66675 18.0511 3.66675H8.32048C8.23813 3.66675 8.17053 3.69318 8.11767 3.74604C8.06481 3.7989 8.03838 3.86651 8.03838 3.94885V13.6795C8.03838 13.7618 8.06481 13.8294 8.11767 13.8823C8.17053 13.9352 8.23813 13.9616 8.32048 13.9616Z" fill="#BFBFBF"/>
</svg>
