<svg width="36" height="36" viewBox="0 0 36 36" fill="none" xmlns="http://www.w3.org/2000/svg">
<path d="M0 18C0 8.05888 8.05888 0 18 0C27.9411 0 36 8.05888 36 18C36 27.9411 27.9411 36 18 36C8.05888 36 0 27.9411 0 18Z" fill="#615FFF" fill-opacity="0.1"/>
<path d="M18 16.3333V9.66663" stroke="#7C86FF" stroke-width="1.66667" stroke-linecap="round" stroke-linejoin="round"/>
<path d="M12.1083 17.1083L13.2833 18.2833" stroke="#7C86FF" stroke-width="1.66667" stroke-linecap="round" stroke-linejoin="round"/>
<path d="M9.66669 23H11.3334" stroke="#7C86FF" stroke-width="1.66667" stroke-linecap="round" stroke-linejoin="round"/>
<path d="M24.6667 23H26.3334" stroke="#7C86FF" stroke-width="1.66667" stroke-linecap="round" stroke-linejoin="round"/>
<path d="M23.8917 17.1083L22.7167 18.2833" stroke="#7C86FF" stroke-width="1.66667" stroke-linecap="round" stroke-linejoin="round"/>
<path d="M26.3334 26.3334H9.66669" stroke="#7C86FF" stroke-width="1.66667" stroke-linecap="round" stroke-linejoin="round"/>
<path d="M21.3334 13L18 16.3333L14.6667 13" stroke="#7C86FF" stroke-width="1.66667" stroke-linecap="round" stroke-linejoin="round"/>
<path d="M21.3334 23C21.3334 22.1159 20.9822 21.2681 20.357 20.6429C19.7319 20.0178 18.8841 19.6666 18 19.6666C17.116 19.6666 16.2681 20.0178 15.643 20.6429C15.0179 21.2681 14.6667 22.1159 14.6667 23" stroke="#7C86FF" stroke-width="1.66667" stroke-linecap="round" stroke-linejoin="round"/>
</svg>
