<svg width="36" height="36" viewBox="0 0 36 36" fill="none" xmlns="http://www.w3.org/2000/svg">
<path d="M12.5701 18.0012L16.1851 21.6312L23.4301 14.3711" stroke="#0B0D10" stroke-width="3" stroke-linecap="round" stroke-linejoin="round"/>
<path d="M16.1251 3.67547C17.1601 2.79047 18.8551 2.79047 19.9051 3.67547L22.2751 5.71547C22.7251 6.10547 23.5651 6.42047 24.1651 6.42047H26.7151C28.3051 6.42047 29.6101 7.72547 29.6101 9.31547V11.8655C29.6101 12.4505 29.9251 13.3055 30.3151 13.7555L32.3551 16.1254C33.2401 17.1604 33.2401 18.8554 32.3551 19.9054L30.3151 22.2754C29.9251 22.7254 29.6101 23.5654 29.6101 24.1654V26.7154C29.6101 28.3054 28.3051 29.6104 26.7151 29.6104H24.1651C23.5801 29.6104 22.7251 29.9254 22.2751 30.3154L19.9051 32.3554C18.8701 33.2404 17.1751 33.2404 16.1251 32.3554L13.7551 30.3154C13.3051 29.9254 12.4651 29.6104 11.8651 29.6104H9.27007C7.68007 29.6104 6.37507 28.3054 6.37507 26.7154V24.1504C6.37507 23.5654 6.06007 22.7254 5.68507 22.2754L3.66007 19.8904C2.79007 18.8554 2.79007 17.1754 3.66007 16.1404L5.68507 13.7555C6.06007 13.3055 6.37507 12.4655 6.37507 11.8805V9.30047C6.37507 7.71047 7.68007 6.40547 9.27007 6.40547H11.8651C12.4501 6.40547 13.3051 6.09047 13.7551 5.70047L16.1251 3.67547Z" stroke="#0B0D10" stroke-width="3" stroke-linecap="round" stroke-linejoin="round"/>
</svg>
